<svg width="92" height="153" viewBox="0 0 92 153" fill="none" xmlns="http://www.w3.org/2000/svg">
<path opacity="0.65" d="M0.765625 38.7422C3.63021 26.8932 8.90365 17.5833 16.5859 10.8125C24.3984 3.91146 34.5547 0.460938 47.0547 0.460938C59.9453 0.460938 70.4922 4.17188 78.6953 11.5938C87.0286 19.0156 91.1953 29.237 91.1953 42.2578C91.1953 57.1016 83.513 71.8802 68.1484 86.5938C66.8464 87.8958 64.2422 90.3698 60.3359 94.0156C56.5599 97.6615 54.0859 100.07 52.9141 101.242C51.7422 102.414 49.6589 104.497 46.6641 107.492C43.6693 110.357 41.5859 112.44 40.4141 113.742C39.3724 115.044 37.8099 116.932 35.7266 119.406C33.6432 121.88 32.0807 123.964 31.0391 125.656C29.9974 127.219 28.8906 129.042 27.7188 131.125C26.5469 133.208 25.5052 135.292 24.5938 137.375H91V153H1.74219C1.74219 147.531 2.78385 141.932 4.86719 136.203C7.08073 130.474 9.42448 125.526 11.8984 121.359C14.5026 117.193 18.6042 112.049 24.2031 105.93C29.9323 99.6797 34.3594 95.0573 37.4844 92.0625C40.7396 89.0677 45.9479 84.1849 53.1094 77.4141C65.4792 65.5651 71.6641 53.7161 71.6641 41.8672C71.6641 33.6641 69.3854 27.2839 64.8281 22.7266C60.2708 18.1693 54.2161 15.8906 46.6641 15.8906C38.9818 15.8906 32.6667 18.3646 27.7188 23.3125C22.7708 28.1302 19.2552 34.7708 17.1719 43.2344L0.765625 38.7422Z" fill="#F37F46"/>
</svg>
