<svg width="83" height="145" viewBox="0 0 83 145" fill="none" xmlns="http://www.w3.org/2000/svg">
<path opacity="0.65" d="M0.328125 33.8672C3.19271 23.5807 8.14062 15.4427 15.1719 9.45312C22.2031 3.46354 31.3828 0.46875 42.7109 0.46875C54.2995 0.46875 63.7396 3.85417 71.0312 10.625C78.4531 17.2656 82.1641 26.5755 82.1641 38.5547C82.1641 52.8776 74.8724 66.875 60.2891 80.5469C43.1016 96.5625 31.1875 108.281 24.5469 115.703C18.0365 123.125 13.7396 130.352 11.6562 137.383H82.1641V145H0.71875C0.71875 141.615 1.23958 138.229 2.28125 134.844C3.32292 131.328 5.27604 127.487 8.14062 123.32C11.1354 119.154 13.6745 115.638 15.7578 112.773C17.9714 109.909 21.6823 105.872 26.8906 100.664C32.099 95.4557 36.0052 91.6146 38.6094 89.1406C41.2135 86.6667 45.8359 82.3698 52.4766 76.25C66.1484 63.2292 72.9844 50.6641 72.9844 38.5547C72.9844 28.7891 70.1849 21.3021 64.5859 16.0938C58.987 10.7552 51.5 8.08594 42.125 8.08594C33.401 8.08594 26.1745 10.625 20.4453 15.7031C14.7161 20.7812 10.7448 27.5521 8.53125 36.0156L0.328125 33.8672Z" fill="#AA967B"/>
</svg>
