<svg width="89" height="149" viewBox="0 0 89 149" fill="none" xmlns="http://www.w3.org/2000/svg">
<path opacity="0.65" d="M0.789062 123.711L8.60156 120.195C16.5443 133.997 28.0026 140.898 42.9766 140.898C53.263 140.898 61.7917 138.034 68.5625 132.305C75.4635 126.445 78.9141 117.852 78.9141 106.523C78.9141 95.8464 75.2031 87.7734 67.7812 82.3047C60.4896 76.8359 51.6354 74.1016 41.2188 74.1016C35.75 74.1016 32.3646 74.1667 31.0625 74.2969V66.4844C32.2344 66.6146 35.3594 66.6797 40.4375 66.6797C50.0729 66.6797 57.8854 63.9453 63.875 58.4766C69.9948 53.0078 73.0547 45.651 73.0547 36.4062C73.0547 28.0729 70.2552 21.3021 64.6562 16.0938C59.1875 10.7552 51.9609 8.08594 42.9766 8.08594C29.5651 8.08594 19.4089 15.4427 12.5078 30.1562L4.69531 27.4219C12.2474 9.45312 25.138 0.46875 43.3672 0.46875C55.3464 0.46875 64.8516 3.85417 71.8828 10.625C78.9141 17.3958 82.4297 25.7943 82.4297 35.8203C82.4297 44.5443 79.9557 51.901 75.0078 57.8906C70.1901 63.75 64.3958 67.7214 57.625 69.8047C65.6979 71.4974 72.7943 75.4688 78.9141 81.7188C85.1641 87.8385 88.2891 96.1068 88.2891 106.523C88.2891 120.065 84.0573 130.482 75.5938 137.773C67.2604 144.935 56.388 148.516 42.9766 148.516C23.9661 148.516 9.90365 140.247 0.789062 123.711Z" fill="#AA967B"/>
</svg>
