<svg width="98" height="157" viewBox="0 0 98 157" fill="none" xmlns="http://www.w3.org/2000/svg">
<path opacity="0.65" d="M0.835938 125.852L16.4609 119.797C23.2318 133.859 33.7786 140.891 48.1016 140.891C56.6953 140.891 63.8568 138.352 69.5859 133.273C75.4453 128.065 78.375 120.708 78.375 111.203C78.375 102.349 75.1849 95.3828 68.8047 90.3047C62.4245 85.0964 54.5469 82.4922 45.1719 82.4922C41.526 82.4922 37.3594 82.6875 32.6719 83.0781V67.4531C35.6667 67.7135 39.5729 67.8438 44.3906 67.8438C52.4635 67.8438 59.1693 65.5 64.5078 60.8125C69.8464 55.9948 72.5156 49.4193 72.5156 41.0859C72.5156 33.7943 70.1719 27.8047 65.4844 23.1172C60.7969 18.2995 54.7422 15.8906 47.3203 15.8906C35.2109 15.8906 26.2266 23.3125 20.3672 38.1562L4.74219 33.0781C7.73698 23.4427 12.8802 15.6302 20.1719 9.64062C27.5938 3.52083 36.9688 0.460938 48.2969 0.460938C61.7083 0.460938 72.3203 4.17188 80.1328 11.5938C88.0755 18.8854 92.0469 28.1302 92.0469 39.3281C92.0469 47.6615 89.8333 54.888 85.4062 61.0078C80.9792 66.9974 75.6406 71.3594 69.3906 74.0938C76.9427 76.3073 83.5833 80.5391 89.3125 86.7891C95.0417 93.0391 97.9062 101.177 97.9062 111.203C97.9062 125.526 93.349 136.659 84.2344 144.602C75.25 152.544 63.2708 156.516 48.2969 156.516C36.5781 156.516 26.5521 153.586 18.2188 147.727C9.88542 141.737 4.09115 134.445 0.835938 125.852Z" fill="#F37F46"/>
</svg>
