<svg width="94" height="154" viewBox="0 0 94 154" fill="none" xmlns="http://www.w3.org/2000/svg">
<path opacity="0.65" d="M0.789062 124.609L16.6094 118.945C19.3438 124.674 23.1849 129.297 28.1328 132.812C33.0807 136.198 38.6146 137.891 44.7344 137.891C53.9792 137.891 61.2057 134.831 66.4141 128.711C71.6224 122.591 74.2266 114.648 74.2266 104.883C74.2266 94.987 71.4271 86.9792 65.8281 80.8594C60.2292 74.6094 53.0026 71.4844 44.1484 71.4844C33.7318 71.4844 24.6823 75.9115 17 84.7656L5.28125 80.2734L13.0938 0.976562H85.1641V16.6016H30.4766L25.3984 63.6719C32.6901 58.5938 41.1536 56.0547 50.7891 56.0547C63.4193 56.0547 73.7057 60.4167 81.6484 69.1406C89.7214 77.8646 93.7578 89.5833 93.7578 104.297C93.7578 117.839 89.6562 129.427 81.4531 139.062C73.25 148.698 61.1406 153.516 45.125 153.516C34.4479 153.516 25.3333 150.911 17.7812 145.703C10.3594 140.365 4.69531 133.333 0.789062 124.609Z" fill="#FDC23A"/>
</svg>
