<svg width="84" height="145" viewBox="0 0 84 145" fill="none" xmlns="http://www.w3.org/2000/svg">
<path opacity="0.65" d="M0.546875 120.688L8.16406 117.562C11.4193 123.552 15.8464 128.305 21.4453 131.82C27.0443 135.206 33.099 136.898 39.6094 136.898C50.4167 136.898 58.8802 133.383 65 126.352C71.25 119.32 74.375 110.531 74.375 99.9844C74.375 88.7865 71.1849 79.8021 64.8047 73.0312C58.5547 66.2604 50.2214 62.875 39.8047 62.875C34.7266 62.875 29.388 63.9818 23.7891 66.1953C18.3203 68.2786 13.6328 71.2734 9.72656 75.1797L4.45312 73.2266L11.6797 0.179688H74.9609V7.79688H20.0781L14.0234 63.8516C22.3568 58.1224 31.9922 55.2578 42.9297 55.2578C54.9089 55.2578 64.6745 59.2943 72.2266 67.3672C79.9089 75.4401 83.75 86.2474 83.75 99.7891C83.75 112.289 79.8438 122.901 72.0312 131.625C64.349 140.219 53.5417 144.516 39.6094 144.516C22.0312 144.516 9.01042 136.573 0.546875 120.688Z" fill="#AA967B"/>
</svg>
