<svg width="88" height="149" viewBox="0 0 88 149" fill="none" xmlns="http://www.w3.org/2000/svg">
<path opacity="0.65" d="M10.875 101.836C10.875 112.773 13.9349 122.018 20.0547 129.57C26.3047 137.122 34.4427 140.898 44.4688 140.898C54.2344 140.898 62.2422 137.188 68.4922 129.766C74.7422 122.344 77.8672 113.034 77.8672 101.836C77.8672 90.3776 74.6771 80.9375 68.2969 73.5156C62.0469 66.0938 53.974 62.3828 44.0781 62.3828C34.5729 62.3828 26.6302 66.224 20.25 73.9062C14 81.4583 10.875 90.7682 10.875 101.836ZM0.328125 83.0859C0.328125 75.1432 0.783854 67.4609 1.69531 60.0391C2.73698 52.6172 4.42969 45.2604 6.77344 37.9688C9.2474 30.5469 12.3073 24.1667 15.9531 18.8281C19.599 13.3594 24.2865 8.93229 30.0156 5.54688C35.875 2.16146 42.4505 0.46875 49.7422 0.46875C65.1068 0.46875 76.8255 8.02083 84.8984 23.125L77.4766 26.25C70.3151 14.1406 61.0703 8.08594 49.7422 8.08594C43.1016 8.08594 37.2422 9.90885 32.1641 13.5547C27.2161 17.0703 23.3099 21.888 20.4453 28.0078C17.5807 33.9974 15.3672 39.9219 13.8047 45.7812C12.3724 51.5104 11.3307 57.6953 10.6797 64.3359C10.1589 68.3724 9.76823 74.4271 9.50781 82.5C11.8516 74.2969 16.1484 67.6562 22.3984 62.5781C28.7786 57.5 36.4609 54.9609 45.4453 54.9609C57.6849 54.9609 67.6458 59.4531 75.3281 68.4375C83.1406 77.4219 87.0469 88.5547 87.0469 101.836C87.0469 114.987 83.2057 126.055 75.5234 135.039C67.9714 144.023 57.8802 148.516 45.25 148.516C32.4896 148.516 22.3984 144.479 14.9766 136.406C5.21094 126.25 0.328125 108.477 0.328125 83.0859Z" fill="#AA967B"/>
</svg>
