<svg width="96" height="157" viewBox="0 0 96 157" fill="none" xmlns="http://www.w3.org/2000/svg">
<path opacity="0.65" d="M20.6875 106.32C20.6875 116.477 23.2917 124.81 28.5 131.32C33.8385 137.701 40.6745 140.891 49.0078 140.891C57.0807 140.891 63.7214 137.766 68.9297 131.516C74.138 125.135 76.7422 116.737 76.7422 106.32C76.7422 95.6432 74.0729 87.1797 68.7344 80.9297C63.526 74.5495 56.8203 71.3594 48.6172 71.3594C40.6745 71.3594 34.0339 74.6797 28.6953 81.3203C23.3568 87.9609 20.6875 96.2943 20.6875 106.32ZM0.570312 86.2031C0.570312 75.1354 1.54688 64.7188 3.5 54.9531C5.45312 45.0573 8.44792 35.9427 12.4844 27.6094C16.5208 19.276 22.0547 12.7005 29.0859 7.88281C36.2474 2.9349 44.5156 0.460938 53.8906 0.460938C72.1198 0.460938 85.6615 9.83594 94.5156 28.5859L79.4766 33.8594C72.7057 21.8802 64.1771 15.8906 53.8906 15.8906C37.0938 15.8906 26.4818 30.0182 22.0547 58.2734C20.7526 65.4349 19.9714 71.3594 19.7109 76.0469C22.3151 70.0573 26.3516 65.1745 31.8203 61.3984C37.4193 57.6224 43.9297 55.7344 51.3516 55.7344C64.5026 55.7344 75.1797 60.5521 83.3828 70.1875C91.7161 79.6927 95.8828 91.6719 95.8828 106.125C95.8828 120.578 91.7812 132.622 83.5781 142.258C75.375 151.763 64.112 156.516 49.7891 156.516C34.6849 156.516 22.901 151.242 14.4375 140.695C5.19271 129.628 0.570312 111.464 0.570312 86.2031Z" fill="#F37F46"/>
</svg>
