<svg width="90" height="149" viewBox="0 0 90 149" fill="none" xmlns="http://www.w3.org/2000/svg">
<path opacity="0.65" d="M14.4375 36.7969C14.4375 45.2604 17.4323 52.2266 23.4219 57.6953C29.5417 63.0339 36.638 65.7031 44.7109 65.7031C53.0443 65.7031 60.2057 62.9688 66.1953 57.5C72.1849 51.901 75.1797 45 75.1797 36.7969C75.1797 28.2031 72.25 21.3021 66.3906 16.0938C60.5312 10.7552 53.3047 8.08594 44.7109 8.08594C35.7266 8.08594 28.4349 10.8854 22.8359 16.4844C17.237 21.9531 14.4375 28.724 14.4375 36.7969ZM0.375 108.086C0.375 97.6693 3.17448 89.2057 8.77344 82.6953C14.5026 76.0547 21.599 71.5625 30.0625 69.2188C22.901 66.7448 16.9766 62.8385 12.2891 57.5C7.60156 52.0312 5.25781 44.9349 5.25781 36.2109C5.25781 26.4453 8.90365 18.0469 16.1953 11.0156C23.6172 3.98438 33.1224 0.46875 44.7109 0.46875C56.0391 0.46875 65.4792 3.91927 73.0312 10.8203C80.7135 17.5911 84.5547 26.0547 84.5547 36.2109C84.5547 44.8047 82.0807 51.901 77.1328 57.5C72.3151 63.099 66.5859 67.0052 59.9453 69.2188C68.4089 71.5625 75.4401 76.0547 81.0391 82.6953C86.7682 89.3359 89.6328 97.9297 89.6328 108.477C89.6328 120.065 85.3359 129.635 76.7422 137.188C68.2786 144.74 57.6016 148.516 44.7109 148.516C32.2109 148.516 21.6641 144.805 13.0703 137.383C4.60677 129.831 0.375 120.065 0.375 108.086ZM9.75 107.695C9.75 117.331 13.0703 125.273 19.7109 131.523C26.3516 137.773 34.6849 140.898 44.7109 140.898C54.8672 140.898 63.3307 137.773 70.1016 131.523C76.8724 125.143 80.2578 117.201 80.2578 107.695C80.2578 97.6693 76.7422 89.401 69.7109 82.8906C62.8099 76.3802 54.4766 73.125 44.7109 73.125C35.2057 73.125 27.0026 76.3802 20.1016 82.8906C13.2005 89.401 9.75 97.6693 9.75 107.695Z" fill="#AA967B"/>
</svg>
