<svg width="99" height="157" viewBox="0 0 99 157" fill="none" xmlns="http://www.w3.org/2000/svg">
<path opacity="0.65" d="M25.0312 41.2812C25.0312 48.8333 27.375 54.888 32.0625 59.4453C36.75 64.0026 42.5443 66.2812 49.4453 66.2812C56.6068 66.2812 62.4661 63.9375 67.0234 59.25C71.7109 54.5625 74.0547 48.5729 74.0547 41.2812C74.0547 33.9896 71.7109 27.9349 67.0234 23.1172C62.4661 18.2995 56.6068 15.8906 49.4453 15.8906C42.1536 15.8906 36.2292 18.3646 31.6719 23.3125C27.2448 28.2604 25.0312 34.25 25.0312 41.2812ZM0.8125 112.766C0.8125 102.349 3.48177 93.8854 8.82031 87.375C14.2891 80.8646 20.8646 76.3073 28.5469 73.7031C13.1823 66.6719 5.5 55.5391 5.5 40.3047C5.5 28.9766 9.60156 19.5365 17.8047 11.9844C26.138 4.30208 36.6849 0.460938 49.4453 0.460938C61.9453 0.460938 72.4271 4.23698 80.8906 11.7891C89.3542 19.3411 93.5859 28.8464 93.5859 40.3047C93.5859 48.7682 91.3724 55.7995 86.9453 61.3984C82.5182 66.8672 77.0495 70.9688 70.5391 73.7031C78.4818 76.3073 85.1224 80.9297 90.4609 87.5703C95.9297 94.2109 98.6641 102.674 98.6641 112.961C98.6641 125.721 94.0417 136.203 84.7969 144.406C75.5521 152.479 63.7682 156.516 49.4453 156.516C35.7734 156.516 24.25 152.609 14.875 144.797C5.5 136.854 0.8125 126.177 0.8125 112.766ZM20.3438 111.789C20.3438 120.253 23.0781 127.219 28.5469 132.688C34.0156 138.156 40.9818 140.891 49.4453 140.891C57.9089 140.891 64.9401 138.156 70.5391 132.688C76.138 127.089 78.9375 120.122 78.9375 111.789C78.9375 103.456 76.0729 96.3594 70.3438 90.5C64.7448 84.6406 57.7786 81.7109 49.4453 81.7109C41.2422 81.7109 34.3411 84.6406 28.7422 90.5C23.1432 96.2292 20.3438 103.326 20.3438 111.789Z" fill="#FDC23A"/>
</svg>
