<svg width="41" height="50" viewBox="0 0 41 50" fill="none" xmlns="http://www.w3.org/2000/svg">
<path d="M26.7991 0.454206C23.7514 1.6043 20.4736 6.08965 20.4736 9.07989C20.4736 10.6325 20.7037 10.9775 21.6237 10.9775C24.4414 10.9775 27.8342 8.10231 29.3868 4.53703C30.997 0.569215 30.1344 -0.810894 26.7991 0.454206Z" fill="white"/>
<path d="M9.43337 12.3582C2.18779 14.9459 -1.14747 21.7889 0.405152 30.9322C1.67025 38.5228 7.59322 48.2985 11.6185 49.2761C12.4811 49.5061 14.3788 49.2761 16.1614 48.7011C19.9567 47.551 22.9469 47.551 26.0522 48.7011C30.8826 50.5987 34.4478 48.2985 38.5882 40.7654L40.6583 36.9126L37.8406 34.1524C32.6652 29.207 32.5502 22.824 37.5531 18.2237C39.4507 16.441 39.1057 15.5209 35.7705 13.5658C31.9752 11.3231 29.675 11.1506 24.7296 12.7032L20.4167 14.0833L16.5064 12.8182C14.8999 12.0202 12.1936 11.3806 9.43337 12.3582Z" fill="white"/>
</svg>
