<svg width="162" height="163" viewBox="0 0 162 163" fill="none" xmlns="http://www.w3.org/2000/svg">
<g clip-path="url(#clip0_359_110)">
<path fill-rule="evenodd" clip-rule="evenodd" d="M0.299988 0.879883H161.54V162.12H0.299988V0.879883Z" fill="white"/>
<path fill-rule="evenodd" clip-rule="evenodd" d="M148.65 65.6208C148.65 64.8404 148.946 64.1293 149.496 63.5781C149.763 63.3078 150.081 63.0937 150.431 62.9485C150.782 62.8032 151.158 62.7297 151.538 62.7324C151.918 62.7295 152.294 62.8028 152.645 62.9481C152.995 63.0934 153.313 63.3076 153.58 63.5781C153.85 63.8446 154.065 64.1627 154.21 64.5136C154.356 64.8645 154.429 65.241 154.426 65.6208C154.426 66.4004 154.132 67.1115 153.58 67.6635C153.313 67.9337 152.995 68.1478 152.644 68.293C152.294 68.4383 151.918 68.5118 151.538 68.5092C151.158 68.5116 150.782 68.4379 150.432 68.2927C150.081 68.1475 149.763 67.9336 149.496 67.6635C149.226 67.3968 149.012 67.0787 148.866 66.7278C148.721 66.377 148.647 66.0006 148.65 65.6208ZM149.03 65.6208C149.03 64.9432 149.285 64.3251 149.764 63.8466C149.995 63.6118 150.272 63.4258 150.576 63.2995C150.881 63.1732 151.208 63.1092 151.538 63.1113C152.216 63.1113 152.834 63.3673 153.312 63.8466C153.792 64.3251 154.047 64.9441 154.047 65.6208C154.047 66.2975 153.792 66.9157 153.312 67.395C153.081 67.63 152.804 67.8162 152.5 67.9425C152.195 68.0688 151.868 68.1326 151.538 68.1303C151.208 68.1324 150.881 68.0684 150.576 67.9422C150.272 67.8159 149.995 67.6298 149.764 67.395C149.529 67.1634 149.343 66.887 149.217 66.5822C149.091 66.2775 149.028 65.9506 149.03 65.6208ZM151.074 65.3782H151.67C151.71 65.3779 151.75 65.3693 151.787 65.3529C151.824 65.3365 151.857 65.3127 151.885 65.2829C151.912 65.2532 151.933 65.2182 151.946 65.18C151.959 65.1419 151.964 65.1014 151.961 65.0612C151.955 64.9881 151.921 64.9201 151.867 64.8705C151.813 64.8209 151.743 64.7935 151.669 64.7935H151.075L151.074 65.3782ZM151.067 67.1533H150.117V64.0875H151.966C152.177 64.0867 152.369 64.1402 152.549 64.2515C152.648 64.3091 152.732 64.3885 152.796 64.4836C152.859 64.5786 152.9 64.6869 152.916 64.8002C152.958 65.0696 152.875 65.3331 152.687 65.5296C152.603 65.6195 152.495 65.6828 152.375 65.712C152.589 65.7639 152.753 65.9295 152.802 66.1445C152.819 66.2214 152.829 66.2917 152.836 66.3703C152.853 66.5845 152.87 66.7785 152.89 66.9927C152.895 67.053 152.921 67.1097 152.962 67.1541H152.007C151.965 67.0912 151.94 67.0187 151.934 66.9433C151.911 66.7536 151.893 66.5634 151.878 66.3728C151.874 66.2944 151.838 66.221 151.781 66.1679C151.724 66.1137 151.649 66.0834 151.571 66.0834L151.068 66.0826V67.1533H151.067ZM9.32893 98.9428L15.3869 83.7712C15.524 83.3922 15.8302 83.1128 16.2208 83.0116C16.411 82.9618 16.6104 82.9595 16.8016 83.0049C16.9929 83.0502 17.17 83.1419 17.3175 83.2718C18.023 83.8257 18.6996 84.4157 19.3443 85.0393C19.5401 85.2309 19.8454 85.266 20.0796 85.1246C20.3138 84.9833 20.4234 84.6947 20.3448 84.4337C20.0938 80.6602 19.8337 77.2339 19.5125 73.4672C19.4879 73.3315 19.4274 73.2049 19.3372 73.1005C19.247 72.9962 19.1304 72.918 18.9997 72.8741C18.8693 72.8293 18.7293 72.8204 18.5944 72.8484C18.4594 72.8764 18.3345 72.9401 18.2326 73.033L10.0115 80.6402C9.93241 80.7125 9.8785 80.8082 9.85763 80.9133C9.83677 81.0184 9.85005 81.1275 9.89554 81.2245C9.94103 81.3216 10.0163 81.4016 10.1105 81.4528C10.2046 81.504 10.3127 81.5238 10.4189 81.5093C11.2495 81.6071 12.0141 81.6255 12.8489 81.5645C13.0967 81.5644 13.341 81.623 13.5618 81.7353C13.7826 81.8477 13.9738 82.0107 14.1196 82.2111C14.2671 82.4103 14.3655 82.6417 14.4067 82.8862C14.4478 83.1307 14.4305 83.3815 14.3563 83.6181L8.30087 98.9394L7.41418 99.0507L13.3383 83.6992C13.4487 83.4165 13.4136 83.1061 13.2437 82.8577C13.1613 82.7347 13.0496 82.6341 12.9186 82.565C12.7876 82.496 12.6415 82.4606 12.4934 82.462C11.6318 82.402 10.7675 82.3883 9.90444 82.4211C9.66106 82.412 9.42567 82.3318 9.22735 82.1904C9.02904 82.0491 8.87649 81.8527 8.78855 81.6255C8.69977 81.3987 8.67924 81.1508 8.72947 80.9124C8.7797 80.6741 8.89851 80.4556 9.07129 80.2838L17.7759 72.1463C17.9849 71.9312 18.2515 71.7809 18.5438 71.7133C18.8361 71.6458 19.1416 71.664 19.4238 71.7657C20.0018 71.9732 20.4025 72.4943 20.4535 73.1066C20.712 77.1595 20.9855 80.8409 21.3293 84.8871C21.3636 85.1431 21.3231 85.4035 21.2129 85.6371C21.1026 85.8707 20.9272 86.0674 20.7078 86.2037C20.489 86.3407 20.2354 86.4117 19.9772 86.4083C19.7191 86.4049 19.4674 86.3272 19.2523 86.1845C18.4618 85.6288 17.7302 84.9937 17.0691 84.289C16.9987 84.2108 16.9104 84.1511 16.8117 84.1149C16.713 84.0788 16.6069 84.0673 16.5028 84.0815C16.3986 84.0957 16.2995 84.1351 16.2141 84.1963C16.1286 84.2576 16.0594 84.3388 16.0126 84.4328C13.8135 89.1579 11.8897 94.0063 10.2508 98.9536L9.32893 98.9428ZM35.3047 92.1479C35.8301 92.9041 36.7059 93.3047 37.836 93.3047C38.9669 93.3047 40.1531 92.9041 41.2656 92.1479C42.2694 91.4689 43.1505 90.6243 43.8713 89.6501C45.3628 87.5898 46.1692 85.5103 46.2763 83.4483C46.3164 82.4746 46.0981 81.6607 45.6087 80.9505C45.0767 80.201 44.2001 79.8062 43.0716 79.807C41.9424 79.807 40.7595 80.2035 39.647 80.9538C38.6434 81.6331 37.7623 82.4776 37.0413 83.4516C35.5072 85.5052 34.6891 87.6032 34.6222 89.6584C34.5837 90.6305 34.8062 91.4444 35.3047 92.1479ZM20.4151 99.2288L34.1604 63.7914H44.3448L39.6863 75.801C43.3351 73.7248 47.0325 72.7812 50.478 73.0473C54.1703 73.3107 56.6631 75.4037 57.17 78.6677C57.9939 83.6566 55.6994 89.5029 50.9673 94.4692C47.8823 97.7415 43.7751 99.8604 39.8202 100.22C36.1304 100.519 33.18 99.4145 31.4276 97.0799L30.5936 99.228L20.4151 99.2288ZM53.0385 99.2288L66.7839 63.7914H77.3781L63.6328 99.2288H53.0385ZM103.678 74.0301L93.9023 99.2297H83.9271L84.8732 96.7904C83.5122 97.8294 82.1219 98.5764 80.5869 99.0992C77.0368 100.258 73.7879 100.303 71.0709 99.2297C67.9809 98.0126 66.8826 94.7092 68.3506 91.0479L74.9514 74.031H85.3483L79.5154 89.0662C79.1247 90.1035 79.1632 91.0445 79.6275 91.7832C80.0926 92.5218 80.8998 92.9266 81.9588 92.9543C83.0404 92.966 84.1889 92.577 85.2496 91.835C86.3103 91.093 87.0957 90.1311 87.504 89.0771L93.3402 74.0301H103.678ZM104.864 74.0301H114.182L113.17 76.8257C116.868 73.867 121.135 72.5161 124.723 73.1685C127.022 73.5525 128.61 74.9026 129.245 77.0139C130.846 75.6705 132.498 74.6993 134.323 74.031C137.466 72.8741 140.36 72.7101 142.889 73.545C146.142 74.65 147.385 78.1942 145.907 82.1459L139.722 99.2305H130.141L135.561 84.2614C135.94 83.204 135.899 82.242 135.446 81.4959C134.995 80.7506 134.209 80.3532 133.192 80.3557C132.205 80.3716 131.174 80.764 130.22 81.4842C129.264 82.2044 128.555 83.1279 128.17 84.1493L122.71 99.2305H112.857L118.299 84.1944C118.702 83.1078 118.66 82.1149 118.179 81.3612C117.697 80.6075 116.864 80.2286 115.8 80.2813C114.823 80.3298 113.819 80.7347 112.892 81.4524C111.966 82.1693 111.277 83.0744 110.903 84.0731L105.417 99.2297H95.7401L104.864 74.0301Z" fill="#DF9E3A"/>
</g>
<defs>
<clipPath id="clip0_359_110">
<rect width="161.24" height="161.24" fill="white" transform="translate(0.299927 0.879883)"/>
</clipPath>
</defs>
</svg>
