<svg width="360" height="80" viewBox="0 0 360 80" fill="none" xmlns="http://www.w3.org/2000/svg">
<rect width="360" height="80" fill="#8BA21D"/>
<path d="M48.5312 38.0938C48.5312 34.2396 49.4792 31.1979 51.375 28.9688C53.2917 26.7188 55.7812 25.5938 58.8438 25.5938C60.7604 25.5938 62.3958 26.125 63.75 27.1875C65.1042 28.2292 66.1146 29.5 66.7812 31L64.1875 31.875C62.7917 29.4167 60.9896 28.1875 58.7812 28.1875C56.5938 28.1875 54.8542 29.0938 53.5625 30.9062C52.2917 32.6979 51.6562 35.0938 51.6562 38.0938C51.6562 41.1354 52.3021 43.5417 53.5938 45.3125C54.9062 47.0625 56.6354 47.9375 58.7812 47.9375C60.1562 47.9375 61.3542 47.5521 62.375 46.7812C63.4167 45.9896 64.1875 45.0208 64.6875 43.875L67.4062 44.75C67.0938 45.4583 66.6979 46.125 66.2188 46.75C65.7604 47.375 65.1875 47.9896 64.5 48.5938C63.8125 49.1979 62.9792 49.6771 62 50.0312C61.0417 50.3854 59.9896 50.5625 58.8438 50.5625C55.8229 50.5625 53.3438 49.4583 51.4062 47.25C49.4896 45.0417 48.5312 41.9896 48.5312 38.0938ZM70.5938 50V32.7812H77.9688C79.9062 32.7812 81.375 33.2188 82.375 34.0938C83.375 34.9688 83.875 36.0938 83.875 37.4688C83.875 38.9688 83.1354 40.1042 81.6562 40.875C82.5104 41.2083 83.2083 41.7188 83.75 42.4062C84.2917 43.0938 84.5625 43.9375 84.5625 44.9375C84.5625 46.3333 84.0417 47.5312 83 48.5312C81.9583 49.5104 80.5833 50 78.875 50H70.5938ZM73.5312 47.5625H78.4062C79.3438 47.5625 80.1042 47.3438 80.6875 46.9062C81.2708 46.4479 81.5625 45.8021 81.5625 44.9688C81.5625 44.1771 81.2708 43.5312 80.6875 43.0312C80.125 42.5312 79.3438 42.2812 78.3438 42.2812H73.5312V47.5625ZM73.5312 40.0312H77.7188C78.6771 40.0312 79.4479 39.8333 80.0312 39.4375C80.6146 39.0208 80.9062 38.4062 80.9062 37.5938C80.9062 36.8854 80.6562 36.3125 80.1562 35.875C79.6562 35.4167 78.8542 35.1875 77.75 35.1875H73.5312V40.0312ZM90.5625 37.8438C90.5625 38.6979 90.8333 39.3646 91.375 39.8438C91.9375 40.3229 92.7396 40.5625 93.7812 40.5625H98.1875V35.25H93.9062C92.8021 35.25 91.9688 35.5 91.4062 36C90.8438 36.4792 90.5625 37.0938 90.5625 37.8438ZM86.4375 50C87.4583 48.2292 88.1458 46.5625 88.5 45C88.7083 44.1667 88.9271 43.5208 89.1562 43.0625C89.4062 42.6042 89.8229 42.1979 90.4062 41.8438C88.5521 41.0104 87.625 39.6146 87.625 37.6562C87.625 36.2604 88.125 35.1042 89.125 34.1875C90.1458 33.25 91.5938 32.7812 93.4688 32.7812H101.125V50H98.1875V43.0312H93.8125C93.0417 43.0312 92.4688 43.2604 92.0938 43.7188C91.7396 44.1562 91.4792 44.7708 91.3125 45.5625C90.8542 47.4792 90.2812 48.9583 89.5938 50H86.4375ZM104.062 46.9062L106.344 45.8438C106.76 46.4479 107.354 46.9792 108.125 47.4375C108.917 47.875 109.75 48.0938 110.625 48.0938C111.729 48.0938 112.677 47.8438 113.469 47.3438C114.26 46.8229 114.656 46.1146 114.656 45.2188C114.656 44.3646 114.292 43.6354 113.562 43.0312C112.854 42.4271 111.719 42.125 110.156 42.125H108.562V39.9375H110.156C111.448 39.9375 112.406 39.6875 113.031 39.1875C113.677 38.6667 114 38.0104 114 37.2188C114 36.4479 113.719 35.8333 113.156 35.375C112.615 34.9167 111.802 34.6875 110.719 34.6875C109.948 34.6875 109.229 34.8958 108.562 35.3125C107.896 35.7292 107.354 36.2708 106.938 36.9375L104.531 35.9062C105.927 33.4479 108 32.2188 110.75 32.2188C112.667 32.2188 114.177 32.6667 115.281 33.5625C116.406 34.4583 116.969 35.6146 116.969 37.0312C116.969 38.8229 116.062 40.1042 114.25 40.875H114.281C115.219 41.1875 116.01 41.7188 116.656 42.4688C117.302 43.2188 117.625 44.1458 117.625 45.25C117.625 46.9167 116.969 48.2188 115.656 49.1562C114.365 50.0938 112.708 50.5625 110.688 50.5625C109.229 50.5625 107.917 50.2292 106.75 49.5625C105.583 48.875 104.688 47.9896 104.062 46.9062ZM123.188 45.4375C123.188 46.1875 123.5 46.8229 124.125 47.3438C124.75 47.8646 125.594 48.125 126.656 48.125C128.073 48.125 129.271 47.6667 130.25 46.75C131.25 45.8333 131.75 44.6562 131.75 43.2188V41.0938C130.917 41.3021 129.562 41.5521 127.688 41.8438C124.688 42.3438 123.188 43.5417 123.188 45.4375ZM120.25 45.6875C120.25 42.4583 122.698 40.4688 127.594 39.7188C129.719 39.3854 131.104 39.1146 131.75 38.9062V37.9375C131.75 36.9375 131.396 36.125 130.688 35.5C130 34.875 129.021 34.5625 127.75 34.5625C126.75 34.5625 125.781 34.8021 124.844 35.2812C123.927 35.7396 123.156 36.3542 122.531 37.125L120.688 35.5625C121.542 34.5417 122.583 33.7292 123.812 33.125C125.042 32.5208 126.333 32.2188 127.688 32.2188C132.333 32.2188 134.656 34.5104 134.656 39.0938V50H131.844V47.4062C131.49 48.2604 130.812 49 129.812 49.625C128.812 50.25 127.635 50.5625 126.281 50.5625C124.385 50.5625 122.906 50.1146 121.844 49.2188C120.781 48.3021 120.25 47.125 120.25 45.6875ZM137.469 35.25V32.7812H151.406V35.25H145.906V50H142.969V35.25H137.469ZM154.344 50V32.7812H157.312V39.6562H161.031C163.115 39.6562 164.667 40.1146 165.688 41.0312C166.729 41.9271 167.25 43.2083 167.25 44.875C167.25 46.375 166.74 47.6042 165.719 48.5625C164.719 49.5208 163.26 50 161.344 50H154.344ZM157.312 47.5625H161.125C163.229 47.5625 164.281 46.6562 164.281 44.8438C164.281 43.0312 163.208 42.125 161.062 42.125H157.312V47.5625ZM169.812 41.4062C169.812 38.6562 170.521 36.4375 171.938 34.75C173.354 33.0625 175.24 32.2188 177.594 32.2188C179.198 32.2188 180.552 32.6875 181.656 33.625C182.781 34.5625 183.521 35.6562 183.875 36.9062L181.375 37.625C181.083 36.8125 180.604 36.125 179.938 35.5625C179.271 34.9792 178.5 34.6875 177.625 34.6875C176.146 34.6875 174.969 35.3229 174.094 36.5938C173.24 37.8646 172.812 39.4688 172.812 41.4062C172.812 43.4688 173.26 45.1042 174.156 46.3125C175.073 47.5 176.229 48.0938 177.625 48.0938C178.583 48.0938 179.438 47.7812 180.188 47.1562C180.958 46.5104 181.5 45.7708 181.812 44.9375L184.312 45.6875C183.896 47 183.073 48.1458 181.844 49.125C180.635 50.0833 179.219 50.5625 177.594 50.5625C175.281 50.5625 173.406 49.7396 171.969 48.0938C170.531 46.4271 169.812 44.1979 169.812 41.4062ZM189.719 37.8438C189.719 38.6979 189.99 39.3646 190.531 39.8438C191.094 40.3229 191.896 40.5625 192.938 40.5625H197.344V35.25H193.062C191.958 35.25 191.125 35.5 190.562 36C190 36.4792 189.719 37.0938 189.719 37.8438ZM185.594 50C186.615 48.2292 187.302 46.5625 187.656 45C187.865 44.1667 188.083 43.5208 188.312 43.0625C188.562 42.6042 188.979 42.1979 189.562 41.8438C187.708 41.0104 186.781 39.6146 186.781 37.6562C186.781 36.2604 187.281 35.1042 188.281 34.1875C189.302 33.25 190.75 32.7812 192.625 32.7812H200.281V50H197.344V43.0312H192.969C192.198 43.0312 191.625 43.2604 191.25 43.7188C190.896 44.1562 190.635 44.7708 190.469 45.5625C190.01 47.4792 189.438 48.9583 188.75 50H185.594ZM211.719 41.4062C211.719 38.6562 212.427 36.4375 213.844 34.75C215.26 33.0625 217.146 32.2188 219.5 32.2188C221.104 32.2188 222.458 32.6875 223.562 33.625C224.688 34.5625 225.427 35.6562 225.781 36.9062L223.281 37.625C222.99 36.8125 222.51 36.125 221.844 35.5625C221.177 34.9792 220.406 34.6875 219.531 34.6875C218.052 34.6875 216.875 35.3229 216 36.5938C215.146 37.8646 214.719 39.4688 214.719 41.4062C214.719 43.4688 215.167 45.1042 216.062 46.3125C216.979 47.5 218.135 48.0938 219.531 48.0938C220.49 48.0938 221.344 47.7812 222.094 47.1562C222.865 46.5104 223.406 45.7708 223.719 44.9375L226.219 45.6875C225.802 47 224.979 48.1458 223.75 49.125C222.542 50.0833 221.125 50.5625 219.5 50.5625C217.188 50.5625 215.312 49.7396 213.875 48.0938C212.438 46.4271 211.719 44.1979 211.719 41.4062ZM237.094 50V32.7812H240.031V39.9062H248.219V32.7812H251.125V50H248.219V42.375H240.031V50H237.094ZM257.688 45.4375C257.688 46.1875 258 46.8229 258.625 47.3438C259.25 47.8646 260.094 48.125 261.156 48.125C262.573 48.125 263.771 47.6667 264.75 46.75C265.75 45.8333 266.25 44.6562 266.25 43.2188V41.0938C265.417 41.3021 264.062 41.5521 262.188 41.8438C259.188 42.3438 257.688 43.5417 257.688 45.4375ZM254.75 45.6875C254.75 42.4583 257.198 40.4688 262.094 39.7188C264.219 39.3854 265.604 39.1146 266.25 38.9062V37.9375C266.25 36.9375 265.896 36.125 265.188 35.5C264.5 34.875 263.521 34.5625 262.25 34.5625C261.25 34.5625 260.281 34.8021 259.344 35.2812C258.427 35.7396 257.656 36.3542 257.031 37.125L255.188 35.5625C256.042 34.5417 257.083 33.7292 258.312 33.125C259.542 32.5208 260.833 32.2188 262.188 32.2188C266.833 32.2188 269.156 34.5104 269.156 39.0938V50H266.344V47.4062C265.99 48.2604 265.312 49 264.312 49.625C263.312 50.25 262.135 50.5625 260.781 50.5625C258.885 50.5625 257.406 50.1146 256.344 49.2188C255.281 48.3021 254.75 47.125 254.75 45.6875ZM273.719 50V32.7812H276.844L280.594 40.875C281.219 42.2708 281.854 43.7292 282.5 45.25H282.562C283.688 42.6667 284.323 41.2083 284.469 40.875L288.188 32.7812H291.312V50H288.562V41.5312C288.562 40.8021 288.604 39.5417 288.688 37.75H288.656L287.688 39.9062L283.562 48.8438H281.5L277.406 39.9688L276.406 37.7812H276.375C276.458 38.7604 276.5 40.0104 276.5 41.5312V50H273.719ZM296.062 50V32.7812H299V41.25C299 42.4792 298.938 43.9479 298.812 45.6562H298.938L300.594 43L307.219 32.7812H310.281V50H307.375V41.4688C307.375 39.8229 307.438 38.375 307.562 37.125H307.5L306.062 39.5L299.156 50H296.062Z" fill="white"/>
</svg>
