<svg width="72" height="72" viewBox="0 0 72 72" fill="none" xmlns="http://www.w3.org/2000/svg">
<rect width="72" height="72" rx="10.9565" fill="#AA967B"/>
<path d="M19.801 28.9827C19.8121 25.7774 20.711 23.6865 22.3718 21.8752C23.5888 20.5484 25.0979 20.5558 26.6367 20.8838C27.0288 20.9695 27.4468 21.4727 27.6354 21.8864C28.464 23.7126 29.1964 25.5836 29.988 27.4248C30.5798 28.8001 30.0509 29.9219 29.1742 30.9059C27.236 33.0713 27.6872 33.2651 29.0965 35.3486C31.4602 38.8371 34.6635 41.323 38.4883 43.0263C39.45 43.4549 40.1343 43.3133 40.8519 42.4524C41.5029 41.6697 42.1281 40.8683 42.7643 40.0708C43.3302 39.3626 43.996 39.0831 44.869 39.508C46.7777 40.436 48.7085 41.3156 50.5913 42.2884C51.6085 42.8176 51.7232 43.5108 51.4902 44.8377C50.7615 48.9449 46.6667 50.7563 43.271 50.3426C39.2798 49.858 35.6955 48.2927 32.4182 45.9893C27.6687 42.6499 23.9698 38.36 21.1548 33.2949C20.293 31.7445 19.7714 30.0561 19.801 28.9753V28.9827Z" fill="white"/>
</svg>
