<svg width="174" height="41" viewBox="0 0 174 41" fill="none" xmlns="http://www.w3.org/2000/svg">
<g clip-path="url(#clip0_359_103)">
<path d="M38.4911 0.528198V14.0674H172.137V0.528198H38.4911ZM0.0176697 22.3993V40.472H26.2384V37.1025H12.3623V33.1816H26.2384V29.7202H12.301V25.7687H26.2384V22.3993H0.0176697Z" fill="#EF570B"/>
<path d="M43.9744 22.3992C40.9382 22.3992 38.4914 24.8694 38.4914 27.9129V40.4719H62.2922C62.2922 40.4719 62.3228 38.0545 62.3228 37.807C62.3228 37.5631 62.1476 37.4443 61.9552 37.4394C61.769 37.4325 46.3637 37.4394 46.3637 37.4394V32.9672H59.9029V30.3328C59.9029 30.1062 59.7595 29.9653 59.5353 29.9653H46.3637V25.4011H62.2922V22.7055C62.2922 22.4629 62.1476 22.3992 61.9552 22.3992H43.9744ZM71.0223 22.3992C67.9922 22.3992 65.5392 24.8694 65.5392 27.9129V40.4719H89.5545V30.3328C89.5545 30.1417 89.3719 29.9653 89.1869 29.9653C89.0215 29.9653 80.7301 29.9958 78.7108 29.9958C78.478 29.9958 78.3433 30.1514 78.3433 30.3328V32.9671H86.43V37.1637H73.3809V25.3704H89.5545V22.7055C89.5545 22.4764 89.4123 22.3992 89.1869 22.3992L71.0223 22.3992ZM98.6521 22.3992C95.622 22.3992 93.169 24.8681 93.169 27.9129V40.4719H117.184V30.3328C117.184 30.1417 117.03 29.9653 116.847 29.9653C116.681 29.9653 108.392 29.9958 106.371 29.9958C106.14 29.9958 106.034 30.1502 106.034 30.3328C106.034 30.5153 106.004 32.9671 106.004 32.9671H114.091V37.1637H101.041V25.3704H117.184V22.7055C117.184 22.4764 117.072 22.3992 116.847 22.3992L98.6521 22.3992ZM126.343 22.3992C123.308 22.3992 120.86 24.8694 120.86 27.9129V40.4719H144.661V37.807C144.661 37.5631 144.515 37.4443 144.324 37.4394C144.137 37.4325 128.732 37.4394 128.732 37.4394V32.9672H142.241V30.3328C142.241 30.1062 142.128 29.9653 141.904 29.9653H128.732V25.4011H144.661V22.7055C144.661 22.4641 144.485 22.3992 144.293 22.3992H126.343ZM153.33 22.3992C150.301 22.3992 147.877 24.8681 147.877 27.9129V40.4719H155.719V32.9672C155.719 32.9672 164.092 40.1448 163.806 39.9512C164.168 40.2428 164.336 40.4793 164.694 40.4719H173.302C174.148 40.4719 173.332 39.8287 173.332 39.8287L165.245 32.9672H167.39C170.013 32.9672 172.138 30.2997 172.138 27.6679C172.138 25.0372 170.037 22.3992 167.42 22.3992H153.33ZM155.719 25.4011H166.318C167.226 25.4011 168.37 26.1093 168.37 27.6985C168.37 29.1333 167.156 29.9959 166.318 29.9959H155.719V25.4011Z" fill="#252D39"/>
</g>
<defs>
<clipPath id="clip0_359_103">
<rect width="173.668" height="39.944" fill="white" transform="translate(0.0176239 0.528076)"/>
</clipPath>
</defs>
</svg>
