<svg width="49" height="50" viewBox="0 0 49 50" fill="none" xmlns="http://www.w3.org/2000/svg">
<path fill-rule="evenodd" clip-rule="evenodd" d="M15.6434 12.0116C9.10459 5.98041 3.72688 0.794691 3.72688 0.569225C3.72688 -0.219906 6.11018 0.738324 11.3046 3.55665C13.1528 4.50372 16.602 6.31646 20.168 8.19061L20.1693 8.19127L20.1724 8.19291C21.9109 9.10658 23.677 10.0348 25.2988 10.8843C30.2488 13.4771 34.4654 15.7882 34.5876 15.9573C34.7098 16.1827 33.1821 17.8174 31.1654 19.6775L27.5599 23.0031L15.6434 12.0116ZM1.23151 47.1897C0.620407 46.8515 0.498187 4.68938 1.10929 3.28022C1.41484 2.49109 4.16481 4.80211 13.698 13.5953L25.859 24.8686L13.8202 36.1982C7.15921 42.3985 1.47595 47.3588 1.23151 47.1897ZM33.6235 20.8682C31.668 22.6719 30.018 24.4193 30.018 24.7011C30.018 25.0393 31.7902 26.8994 33.868 28.8722L37.779 32.3669L43.0345 29.5486C48.6567 26.4485 49.7566 25.0393 47.9844 23.2356C47.0067 22.221 38.5123 17.6553 37.5957 17.6553C37.4124 17.6553 35.579 19.1208 33.6235 20.8682ZM4.59293 49.1064C4.10405 48.9936 8.74843 44.2589 15.7761 37.7767L27.8148 26.6725L31.3592 29.8854C33.3148 31.6891 34.9036 33.2674 34.9036 33.4365C34.9036 34.0565 5.44847 49.2755 4.59293 49.1064Z" fill="white"/>
</svg>
