<svg width="45" height="56" viewBox="0 0 45 56" fill="none" xmlns="http://www.w3.org/2000/svg">
<path fill-rule="evenodd" clip-rule="evenodd" d="M0.080804 55.9823L11.6675 56.0004L11.6735 56.0064C11.6735 56.0064 11.5224 46.3639 11.4378 41.8085C11.4136 40.4008 11.8307 39.3556 12.7252 38.2923C13.1534 37.7838 13.6033 37.2494 14.0722 36.6922L31.1846 55.662C31.1846 55.662 43.1762 55.65 44.4092 55.65C41.1361 51.5914 24.5839 34.5446 19.9121 29.7474C30.7049 16.9047 44.8137 0.0849609 44.8137 0.0849609L30.4588 0.260169C30.4588 0.260169 11.9395 23.1036 11.468 23.6776L11.4197 0.169544L0.0566406 0.133294L0.080804 55.9823Z" fill="#341D10"/>
</svg>
