<svg width="215" height="58" viewBox="0 0 215 58" fill="none" xmlns="http://www.w3.org/2000/svg">
<path d="M59.1399 7.97883C57.2561 10.4187 55.3967 12.8093 53.3963 15.397C52.7703 14.8301 52.2242 14.3249 51.6658 13.8382C47.898 10.6343 43.7007 8.73666 38.6137 9.61772C35.0852 10.2338 33.1952 12.3656 33.3118 15.5387C33.3855 17.4364 34.22 19.0075 35.8216 19.9009C38.0062 21.1269 40.3319 22.1189 42.6085 23.1725C46.1921 24.836 49.9783 26.1484 53.341 28.1754C59.637 31.9769 60.9808 38.132 59.9438 44.8786C58.9129 51.5697 54.3106 55.0816 48.0944 56.5911C39.2948 58.7291 31.385 56.4371 24.1993 51.2185C22.5056 49.9924 20.9286 48.5877 19.1797 47.1767C21.2599 44.4473 23.2113 41.8904 25.6352 38.7112C26.0034 39.4074 26.169 40.005 26.5495 40.387C31.7164 45.4824 37.865 48.5076 44.9342 47.0289C48.9412 46.1848 50.5612 39.9188 47.763 37.0723C47.0021 36.296 45.9283 35.7476 44.8973 35.3163C41.0928 33.7514 37.1471 32.4883 33.4468 30.7077C30.9432 29.5001 28.4702 27.8982 26.5004 25.9512C19.7136 19.2416 21.1863 8.17599 29.3722 3.27779C40.2337 -3.2285 53.7399 1.58961 59.1522 7.96651H59.1461L59.1399 7.97883Z" fill="#341D10"/>
<path d="M63.3128 0H104.844L104.918 11.0964L89.9694 11.2073C89.9694 11.2073 89.9203 56.5418 89.9203 57.2011H78.6661C78.6661 56.5295 78.6661 11.3675 78.6661 11.3675L63.2515 11.2135L63.3067 0L63.3128 0Z" fill="#341D10"/>
<path d="M11.4321 0L11.4198 57.3983H0.0122728C0.0122728 56.6897 0 8.59495 0 8.59495L11.4321 0Z" fill="#341D10"/>
<path d="M214.342 0.197174L199.676 0.375851C199.676 0.375851 180.751 23.8194 180.272 24.4109L180.223 0.283432L168.613 0.246464L168.638 57.5708L180.475 57.5893C180.475 57.5893 180.322 47.7005 180.236 43.0241C180.211 41.5762 180.634 40.5041 181.549 39.4136C181.96 38.9207 182.567 38.1453 182.567 38.1453L199.496 57.2134C200.652 57.2134 213.736 57.2011 215 57.2011H214.502C211.023 53.2771 194.705 35.6107 189.451 29.9075C198.163 19.6137 206.194 9.97484 214.342 0.197174Z" fill="#341D10"/>
<path d="M161.704 0.357337C152.057 0.357337 142.239 0.0677578 132.439 0.418949C113.06 1.10901 100.027 21.1947 107.679 39.0439C107.679 39.0439 109.244 42.7961 111.459 45.9999C114.036 49.3393 116.233 51.2062 116.233 51.2062C117.552 51.9948 118.602 52.6479 119.682 53.264C136.238 62.7401 157.991 54.0527 161.336 35.2855C163.318 24.1398 161.698 12.341 161.698 0.351176L161.704 0.357337ZM135.36 7.80013C136.232 7.51056 137.158 7.51056 137.158 7.51056C137.698 7.47359 143.669 7.11623 147.664 7.51056C147.295 8.40394 136.741 17.9847 136.741 17.9847C135.784 17.7136 133.709 8.56413 135.366 7.80013H135.36ZM117.153 37.904C112.287 29.6541 112.471 19.1923 121.516 11.731C125.376 14.9595 127.113 24.6327 126.518 26.4318C125.597 29.1982 118.461 36.1111 117.153 37.904ZM123.824 46.0061C126.346 43.1473 129.058 40.9046 132.04 40.1714C139.551 39.4936 142.319 39.8941 149.437 41.6008C143.239 50.1711 133.157 53.4797 123.824 46.0061ZM153.07 29.5186C148.983 32.7902 139.165 30.1717 139.165 30.1717C138.563 29.9314 138.889 29.5186 138.889 29.5186C138.889 29.5186 150.953 17.652 154.813 14.2633C154.813 14.2633 154.868 24.9161 153.07 29.5186Z" fill="#5A9602"/>
</svg>
