<svg width="336" height="88" viewBox="0 0 336 88" fill="none" xmlns="http://www.w3.org/2000/svg">
<g clip-path="url(#clip0_2019_33)">
<path d="M89.6075 12.048C86.7374 15.7792 83.9142 19.4439 80.8652 23.4029C79.9148 22.5389 79.0867 21.7604 78.2303 21.0199C72.4993 16.1115 66.1097 13.2063 58.3743 14.5544C53.0103 15.4943 50.1307 18.7603 50.3095 23.6212C50.4224 26.5264 51.6929 28.9284 54.1302 30.305C57.452 32.1848 60.9904 33.7039 64.4534 35.3178C69.9021 37.8622 75.6613 39.875 80.7805 42.9795C90.3604 48.7993 92.4025 58.2269 90.8215 68.5564C89.25 78.8004 82.2486 84.174 72.7911 86.4906C59.4 89.766 47.3735 86.2532 36.4385 78.2688C33.8601 76.3889 31.4604 74.2433 28.8066 72.0787C31.9686 67.9013 34.9423 63.9803 38.6311 59.1193C39.1958 60.1827 39.4404 61.1036 40.0239 61.6827C47.8816 69.4868 57.2356 74.1199 67.9917 71.8508C74.0897 70.5596 76.5553 60.9612 72.2923 56.6034C71.1348 55.4167 69.4974 54.5717 67.9353 53.9166C62.1479 51.5241 56.144 49.5873 50.5165 46.8626C46.7053 45.0112 42.9411 42.5618 39.9486 39.5807C29.6253 29.3081 31.865 12.3613 44.3151 4.86106C60.8398 -5.09816 81.3828 2.27869 89.617 12.0385L89.6075 12.048Z" fill="#341D10"/>
<path d="M284.404 87.9999L266.364 87.9714L266.326 0.208765L284.018 0.265729L284.093 37.2069C284.827 36.305 313.661 0.408139 313.661 0.408139L336.011 0.132812C336.011 0.132812 301.719 41.3938 286.05 60.1729C284.658 61.8439 284.008 63.4863 284.046 65.6984C284.178 72.8569 284.413 88.0094 284.413 88.0094L284.404 87.9999Z" fill="#341D10"/>
<path d="M98.7639 0H161.889L162.002 16.9753L139.285 17.1462C139.285 17.1462 139.21 86.481 139.21 87.4873H122.102C122.102 86.462 122.111 17.3835 122.111 17.3835L98.6792 17.1462L98.7639 0Z" fill="#341D10"/>
<path d="M17.2974 0.104492L17.2786 87.6583C17.2786 87.6583 4.86618 87.6583 0.0197975 87.6583C0.0197975 86.576 0.000976562 13.2157 0.000976562 13.2157L17.2974 0.104492Z" fill="#341D10"/>
<path d="M280.679 49.3022L295.326 44.7637C295.326 44.7637 329.433 80.0061 335.381 87.4494C333.461 87.4494 314.79 87.4684 314.79 87.4684L280.679 49.3022Z" fill="#341D10"/>
<g clip-path="url(#clip1_2019_33)">
<path d="M253.977 0.361691C253.977 18.7644 256.448 36.8781 253.421 53.9897C248.307 82.7981 215.093 96.1329 189.809 81.5841C188.162 80.6399 186.553 79.6378 184.542 78.4239C184.542 78.4239 181.18 75.5567 177.249 70.4317C173.864 65.5076 171.479 59.7514 171.479 59.7514C159.794 32.3496 179.696 1.51788 209.289 0.45804C224.249 -0.081516 239.247 0.361691 253.977 0.361691ZM196.107 70.4317C210.358 81.8973 225.754 76.8226 235.216 63.6651C224.353 61.0477 220.126 60.4328 208.653 61.4722C204.097 62.604 199.962 66.0458 196.107 70.4317ZM192.603 17.8259C178.796 29.2857 178.515 45.3435 185.945 58.0059C187.937 55.2503 198.841 44.6361 200.242 40.3918L192.603 17.8259ZM200.242 40.3918C201.154 37.6329 198.496 22.7776 192.603 17.8259L200.242 40.3918ZM232.553 11.3702C226.455 10.7623 217.338 11.3128 216.514 11.3702C216.514 11.3702 215.101 11.3702 213.769 11.813C211.246 12.9839 214.405 27.0325 215.872 27.4464C215.872 27.4464 231.992 12.7431 232.553 11.3702ZM243.416 21.7165C237.517 26.9194 219.096 45.1313 219.096 45.1313C219.096 45.1313 218.605 45.768 219.522 46.1335C219.522 46.1335 234.515 50.1538 240.753 45.1313C243.496 38.0684 243.416 21.7165 243.416 21.7165Z" fill="#5A9602"/>
</g>
</g>
<defs>
<clipPath id="clip0_2019_33">
<rect width="336" height="88" fill="white"/>
</clipPath>
<clipPath id="clip1_2019_33">
<rect width="87.6892" height="87.4273" fill="white" transform="translate(167.245 0.0952148)"/>
</clipPath>
</defs>
</svg>
