<svg width="57" height="56" viewBox="0 0 57 56" fill="none" xmlns="http://www.w3.org/2000/svg">
<g id="Isolation_Mode" clip-path="url(#clip0_2001_8)">
<path id="Vector" d="M56.1245 0.230444C56.1245 11.9413 57.7116 23.4681 55.7678 34.3574C52.483 52.69 31.1502 61.1757 14.9108 51.9174C13.8528 51.3166 12.8194 50.6789 11.5276 49.9064C11.5276 49.9064 9.36841 48.0818 6.84322 44.8204C4.66964 41.687 3.13725 38.0239 3.13725 38.0239C-4.36733 20.5864 8.41507 0.966202 27.4226 0.291757C37.0309 -0.0515964 46.6638 0.230444 56.1245 0.230444ZM18.9558 44.8204C28.109 52.1167 37.9977 48.8874 44.0748 40.5144C37.0974 38.8488 34.3829 38.4575 27.0137 39.1189C24.0877 39.8392 21.4317 42.0295 18.9558 44.8204ZM16.705 11.344C7.83686 18.6366 7.65679 28.8553 12.4285 36.9131C13.708 35.1596 20.7115 28.4051 21.6118 25.7041L16.705 11.344ZM21.6118 25.7041C22.197 23.9485 20.4901 14.4951 16.705 11.344L21.6118 25.7041ZM42.3642 7.23587C38.4478 6.84904 32.5921 7.1993 32.0627 7.23587C32.0627 7.23587 31.1552 7.23587 30.2999 7.51764C28.6793 8.26279 30.7085 17.2028 31.6504 17.4662C31.6504 17.4662 42.0041 8.10949 42.3642 7.23587ZM49.3417 13.8199C45.5525 17.1308 33.7211 28.7202 33.7211 28.7202C33.7211 28.7202 33.406 29.1254 33.9945 29.358C33.9945 29.358 43.6245 31.9163 47.6311 28.7202C49.393 24.2256 49.3417 13.8199 49.3417 13.8199Z" fill="#5A9602"/>
</g>
<defs>
<clipPath id="clip0_2001_8">
<rect width="56.3213" height="55.6356" fill="white" transform="translate(0.417969 0.060791)"/>
</clipPath>
</defs>
</svg>
