<svg width="721" height="224" viewBox="0 0 721 224" fill="none" xmlns="http://www.w3.org/2000/svg">
<path d="M43.8281 24.7812C43.8281 18.6875 45.4375 13.8281 48.6562 10.2031C51.9062 6.57812 56.0781 4.76562 61.1719 4.76562C64.5781 4.76562 67.5156 5.70312 69.9844 7.57812C72.4531 9.42188 74.2656 11.75 75.4219 14.5625L68.7188 16.7188C67.8438 15.1562 66.8281 13.8906 65.6719 12.9219C64.5156 11.9531 63 11.4688 61.125 11.4688C58.2812 11.4688 56.0156 12.6875 54.3281 15.125C52.6719 17.5312 51.8438 20.75 51.8438 24.7812C51.8438 28.875 52.6875 32.1406 54.375 34.5781C56.0625 36.9844 58.3125 38.1875 61.125 38.1875C63 38.1875 64.6719 37.5781 66.1406 36.3594C67.6406 35.1406 68.7031 33.6719 69.3281 31.9531L76.3594 34.1562C75.9844 35.0938 75.5312 36.0156 75 36.9219C74.4688 37.8281 73.75 38.7812 72.8438 39.7812C71.9688 40.75 70.9844 41.6094 69.8906 42.3594C68.8281 43.0781 67.5312 43.6719 66 44.1406C64.5 44.6094 62.8906 44.8438 61.1719 44.8438C56.1719 44.8438 52.0312 43.0625 48.75 39.5C45.4688 35.9375 43.8281 31.0312 43.8281 24.7812ZM92.625 44V5.60938H100.359V20.9844H113.812V5.60938H121.594V44H113.812V27.5938H100.359V44H92.625ZM137.859 29.1406H147.516L145.078 21.0312C144.109 17.7812 143.359 15.1719 142.828 13.2031H142.547C141.828 15.9219 141.094 18.5312 140.344 21.0312L137.859 29.1406ZM125.016 44L138.562 5.60938H146.859L160.406 44H152.203L149.484 35.4219H135.938L133.219 44H125.016ZM163.922 44V5.60938H173.297L178.969 21.7812C179.406 23.0625 179.969 24.8438 180.656 27.125C181.344 29.375 181.812 30.8906 182.062 31.6719H182.25C183.938 26.5156 185.031 23.2188 185.531 21.7812L191.062 5.60938H200.484V44H192.75V29.1875C192.75 26.75 193.031 22.75 193.594 17.1875H193.359L190.078 27.2188L184.922 42.2188H179.484L174.375 27.2188L171.047 17.0938H170.766C171.328 21.6875 171.609 25.7188 171.609 29.1875V44H163.922ZM207.844 5.60938H215.625V21.4062C215.625 24.5625 215.5 27.8906 215.25 31.3906H215.438L218.859 24.9688L229.172 5.60938H237.094V44H229.266V28.4844C229.266 25.6719 229.422 22.3281 229.734 18.4531H229.547L225.984 25.3438L215.719 44H207.844V5.60938ZM256.125 44V5.60938H263.859V20.9844H277.312V5.60938H285.094V44H277.312V27.5938H263.859V44H256.125ZM301.359 29.1406H311.016L308.578 21.0312C307.609 17.7812 306.859 15.1719 306.328 13.2031H306.047C305.328 15.9219 304.594 18.5312 303.844 21.0312L301.359 29.1406ZM288.516 44L302.062 5.60938H310.359L323.906 44H315.703L312.984 35.4219H299.438L296.719 44H288.516ZM326.156 17.7031V5.65625H333.984V18.4062C333.984 20.3125 334.531 21.7344 335.625 22.6719C336.75 23.6094 338.25 24.0781 340.125 24.0781C342 24.0781 343.656 23.4062 345.094 22.0625C346.562 20.7188 347.297 19.0312 347.297 17V5.65625H355.125V44H347.297V27.4531H347.203C345.047 29.6094 342.297 30.6875 338.953 30.6875C335.141 30.6875 332.047 29.625 329.672 27.5C327.328 25.375 326.156 22.1094 326.156 17.7031ZM362.438 5.60938H370.219V21.4062C370.219 24.5625 370.094 27.8906 369.844 31.3906H370.031L373.453 24.9688L383.766 5.60938H391.688V44H383.859V28.4844C383.859 25.6719 384.016 22.3281 384.328 18.4531H384.141L380.578 25.3438L370.312 44H362.438V5.60938ZM395.766 12.3125V5.60938H424.922V12.3125H414.234V44H406.5V12.3125H395.766ZM438.047 29.1406H447.703L445.266 21.0312C444.297 17.7812 443.547 15.1719 443.016 13.2031H442.734C442.016 15.9219 441.281 18.5312 440.531 21.0312L438.047 29.1406ZM425.203 44L438.75 5.60938H447.047L460.594 44H452.391L449.672 35.4219H436.125L433.406 44H425.203ZM464.109 44V5.60938H490.031V12.3125H471.891V20.8906H488.203V27.4531H471.891V37.3438H490.547V44H464.109ZM492.234 12.3125V5.60938H521.391V12.3125H510.703V44H502.969V12.3125H492.234ZM523.547 24.7812C523.547 18.6875 525.156 13.8281 528.375 10.2031C531.625 6.57812 535.797 4.76562 540.891 4.76562C544.297 4.76562 547.234 5.70312 549.703 7.57812C552.172 9.42188 553.984 11.75 555.141 14.5625L548.438 16.7188C547.562 15.1562 546.547 13.8906 545.391 12.9219C544.234 11.9531 542.719 11.4688 540.844 11.4688C538 11.4688 535.734 12.6875 534.047 15.125C532.391 17.5312 531.562 20.75 531.562 24.7812C531.562 28.875 532.406 32.1406 534.094 34.5781C535.781 36.9844 538.031 38.1875 540.844 38.1875C542.719 38.1875 544.391 37.5781 545.859 36.3594C547.359 35.1406 548.422 33.6719 549.047 31.9531L556.078 34.1562C555.703 35.0938 555.25 36.0156 554.719 36.9219C554.188 37.8281 553.469 38.7812 552.562 39.7812C551.688 40.75 550.703 41.6094 549.609 42.3594C548.547 43.0781 547.25 43.6719 545.719 44.1406C544.219 44.6094 542.609 44.8438 540.891 44.8438C535.891 44.8438 531.75 43.0625 528.469 39.5C525.188 35.9375 523.547 31.0312 523.547 24.7812ZM567.75 17.2344C567.75 19.1406 568.266 20.5312 569.297 21.4062C570.359 22.2812 571.734 22.7188 573.422 22.7188H580.453V12.3125H573.281C571.906 12.3125 570.641 12.75 569.484 13.625C568.328 14.4688 567.75 15.6719 567.75 17.2344ZM557.156 44C559.406 40.125 560.891 36.3906 561.609 32.7969C561.922 31.1719 562.281 29.9375 562.688 29.0938C563.125 28.2188 563.922 27.3125 565.078 26.375C561.516 24.5312 559.734 21.2656 559.734 16.5781C559.734 13.5469 560.797 10.9688 562.922 8.84375C565.047 6.6875 568.094 5.60938 572.062 5.60938H588.281V44H580.453V29.375H573.75C572.594 29.375 571.719 29.6875 571.125 30.3125C570.562 30.9062 570.125 31.9375 569.812 33.4062C569.344 35.6562 568.828 37.5625 568.266 39.125C567.703 40.6562 566.906 42.2812 565.875 44H557.156ZM603.656 5.60938H611.906L618.094 18.7344C618.281 19.1094 619.109 21.0469 620.578 24.5469H620.672C621.016 23.7031 621.484 22.5938 622.078 21.2188C622.672 19.8125 623.016 19.0156 623.109 18.8281L628.734 5.60938H636.703L623.297 36.1719C621.953 39.2031 620.281 41.2812 618.281 42.4062C616.281 43.5312 614.016 44.0938 611.484 44.0938H608.859V37.3906H610.219C611.812 37.3906 613 37.2031 613.781 36.8281C614.594 36.4531 615.297 35.625 615.891 34.3438L616.688 32.2344L603.656 5.60938ZM662.859 24.8281C662.859 28.9844 663.625 32.25 665.156 34.625C666.688 37 668.828 38.1875 671.578 38.1875C674.328 38.1875 676.469 37 678 34.625C679.531 32.2188 680.297 28.9531 680.297 24.8281C680.297 20.7344 679.531 17.4844 678 15.0781C676.469 12.6719 674.328 11.4688 671.578 11.4688C668.828 11.4688 666.688 12.6719 665.156 15.0781C663.625 17.4844 662.859 20.7344 662.859 24.8281ZM640.875 44V5.60938H648.656V21.2188H654.938C655.594 16.1875 657.406 12.1875 660.375 9.21875C663.344 6.25 667.062 4.76562 671.531 4.76562C676.562 4.76562 680.609 6.60938 683.672 10.2969C686.766 13.9531 688.312 18.7969 688.312 24.8281C688.312 30.8594 686.766 35.7031 683.672 39.3594C680.609 43.0156 676.562 44.8438 671.531 44.8438C666.812 44.8438 662.938 43.2656 659.906 40.1094C656.906 36.9531 655.188 32.7031 654.75 27.3594H648.656V44H640.875ZM690.375 12.3125V5.60938H719.531V12.3125H708.844V44H701.109V12.3125H690.375ZM339.047 104V65.6094H353.906C358.219 65.6094 361.422 66.5312 363.516 68.375C365.609 70.1875 366.656 72.7031 366.656 75.9219C366.656 77.6406 366.25 79.1719 365.438 80.5156C364.656 81.8281 363.625 82.8594 362.344 83.6094C363.781 84.2031 365.078 85.2812 366.234 86.8438C367.391 88.375 367.969 90.2812 367.969 92.5625C367.969 95.9062 366.891 98.6562 364.734 100.812C362.578 102.938 359.594 104 355.781 104H339.047ZM346.828 97.3438H354.656C356.031 97.3438 357.234 96.9375 358.266 96.125C359.328 95.3125 359.859 94.125 359.859 92.5625C359.859 91.125 359.391 89.9375 358.453 89C357.547 88.0312 356.219 87.5469 354.469 87.5469H346.828V97.3438ZM346.828 80.9844H353.297C354.891 80.9844 356.156 80.6094 357.094 79.8594C358.062 79.1094 358.547 78 358.547 76.5312C358.547 73.7188 356.844 72.3125 353.438 72.3125H346.828V80.9844ZM382.453 89.1406H392.109L389.672 81.0312C388.703 77.7812 387.953 75.1719 387.422 73.2031H387.141C386.422 75.9219 385.688 78.5312 384.938 81.0312L382.453 89.1406ZM369.609 104L383.156 65.6094H391.453L405 104H396.797L394.078 95.4219H380.531L377.812 104H369.609ZM408.516 104V65.6094H416.297V97.3438H426.469V65.6094H434.203V97.3438H444.234V65.6094H452.062V104H408.516ZM459.375 104V65.6094H485.297V72.3125H467.156V80.8906H483.469V87.4531H467.156V97.3438H485.812V104H459.375ZM490.734 104V65.6094H515.344V72.3125H498.469V104H490.734ZM517.875 84.8281C517.875 78.7969 519.406 73.9531 522.469 70.2969C525.562 66.6094 529.625 64.7656 534.656 64.7656C539.688 64.7656 543.734 66.6094 546.797 70.2969C549.891 73.9531 551.438 78.7969 551.438 84.8281C551.438 90.8594 549.891 95.7031 546.797 99.3594C543.734 103.016 539.688 104.844 534.656 104.844C529.594 104.844 525.531 103.016 522.469 99.3594C519.406 95.7031 517.875 90.8594 517.875 84.8281ZM525.938 84.8281C525.938 88.9844 526.703 92.25 528.234 94.625C529.766 97 531.906 98.1875 534.656 98.1875C537.406 98.1875 539.547 97 541.078 94.625C542.609 92.2188 543.375 88.9531 543.375 84.8281C543.375 80.7344 542.609 77.4844 541.078 75.0781C539.547 72.6719 537.406 71.4688 534.656 71.4688C531.906 71.4688 529.766 72.6719 528.234 75.0781C526.703 77.4844 525.938 80.7344 525.938 84.8281ZM565.594 97.3438H568.547C571.422 91.625 573.391 86.2188 574.453 81.125C575.547 76 576.203 70.8281 576.422 65.6094H597.938V97.3438H603.469V114.875H595.781V104H573.234V114.875H565.594V97.3438ZM576.609 97.3438H590.203V72.3125H583.641C582.484 82.0938 580.141 90.4375 576.609 97.3438ZM605.812 84.8281C605.812 78.7969 607.344 73.9531 610.406 70.2969C613.5 66.6094 617.562 64.7656 622.594 64.7656C627.625 64.7656 631.672 66.6094 634.734 70.2969C637.828 73.9531 639.375 78.7969 639.375 84.8281C639.375 90.8594 637.828 95.7031 634.734 99.3594C631.672 103.016 627.625 104.844 622.594 104.844C617.531 104.844 613.469 103.016 610.406 99.3594C607.344 95.7031 605.812 90.8594 605.812 84.8281ZM613.875 84.8281C613.875 88.9844 614.641 92.25 616.172 94.625C617.703 97 619.844 98.1875 622.594 98.1875C625.344 98.1875 627.484 97 629.016 94.625C630.547 92.2188 631.312 88.9531 631.312 84.8281C631.312 80.7344 630.547 77.4844 629.016 75.0781C627.484 72.6719 625.344 71.4688 622.594 71.4688C619.844 71.4688 617.703 72.6719 616.172 75.0781C614.641 77.4844 613.875 80.7344 613.875 84.8281ZM644.766 104V65.6094H654.141L659.812 81.7812C660.25 83.0625 660.812 84.8438 661.5 87.125C662.188 89.375 662.656 90.8906 662.906 91.6719H663.094C664.781 86.5156 665.875 83.2188 666.375 81.7812L671.906 65.6094H681.328V104H673.594V89.1875C673.594 86.75 673.875 82.75 674.438 77.1875H674.203L670.922 87.2188L665.766 102.219H660.328L655.219 87.2188L651.891 77.0938H651.609C652.172 81.6875 652.453 85.7188 652.453 89.1875V104H644.766ZM697.641 89.1406H707.297L704.859 81.0312C703.891 77.7812 703.141 75.1719 702.609 73.2031H702.328C701.609 75.9219 700.875 78.5312 700.125 81.0312L697.641 89.1406ZM684.797 104L698.344 65.6094H706.641L720.188 104H711.984L709.266 95.4219H695.719L693 104H684.797Z" fill="#252D39"/>
<path d="M325.286 175.008C325.286 175.371 325.158 175.68 324.902 175.936C324.667 176.192 324.368 176.32 324.006 176.32C323.664 176.32 323.366 176.192 323.11 175.936C322.854 175.68 322.726 175.371 322.726 175.008V155.904H313.99V175.008C313.99 175.371 313.862 175.68 313.606 175.936C313.371 176.192 313.072 176.32 312.71 176.32C312.347 176.32 312.038 176.192 311.782 175.936C311.547 175.68 311.43 175.371 311.43 175.008V154.688C311.43 154.347 311.547 154.048 311.782 153.792C312.038 153.536 312.347 153.408 312.71 153.408H324.006C324.347 153.408 324.646 153.536 324.902 153.792C325.158 154.048 325.286 154.347 325.286 154.688V175.008ZM336.137 176.224C335.582 176.224 334.996 176.171 334.377 176.064C333.758 175.957 333.161 175.808 332.585 175.616V181.664C332.585 182.005 332.478 182.293 332.265 182.528C332.052 182.763 331.742 182.88 331.337 182.88C330.932 182.88 330.622 182.763 330.409 182.528C330.196 182.293 330.089 182.005 330.089 181.664V164.192C330.089 163.659 330.046 163.232 329.961 162.912C329.897 162.571 329.769 162.251 329.577 161.952C329.513 161.845 329.46 161.749 329.417 161.664C329.374 161.579 329.353 161.461 329.353 161.312C329.353 160.971 329.47 160.704 329.705 160.512C329.94 160.299 330.196 160.192 330.473 160.192C330.729 160.192 330.953 160.267 331.145 160.416C331.358 160.544 331.55 160.725 331.721 160.96C332.446 160.576 333.193 160.245 333.961 159.968C334.75 159.691 335.561 159.552 336.393 159.552C338.078 159.552 339.348 160.117 340.201 161.248C341.054 162.357 341.481 163.808 341.481 165.6V169.76C341.481 170.72 341.396 171.595 341.225 172.384C341.054 173.173 340.756 173.856 340.329 174.432C339.924 174.987 339.38 175.424 338.697 175.744C338.014 176.064 337.161 176.224 336.137 176.224ZM332.585 173.376C333.097 173.611 333.662 173.781 334.281 173.888C334.9 173.995 335.412 174.048 335.817 174.048C336.99 174.048 337.812 173.707 338.281 173.024C338.75 172.341 338.985 171.253 338.985 169.76V165.6C338.985 163.061 337.95 161.792 335.881 161.792C335.326 161.792 334.75 161.888 334.153 162.08C333.556 162.272 332.98 162.539 332.425 162.88C332.532 163.413 332.585 163.851 332.585 164.192V173.376ZM350.33 176.256C349.349 176.256 348.485 176.117 347.738 175.84C346.992 175.541 346.362 175.136 345.85 174.624C345.36 174.112 344.986 173.515 344.73 172.832C344.474 172.128 344.346 171.371 344.346 170.56V165.216C344.346 164.427 344.474 163.691 344.73 163.008C344.986 162.304 345.36 161.696 345.85 161.184C346.362 160.672 346.992 160.267 347.738 159.968C348.485 159.669 349.349 159.52 350.33 159.52C351.312 159.52 352.176 159.669 352.922 159.968C353.669 160.267 354.288 160.672 354.778 161.184C355.29 161.696 355.674 162.304 355.93 163.008C356.186 163.691 356.314 164.427 356.314 165.216V170.56C356.314 171.371 356.186 172.128 355.93 172.832C355.674 173.515 355.29 174.112 354.778 174.624C354.288 175.136 353.669 175.541 352.922 175.84C352.176 176.117 351.312 176.256 350.33 176.256ZM350.33 173.952C351.482 173.952 352.346 173.653 352.922 173.056C353.52 172.459 353.818 171.627 353.818 170.56V165.184C353.818 164.139 353.52 163.317 352.922 162.72C352.346 162.123 351.482 161.824 350.33 161.824C349.178 161.824 348.304 162.123 347.706 162.72C347.13 163.317 346.842 164.139 346.842 165.184V170.56C346.842 171.627 347.13 172.459 347.706 173.056C348.304 173.653 349.178 173.952 350.33 173.952ZM361.525 176.32C361.099 176.32 360.757 176.181 360.501 175.904C360.245 175.627 360.117 175.296 360.117 174.912V160.928C360.117 160.565 360.224 160.256 360.437 160C360.672 159.744 360.971 159.616 361.333 159.616C361.696 159.616 361.995 159.744 362.229 160C362.485 160.256 362.613 160.565 362.613 160.928V171.712L369.717 160.384C369.995 159.872 370.432 159.616 371.029 159.616C371.435 159.616 371.755 159.755 371.989 160.032C372.245 160.288 372.373 160.619 372.373 161.024V175.008C372.373 175.371 372.256 175.68 372.021 175.936C371.787 176.192 371.488 176.32 371.125 176.32C370.763 176.32 370.464 176.192 370.229 175.936C369.995 175.68 369.877 175.371 369.877 175.008V164.224L362.805 175.584C362.485 176.075 362.059 176.32 361.525 176.32ZM386.078 164.128C386.078 165.088 385.843 165.877 385.374 166.496C384.905 167.115 384.126 167.531 383.038 167.744C384.233 167.979 385.086 168.427 385.598 169.088C386.131 169.749 386.398 170.603 386.398 171.648C386.398 173.056 385.95 174.176 385.054 175.008C384.158 175.84 382.782 176.256 380.926 176.256C380.499 176.256 379.998 176.224 379.422 176.16C378.867 176.117 378.334 176.021 377.822 175.872C377.31 175.723 376.873 175.531 376.51 175.296C376.169 175.061 375.998 174.752 375.998 174.368C375.998 174.133 376.083 173.888 376.254 173.632C376.446 173.376 376.787 173.248 377.278 173.248C377.385 173.248 377.438 173.259 377.438 173.28C377.459 173.28 377.491 173.291 377.534 173.312C377.939 173.483 378.441 173.653 379.038 173.824C379.635 173.973 380.297 174.048 381.022 174.048C381.982 174.048 382.707 173.856 383.198 173.472C383.71 173.088 383.966 172.427 383.966 171.488C383.966 171.275 383.934 171.029 383.87 170.752C383.806 170.453 383.646 170.176 383.39 169.92C383.155 169.664 382.782 169.44 382.27 169.248C381.779 169.056 381.097 168.939 380.222 168.896C379.859 168.875 379.507 168.811 379.166 168.704C378.825 168.597 378.654 168.299 378.654 167.808C378.654 167.552 378.697 167.36 378.782 167.232C378.889 167.104 379.017 167.008 379.166 166.944C379.315 166.88 379.475 166.837 379.646 166.816C379.817 166.795 379.977 166.773 380.126 166.752C380.915 166.688 381.545 166.549 382.014 166.336C382.483 166.123 382.835 165.877 383.07 165.6C383.305 165.323 383.454 165.045 383.518 164.768C383.603 164.469 383.646 164.203 383.646 163.968C383.646 163.243 383.411 162.699 382.942 162.336C382.473 161.952 381.726 161.76 380.702 161.76C380.083 161.76 379.571 161.824 379.166 161.952C378.761 162.059 378.387 162.187 378.046 162.336C377.833 162.443 377.641 162.496 377.47 162.496C377.129 162.496 376.851 162.389 376.638 162.176C376.425 161.941 376.318 161.675 376.318 161.376C376.318 161.035 376.467 160.747 376.766 160.512C377.086 160.277 377.47 160.096 377.918 159.968C378.366 159.819 378.846 159.712 379.358 159.648C379.891 159.584 380.371 159.552 380.798 159.552C382.569 159.552 383.891 159.979 384.766 160.832C385.641 161.685 386.078 162.784 386.078 164.128ZM400.997 164.352C400.997 165.163 400.815 165.856 400.453 166.432C400.111 167.008 399.546 167.445 398.757 167.744C399.653 168.064 400.303 168.544 400.709 169.184C401.114 169.803 401.317 170.56 401.317 171.456C401.317 172.8 400.879 173.899 400.005 174.752C399.13 175.584 397.797 176 396.005 176H391.397C391.034 176 390.735 175.883 390.501 175.648C390.266 175.392 390.149 175.093 390.149 174.752V161.088C390.149 160.747 390.266 160.459 390.501 160.224C390.735 159.968 391.034 159.84 391.397 159.84H395.685C396.581 159.84 397.359 159.957 398.021 160.192C398.682 160.405 399.237 160.715 399.685 161.12C400.133 161.525 400.463 162.005 400.677 162.56C400.89 163.093 400.997 163.691 400.997 164.352ZM398.853 171.36C398.853 171.061 398.81 170.763 398.725 170.464C398.639 170.165 398.479 169.899 398.245 169.664C398.01 169.429 397.679 169.237 397.253 169.088C396.826 168.939 396.271 168.864 395.589 168.864H392.645V173.856H395.941C396.901 173.856 397.626 173.664 398.117 173.28C398.607 172.875 398.853 172.235 398.853 171.36ZM392.645 166.752H395.685C396.282 166.752 396.762 166.688 397.125 166.56C397.509 166.432 397.797 166.261 397.989 166.048C398.202 165.835 398.341 165.589 398.405 165.312C398.49 165.035 398.533 164.757 398.533 164.48C398.533 163.605 398.287 162.976 397.797 162.592C397.306 162.187 396.581 161.984 395.621 161.984H392.645V166.752ZM410.205 176.256C409.224 176.256 408.36 176.117 407.613 175.84C406.867 175.541 406.237 175.136 405.725 174.624C405.235 174.112 404.861 173.515 404.605 172.832C404.349 172.128 404.221 171.371 404.221 170.56V165.216C404.221 164.427 404.349 163.691 404.605 163.008C404.861 162.304 405.235 161.696 405.725 161.184C406.237 160.672 406.867 160.267 407.613 159.968C408.36 159.669 409.224 159.52 410.205 159.52C411.187 159.52 412.051 159.669 412.797 159.968C413.544 160.267 414.163 160.672 414.653 161.184C415.165 161.696 415.549 162.304 415.805 163.008C416.061 163.691 416.189 164.427 416.189 165.216V170.56C416.189 171.371 416.061 172.128 415.805 172.832C415.549 173.515 415.165 174.112 414.653 174.624C414.163 175.136 413.544 175.541 412.797 175.84C412.051 176.117 411.187 176.256 410.205 176.256ZM410.205 173.952C411.357 173.952 412.221 173.653 412.797 173.056C413.395 172.459 413.693 171.627 413.693 170.56V165.184C413.693 164.139 413.395 163.317 412.797 162.72C412.221 162.123 411.357 161.824 410.205 161.824C409.053 161.824 408.179 162.123 407.581 162.72C407.005 163.317 406.717 164.139 406.717 165.184V170.56C406.717 171.627 407.005 172.459 407.581 173.056C408.179 173.653 409.053 173.952 410.205 173.952ZM430.776 159.84C431.139 159.84 431.438 159.968 431.672 160.224C431.907 160.459 432.024 160.747 432.024 161.088V173.888H432.888C433.251 173.888 433.55 174.005 433.784 174.24C434.019 174.475 434.136 174.773 434.136 175.136V179.232C434.136 179.595 434.019 179.893 433.784 180.128C433.55 180.363 433.251 180.48 432.888 180.48C432.526 180.48 432.227 180.363 431.992 180.128C431.758 179.893 431.64 179.595 431.64 179.232V176H420.888V179.232C420.888 179.595 420.771 179.893 420.536 180.128C420.302 180.363 420.003 180.48 419.64 180.48C419.278 180.48 418.979 180.363 418.744 180.128C418.51 179.893 418.392 179.595 418.392 179.232V175.136C418.392 174.773 418.51 174.475 418.744 174.24C418.979 174.005 419.278 173.888 419.64 173.888H420.248C420.739 173.397 421.112 172.608 421.368 171.52C421.646 170.432 421.827 169.12 421.912 167.584L422.2 161.088C422.243 160.619 422.392 160.299 422.648 160.128C422.926 159.936 423.182 159.84 423.416 159.84H430.776ZM424.248 167.584C424.206 168.928 424.067 170.133 423.832 171.2C423.598 172.245 423.256 173.141 422.808 173.888H429.528V161.952H424.472L424.248 167.584ZM436.315 165.536C436.315 164.704 436.422 163.936 436.635 163.232C436.87 162.507 437.211 161.888 437.659 161.376C438.128 160.843 438.726 160.427 439.451 160.128C440.176 159.808 441.04 159.648 442.043 159.648C442.427 159.648 442.864 159.68 443.355 159.744C443.867 159.808 444.358 159.915 444.827 160.064C445.296 160.213 445.691 160.416 446.011 160.672C446.331 160.907 446.491 161.216 446.491 161.6C446.491 161.899 446.384 162.155 446.171 162.368C445.958 162.581 445.702 162.688 445.403 162.688C445.254 162.688 445.083 162.656 444.891 162.592C444.507 162.4 444.112 162.229 443.707 162.08C443.323 161.931 442.854 161.856 442.299 161.856C441.04 161.856 440.144 162.176 439.611 162.816C439.078 163.456 438.811 164.363 438.811 165.536V170.368C438.811 171.541 439.078 172.448 439.611 173.088C440.144 173.728 441.04 174.048 442.299 174.048C442.854 174.048 443.323 173.973 443.707 173.824C444.112 173.675 444.507 173.504 444.891 173.312C445.083 173.248 445.254 173.216 445.403 173.216C445.702 173.216 445.958 173.323 446.171 173.536C446.384 173.749 446.491 174.005 446.491 174.304C446.491 174.688 446.331 175.008 446.011 175.264C445.691 175.499 445.296 175.691 444.827 175.84C444.358 175.989 443.867 176.096 443.355 176.16C442.864 176.224 442.427 176.256 442.043 176.256C441.04 176.256 440.176 176.107 439.451 175.808C438.726 175.488 438.128 175.072 437.659 174.56C437.211 174.027 436.87 173.408 436.635 172.704C436.422 171.979 436.315 171.2 436.315 170.368V165.536ZM455.745 175.008C455.745 175.371 455.627 175.669 455.393 175.904C455.158 176.139 454.859 176.256 454.497 176.256C454.134 176.256 453.835 176.139 453.601 175.904C453.366 175.669 453.249 175.371 453.249 175.008V162.208H449.921C449.601 162.208 449.323 162.101 449.089 161.888C448.875 161.653 448.769 161.365 448.769 161.024C448.769 160.683 448.875 160.405 449.089 160.192C449.323 159.957 449.601 159.84 449.921 159.84H459.073C459.393 159.84 459.659 159.957 459.873 160.192C460.107 160.405 460.225 160.683 460.225 161.024C460.225 161.365 460.107 161.653 459.873 161.888C459.659 162.101 459.393 162.208 459.073 162.208H455.745V175.008ZM474.215 164.352C474.215 165.163 474.034 165.856 473.671 166.432C473.33 167.008 472.765 167.445 471.975 167.744C472.871 168.064 473.522 168.544 473.927 169.184C474.333 169.803 474.535 170.56 474.535 171.456C474.535 172.8 474.098 173.899 473.223 174.752C472.349 175.584 471.015 176 469.223 176H464.615C464.253 176 463.954 175.883 463.719 175.648C463.485 175.392 463.367 175.093 463.367 174.752V161.088C463.367 160.747 463.485 160.459 463.719 160.224C463.954 159.968 464.253 159.84 464.615 159.84H468.903C469.799 159.84 470.578 159.957 471.239 160.192C471.901 160.405 472.455 160.715 472.903 161.12C473.351 161.525 473.682 162.005 473.895 162.56C474.109 163.093 474.215 163.691 474.215 164.352ZM472.071 171.36C472.071 171.061 472.029 170.763 471.943 170.464C471.858 170.165 471.698 169.899 471.463 169.664C471.229 169.429 470.898 169.237 470.471 169.088C470.045 168.939 469.49 168.864 468.807 168.864H465.863V173.856H469.159C470.119 173.856 470.845 173.664 471.335 173.28C471.826 172.875 472.071 172.235 472.071 171.36ZM465.863 166.752H468.903C469.501 166.752 469.981 166.688 470.343 166.56C470.727 166.432 471.015 166.261 471.207 166.048C471.421 165.835 471.559 165.589 471.623 165.312C471.709 165.035 471.751 164.757 471.751 164.48C471.751 163.605 471.506 162.976 471.015 162.592C470.525 162.187 469.799 161.984 468.839 161.984H465.863V166.752ZM483.424 176.256C482.443 176.256 481.579 176.117 480.832 175.84C480.085 175.541 479.456 175.136 478.944 174.624C478.453 174.112 478.08 173.515 477.824 172.832C477.568 172.128 477.44 171.371 477.44 170.56V165.216C477.44 164.427 477.568 163.691 477.824 163.008C478.08 162.304 478.453 161.696 478.944 161.184C479.456 160.672 480.085 160.267 480.832 159.968C481.579 159.669 482.443 159.52 483.424 159.52C484.405 159.52 485.269 159.669 486.016 159.968C486.763 160.267 487.381 160.672 487.872 161.184C488.384 161.696 488.768 162.304 489.024 163.008C489.28 163.691 489.408 164.427 489.408 165.216V170.56C489.408 171.371 489.28 172.128 489.024 172.832C488.768 173.515 488.384 174.112 487.872 174.624C487.381 175.136 486.763 175.541 486.016 175.84C485.269 176.117 484.405 176.256 483.424 176.256ZM483.424 173.952C484.576 173.952 485.44 173.653 486.016 173.056C486.613 172.459 486.912 171.627 486.912 170.56V165.184C486.912 164.139 486.613 163.317 486.016 162.72C485.44 162.123 484.576 161.824 483.424 161.824C482.272 161.824 481.397 162.123 480.8 162.72C480.224 163.317 479.936 164.139 479.936 165.184V170.56C479.936 171.627 480.224 172.459 480.8 173.056C481.397 173.653 482.272 173.952 483.424 173.952ZM510.645 173.344C510.111 173.344 509.706 173.088 509.429 172.576L505.269 165.056V175.008C505.269 175.349 505.141 175.648 504.885 175.904C504.65 176.139 504.362 176.256 504.021 176.256C503.679 176.256 503.391 176.139 503.157 175.904C502.922 175.648 502.805 175.349 502.805 175.008V160.992C502.805 160.608 502.933 160.288 503.189 160.032C503.445 159.776 503.765 159.648 504.149 159.648C504.447 159.648 504.693 159.723 504.885 159.872C505.098 160.021 505.279 160.224 505.429 160.48L510.677 170.048L515.925 160.48C516.074 160.224 516.245 160.021 516.437 159.872C516.65 159.723 516.906 159.648 517.205 159.648C517.589 159.648 517.909 159.776 518.165 160.032C518.421 160.288 518.549 160.608 518.549 160.992V175.008C518.549 175.349 518.421 175.648 518.165 175.904C517.93 176.139 517.653 176.256 517.333 176.256C516.97 176.256 516.671 176.139 516.437 175.904C516.202 175.648 516.085 175.349 516.085 175.008V165.056L511.925 172.576C511.647 173.088 511.242 173.344 510.709 173.344H510.645ZM528.362 174.048C529.044 174.048 529.631 173.963 530.122 173.792C530.612 173.621 531.135 173.408 531.69 173.152C531.732 173.131 531.786 173.109 531.85 173.088C531.935 173.067 532.031 173.056 532.138 173.056C532.458 173.056 532.724 173.173 532.938 173.408C533.151 173.621 533.258 173.877 533.258 174.176C533.258 174.56 533.066 174.891 532.682 175.168C532.319 175.424 531.86 175.637 531.306 175.808C530.772 175.957 530.207 176.064 529.61 176.128C529.012 176.213 528.5 176.256 528.074 176.256C527.178 176.256 526.367 176.128 525.641 175.872C524.938 175.595 524.34 175.221 523.85 174.752C523.38 174.261 523.018 173.696 522.762 173.056C522.506 172.395 522.378 171.691 522.378 170.944V164.96C522.378 164.192 522.506 163.477 522.762 162.816C523.018 162.155 523.391 161.589 523.882 161.12C524.372 160.629 524.98 160.245 525.706 159.968C526.431 159.691 527.274 159.552 528.234 159.552C530.026 159.552 531.359 160.021 532.234 160.96C533.108 161.899 533.546 163.168 533.546 164.768C533.546 166.24 533.119 167.403 532.266 168.256C531.434 169.088 530.058 169.504 528.138 169.504C527.647 169.504 527.114 169.483 526.538 169.44C525.983 169.397 525.428 169.323 524.874 169.216V171.104C524.874 172 525.162 172.715 525.738 173.248C526.335 173.781 527.21 174.048 528.362 174.048ZM531.082 164.768C531.082 163.723 530.826 162.976 530.314 162.528C529.823 162.059 529.108 161.824 528.17 161.824C527.124 161.824 526.314 162.091 525.738 162.624C525.162 163.136 524.874 163.84 524.874 164.736V167.168C525.471 167.253 526.1 167.317 526.762 167.36C527.423 167.381 527.914 167.392 528.234 167.392C528.831 167.392 529.311 167.317 529.674 167.168C530.058 167.019 530.356 166.827 530.57 166.592C530.783 166.336 530.922 166.048 530.986 165.728C531.05 165.408 531.082 165.088 531.082 164.768ZM536.221 160.736C536.221 158.688 536.712 157.088 537.693 155.936C538.696 154.763 540.317 154.059 542.557 153.824C542.835 153.803 543.059 153.792 543.229 153.792C543.421 153.771 543.624 153.739 543.837 153.696C544.051 153.653 544.307 153.579 544.605 153.472C544.904 153.365 545.331 153.184 545.885 152.928C545.928 152.907 545.981 152.885 546.045 152.864C546.131 152.843 546.227 152.832 546.333 152.832C546.653 152.832 546.92 152.949 547.133 153.184C547.347 153.397 547.453 153.664 547.453 153.984C547.453 154.389 547.272 154.72 546.909 154.976C546.568 155.232 546.141 155.435 545.629 155.584C545.117 155.712 544.584 155.819 544.029 155.904C543.475 155.968 542.995 156.011 542.589 156.032C542.248 156.075 541.853 156.139 541.405 156.224C540.957 156.309 540.531 156.501 540.125 156.8C539.741 157.099 539.411 157.547 539.133 158.144C538.856 158.741 538.717 159.552 538.717 160.576V162.208C539.144 161.653 539.688 161.227 540.349 160.928C541.011 160.608 541.789 160.448 542.685 160.448C543.539 160.448 544.307 160.597 544.989 160.896C545.672 161.195 546.248 161.6 546.717 162.112C547.208 162.624 547.571 163.232 547.805 163.936C548.061 164.619 548.189 165.355 548.189 166.144V170.56C548.189 171.371 548.061 172.128 547.805 172.832C547.549 173.515 547.165 174.112 546.653 174.624C546.163 175.136 545.544 175.541 544.797 175.84C544.051 176.117 543.187 176.256 542.205 176.256C541.224 176.256 540.36 176.117 539.613 175.84C538.867 175.541 538.237 175.136 537.725 174.624C537.235 174.112 536.861 173.515 536.605 172.832C536.349 172.128 536.221 171.371 536.221 170.56V160.736ZM542.205 173.952C543.357 173.952 544.221 173.653 544.797 173.056C545.395 172.459 545.693 171.627 545.693 170.56V166.112C545.693 165.067 545.427 164.245 544.893 163.648C544.36 163.051 543.517 162.752 542.365 162.752C541.235 162.752 540.349 163.04 539.709 163.616C539.091 164.171 538.76 164.949 538.717 165.952V170.56C538.717 171.627 539.005 172.459 539.581 173.056C540.179 173.653 541.053 173.952 542.205 173.952ZM557.08 174.048C557.763 174.048 558.35 173.963 558.84 173.792C559.331 173.621 559.854 173.408 560.408 173.152C560.451 173.131 560.504 173.109 560.568 173.088C560.654 173.067 560.75 173.056 560.856 173.056C561.176 173.056 561.443 173.173 561.656 173.408C561.87 173.621 561.976 173.877 561.976 174.176C561.976 174.56 561.784 174.891 561.4 175.168C561.038 175.424 560.579 175.637 560.024 175.808C559.491 175.957 558.926 176.064 558.328 176.128C557.731 176.213 557.219 176.256 556.792 176.256C555.896 176.256 555.086 176.128 554.36 175.872C553.656 175.595 553.059 175.221 552.568 174.752C552.099 174.261 551.736 173.696 551.48 173.056C551.224 172.395 551.096 171.691 551.096 170.944V164.96C551.096 164.192 551.224 163.477 551.48 162.816C551.736 162.155 552.11 161.589 552.6 161.12C553.091 160.629 553.699 160.245 554.424 159.968C555.15 159.691 555.992 159.552 556.952 159.552C558.744 159.552 560.078 160.021 560.952 160.96C561.827 161.899 562.264 163.168 562.264 164.768C562.264 166.24 561.838 167.403 560.984 168.256C560.152 169.088 558.776 169.504 556.856 169.504C556.366 169.504 555.832 169.483 555.256 169.44C554.702 169.397 554.147 169.323 553.592 169.216V171.104C553.592 172 553.88 172.715 554.456 173.248C555.054 173.781 555.928 174.048 557.08 174.048ZM559.8 164.768C559.8 163.723 559.544 162.976 559.032 162.528C558.542 162.059 557.827 161.824 556.888 161.824C555.843 161.824 555.032 162.091 554.456 162.624C553.88 163.136 553.592 163.84 553.592 164.736V167.168C554.19 167.253 554.819 167.317 555.48 167.36C556.142 167.381 556.632 167.392 556.952 167.392C557.55 167.392 558.03 167.317 558.392 167.168C558.776 167.019 559.075 166.827 559.288 166.592C559.502 166.336 559.64 166.048 559.704 165.728C559.768 165.408 559.8 165.088 559.8 164.768ZM578.401 175.008C578.401 175.371 578.283 175.669 578.049 175.904C577.814 176.139 577.515 176.256 577.153 176.256C576.79 176.256 576.491 176.139 576.257 175.904C576.022 175.669 575.905 175.371 575.905 175.008V161.952H570.817L570.113 170.784C569.985 172.405 569.622 173.707 569.025 174.688C568.449 175.669 567.531 176.16 566.273 176.16C566.017 176.16 565.771 176.149 565.537 176.128C565.302 176.128 565.089 176.085 564.897 176C564.726 175.936 564.587 175.829 564.481 175.68C564.374 175.531 564.321 175.317 564.321 175.04C564.321 174.613 564.438 174.304 564.673 174.112C564.929 173.92 565.206 173.824 565.505 173.824C565.611 173.824 565.675 173.835 565.697 173.856C565.739 173.856 565.814 173.856 565.921 173.856C566.497 173.856 566.923 173.621 567.201 173.152C567.478 172.683 567.659 171.957 567.745 170.976L568.577 161.088C568.619 160.619 568.769 160.299 569.025 160.128C569.302 159.936 569.558 159.84 569.793 159.84H577.153C577.515 159.84 577.814 159.968 578.049 160.224C578.283 160.459 578.401 160.747 578.401 161.088V175.008ZM584.494 176.32C584.067 176.32 583.726 176.181 583.47 175.904C583.214 175.627 583.086 175.296 583.086 174.912V160.928C583.086 160.565 583.193 160.256 583.406 160C583.641 159.744 583.939 159.616 584.302 159.616C584.665 159.616 584.963 159.744 585.198 160C585.454 160.256 585.582 160.565 585.582 160.928V171.712L592.686 160.384C592.963 159.872 593.401 159.616 593.998 159.616C594.403 159.616 594.723 159.755 594.958 160.032C595.214 160.288 595.342 160.619 595.342 161.024V175.008C595.342 175.371 595.225 175.68 594.99 175.936C594.755 176.192 594.457 176.32 594.094 176.32C593.731 176.32 593.433 176.192 593.198 175.936C592.963 175.68 592.846 175.371 592.846 175.008V164.224L585.774 175.584C585.454 176.075 585.027 176.32 584.494 176.32ZM612.145 175.008C612.145 175.371 612.027 175.669 611.793 175.904C611.558 176.139 611.259 176.256 610.897 176.256C610.534 176.256 610.235 176.139 610.001 175.904C609.766 175.669 609.649 175.371 609.649 175.008V160.896C609.649 160.555 609.766 160.267 610.001 160.032C610.235 159.776 610.534 159.648 610.897 159.648C611.259 159.648 611.558 159.776 611.793 160.032C612.027 160.267 612.145 160.555 612.145 160.896V166.592H618.929V160.896C618.929 160.555 619.046 160.267 619.281 160.032C619.515 159.776 619.814 159.648 620.177 159.648C620.539 159.648 620.838 159.776 621.073 160.032C621.307 160.267 621.425 160.555 621.425 160.896V175.008C621.425 175.371 621.307 175.669 621.073 175.904C620.838 176.139 620.539 176.256 620.177 176.256C619.814 176.256 619.515 176.139 619.281 175.904C619.046 175.669 618.929 175.371 618.929 175.008V168.704H612.145V175.008ZM634.054 165.184C634.054 162.901 632.913 161.76 630.63 161.76C630.075 161.76 629.617 161.824 629.254 161.952C628.913 162.08 628.561 162.24 628.198 162.432C628.155 162.453 628.049 162.507 627.878 162.592C627.707 162.656 627.537 162.688 627.366 162.688C627.067 162.688 626.843 162.571 626.694 162.336C626.566 162.101 626.491 161.867 626.47 161.632C626.427 161.269 626.534 160.96 626.79 160.704C627.046 160.427 627.387 160.203 627.814 160.032C628.262 159.861 628.753 159.744 629.286 159.68C629.841 159.595 630.395 159.552 630.95 159.552C632.955 159.552 634.385 160.096 635.238 161.184C636.113 162.272 636.55 163.883 636.55 166.016V173.056C636.55 173.696 636.742 174.016 637.126 174.016C637.169 174.016 637.201 174.016 637.222 174.016C637.265 173.995 637.318 173.984 637.382 173.984C637.681 173.984 637.905 174.101 638.054 174.336C638.225 174.549 638.31 174.795 638.31 175.072C638.31 175.477 638.161 175.765 637.862 175.936C637.563 176.085 637.233 176.16 636.87 176.16C636.337 176.16 635.857 176.021 635.43 175.744C635.025 175.445 634.705 175.051 634.47 174.56C633.233 175.691 631.771 176.256 630.086 176.256C628.422 176.256 627.185 175.819 626.374 174.944C625.585 174.048 625.19 172.875 625.19 171.424V171.296C625.19 168.139 627.067 166.56 630.822 166.56C631.953 166.56 633.03 166.709 634.054 167.008V165.184ZM630.79 168.672C630.129 168.672 629.595 168.747 629.19 168.896C628.785 169.024 628.465 169.216 628.23 169.472C628.017 169.707 627.867 169.984 627.782 170.304C627.697 170.624 627.654 170.965 627.654 171.328V171.456C627.654 172.203 627.857 172.821 628.262 173.312C628.667 173.781 629.403 174.016 630.47 174.016C631.153 174.016 631.782 173.909 632.358 173.696C632.934 173.461 633.499 173.099 634.054 172.608V169.152C633.521 168.981 632.966 168.864 632.39 168.8C631.814 168.715 631.281 168.672 630.79 168.672ZM660.109 164.128C660.109 165.088 659.875 165.877 659.405 166.496C658.936 167.115 658.157 167.531 657.069 167.744C658.264 167.979 659.117 168.427 659.629 169.088C660.163 169.749 660.429 170.603 660.429 171.648C660.429 173.056 659.981 174.176 659.085 175.008C658.189 175.84 656.813 176.256 654.957 176.256C654.531 176.256 654.029 176.224 653.453 176.16C652.899 176.117 652.365 176.021 651.853 175.872C651.341 175.723 650.904 175.531 650.541 175.296C650.2 175.061 650.029 174.752 650.029 174.368C650.029 174.133 650.115 173.888 650.285 173.632C650.477 173.376 650.819 173.248 651.309 173.248C651.416 173.248 651.469 173.259 651.469 173.28C651.491 173.28 651.523 173.291 651.565 173.312C651.971 173.483 652.472 173.653 653.069 173.824C653.667 173.973 654.328 174.048 655.053 174.048C656.013 174.048 656.739 173.856 657.229 173.472C657.741 173.088 657.997 172.427 657.997 171.488C657.997 171.275 657.965 171.029 657.901 170.752C657.837 170.453 657.677 170.176 657.421 169.92C657.187 169.664 656.813 169.44 656.301 169.248C655.811 169.056 655.128 168.939 654.253 168.896C653.891 168.875 653.539 168.811 653.197 168.704C652.856 168.597 652.685 168.299 652.685 167.808C652.685 167.552 652.728 167.36 652.813 167.232C652.92 167.104 653.048 167.008 653.197 166.944C653.347 166.88 653.507 166.837 653.677 166.816C653.848 166.795 654.008 166.773 654.157 166.752C654.947 166.688 655.576 166.549 656.045 166.336C656.515 166.123 656.867 165.877 657.101 165.6C657.336 165.323 657.485 165.045 657.549 164.768C657.635 164.469 657.677 164.203 657.677 163.968C657.677 163.243 657.443 162.699 656.973 162.336C656.504 161.952 655.757 161.76 654.733 161.76C654.115 161.76 653.603 161.824 653.197 161.952C652.792 162.059 652.419 162.187 652.077 162.336C651.864 162.443 651.672 162.496 651.501 162.496C651.16 162.496 650.883 162.389 650.669 162.176C650.456 161.941 650.349 161.675 650.349 161.376C650.349 161.035 650.499 160.747 650.797 160.512C651.117 160.277 651.501 160.096 651.949 159.968C652.397 159.819 652.877 159.712 653.389 159.648C653.923 159.584 654.403 159.552 654.829 159.552C656.6 159.552 657.923 159.979 658.797 160.832C659.672 161.685 660.109 162.784 660.109 164.128ZM672.148 165.184C672.148 162.901 671.006 161.76 668.724 161.76C668.169 161.76 667.71 161.824 667.348 161.952C667.006 162.08 666.654 162.24 666.292 162.432C666.249 162.453 666.142 162.507 665.972 162.592C665.801 162.656 665.63 162.688 665.46 162.688C665.161 162.688 664.937 162.571 664.788 162.336C664.66 162.101 664.585 161.867 664.564 161.632C664.521 161.269 664.628 160.96 664.884 160.704C665.14 160.427 665.481 160.203 665.908 160.032C666.356 159.861 666.846 159.744 667.38 159.68C667.934 159.595 668.489 159.552 669.044 159.552C671.049 159.552 672.478 160.096 673.332 161.184C674.206 162.272 674.644 163.883 674.644 166.016V173.056C674.644 173.696 674.836 174.016 675.22 174.016C675.262 174.016 675.294 174.016 675.316 174.016C675.358 173.995 675.412 173.984 675.476 173.984C675.774 173.984 675.998 174.101 676.148 174.336C676.318 174.549 676.404 174.795 676.404 175.072C676.404 175.477 676.254 175.765 675.956 175.936C675.657 176.085 675.326 176.16 674.964 176.16C674.43 176.16 673.95 176.021 673.524 175.744C673.118 175.445 672.798 175.051 672.564 174.56C671.326 175.691 669.865 176.256 668.18 176.256C666.516 176.256 665.278 175.819 664.468 174.944C663.678 174.048 663.284 172.875 663.284 171.424V171.296C663.284 168.139 665.161 166.56 668.916 166.56C670.046 166.56 671.124 166.709 672.148 167.008V165.184ZM668.884 168.672C668.222 168.672 667.689 168.747 667.284 168.896C666.878 169.024 666.558 169.216 666.324 169.472C666.11 169.707 665.961 169.984 665.876 170.304C665.79 170.624 665.748 170.965 665.748 171.328V171.456C665.748 172.203 665.95 172.821 666.356 173.312C666.761 173.781 667.497 174.016 668.564 174.016C669.246 174.016 669.876 173.909 670.452 173.696C671.028 173.461 671.593 173.099 672.148 172.608V169.152C671.614 168.981 671.06 168.864 670.484 168.8C669.908 168.715 669.374 168.672 668.884 168.672ZM682.113 175.008C682.113 175.371 681.996 175.669 681.761 175.904C681.527 176.139 681.228 176.256 680.865 176.256C680.503 176.256 680.204 176.139 679.969 175.904C679.735 175.669 679.617 175.371 679.617 175.008V160.896C679.617 160.555 679.735 160.267 679.969 160.032C680.204 159.776 680.503 159.648 680.865 159.648C681.228 159.648 681.527 159.776 681.761 160.032C681.996 160.267 682.113 160.555 682.113 160.896V166.592H684.065L688.225 160.288C688.481 159.883 688.823 159.68 689.249 159.68C689.569 159.68 689.836 159.776 690.049 159.968C690.284 160.16 690.412 160.416 690.433 160.736C690.433 160.843 690.412 160.971 690.369 161.12C690.348 161.248 690.305 161.365 690.241 161.472L685.857 167.968L690.241 174.464C690.305 174.571 690.348 174.699 690.369 174.848C690.412 174.976 690.433 175.093 690.433 175.2C690.412 175.52 690.284 175.776 690.049 175.968C689.836 176.16 689.569 176.256 689.249 176.256C688.823 176.256 688.481 176.053 688.225 175.648L683.649 168.704H682.113V175.008ZM701.429 165.184C701.429 162.901 700.288 161.76 698.005 161.76C697.45 161.76 696.992 161.824 696.629 161.952C696.288 162.08 695.936 162.24 695.573 162.432C695.53 162.453 695.424 162.507 695.253 162.592C695.082 162.656 694.912 162.688 694.741 162.688C694.442 162.688 694.218 162.571 694.069 162.336C693.941 162.101 693.866 161.867 693.845 161.632C693.802 161.269 693.909 160.96 694.165 160.704C694.421 160.427 694.762 160.203 695.189 160.032C695.637 159.861 696.128 159.744 696.661 159.68C697.216 159.595 697.77 159.552 698.325 159.552C700.33 159.552 701.76 160.096 702.613 161.184C703.488 162.272 703.925 163.883 703.925 166.016V173.056C703.925 173.696 704.117 174.016 704.501 174.016C704.544 174.016 704.576 174.016 704.597 174.016C704.64 173.995 704.693 173.984 704.757 173.984C705.056 173.984 705.28 174.101 705.429 174.336C705.6 174.549 705.685 174.795 705.685 175.072C705.685 175.477 705.536 175.765 705.237 175.936C704.938 176.085 704.608 176.16 704.245 176.16C703.712 176.16 703.232 176.021 702.805 175.744C702.4 175.445 702.08 175.051 701.845 174.56C700.608 175.691 699.146 176.256 697.461 176.256C695.797 176.256 694.56 175.819 693.749 174.944C692.96 174.048 692.565 172.875 692.565 171.424V171.296C692.565 168.139 694.442 166.56 698.197 166.56C699.328 166.56 700.405 166.709 701.429 167.008V165.184ZM698.165 168.672C697.504 168.672 696.97 168.747 696.565 168.896C696.16 169.024 695.84 169.216 695.605 169.472C695.392 169.707 695.242 169.984 695.157 170.304C695.072 170.624 695.029 170.965 695.029 171.328V171.456C695.029 172.203 695.232 172.821 695.637 173.312C696.042 173.781 696.778 174.016 697.845 174.016C698.528 174.016 699.157 173.909 699.733 173.696C700.309 173.461 700.874 173.099 701.429 172.608V169.152C700.896 168.981 700.341 168.864 699.765 168.8C699.189 168.715 698.656 168.672 698.165 168.672ZM718.266 164.128C718.266 165.088 718.031 165.877 717.562 166.496C717.092 167.115 716.314 167.531 715.226 167.744C716.42 167.979 717.274 168.427 717.786 169.088C718.319 169.749 718.586 170.603 718.586 171.648C718.586 173.056 718.138 174.176 717.242 175.008C716.346 175.84 714.97 176.256 713.114 176.256C712.687 176.256 712.186 176.224 711.61 176.16C711.055 176.117 710.522 176.021 710.01 175.872C709.498 175.723 709.06 175.531 708.698 175.296C708.356 175.061 708.186 174.752 708.186 174.368C708.186 174.133 708.271 173.888 708.442 173.632C708.634 173.376 708.975 173.248 709.466 173.248C709.572 173.248 709.626 173.259 709.626 173.28C709.647 173.28 709.679 173.291 709.722 173.312C710.127 173.483 710.628 173.653 711.226 173.824C711.823 173.973 712.484 174.048 713.21 174.048C714.17 174.048 714.895 173.856 715.385 173.472C715.898 173.088 716.154 172.427 716.154 171.488C716.154 171.275 716.122 171.029 716.058 170.752C715.994 170.453 715.834 170.176 715.578 169.92C715.343 169.664 714.97 169.44 714.458 169.248C713.967 169.056 713.284 168.939 712.41 168.896C712.047 168.875 711.695 168.811 711.354 168.704C711.012 168.597 710.842 168.299 710.842 167.808C710.842 167.552 710.884 167.36 710.97 167.232C711.076 167.104 711.204 167.008 711.354 166.944C711.503 166.88 711.663 166.837 711.834 166.816C712.004 166.795 712.164 166.773 712.314 166.752C713.103 166.688 713.732 166.549 714.202 166.336C714.671 166.123 715.023 165.877 715.258 165.6C715.492 165.323 715.642 165.045 715.706 164.768C715.791 164.469 715.834 164.203 715.834 163.968C715.834 163.243 715.599 162.699 715.13 162.336C714.66 161.952 713.914 161.76 712.89 161.76C712.271 161.76 711.759 161.824 711.354 161.952C710.948 162.059 710.575 162.187 710.234 162.336C710.02 162.443 709.828 162.496 709.658 162.496C709.316 162.496 709.039 162.389 708.826 162.176C708.612 161.941 708.506 161.675 708.506 161.376C708.506 161.035 708.655 160.747 708.954 160.512C709.274 160.277 709.658 160.096 710.106 159.968C710.554 159.819 711.034 159.712 711.546 159.648C712.079 159.584 712.559 159.552 712.986 159.552C714.756 159.552 716.079 159.979 716.954 160.832C717.828 161.685 718.266 162.784 718.266 164.128ZM406.528 199.352C406.528 200.163 406.346 200.856 405.984 201.432C405.642 202.008 405.077 202.445 404.288 202.744C405.184 203.064 405.834 203.544 406.24 204.184C406.645 204.803 406.848 205.56 406.848 206.456C406.848 207.8 406.41 208.899 405.536 209.752C404.661 210.584 403.328 211 401.536 211H396.928C396.565 211 396.266 210.883 396.032 210.648C395.797 210.392 395.68 210.093 395.68 209.752V196.088C395.68 195.747 395.797 195.459 396.032 195.224C396.266 194.968 396.565 194.84 396.928 194.84H401.216C402.112 194.84 402.89 194.957 403.552 195.192C404.213 195.405 404.768 195.715 405.216 196.12C405.664 196.525 405.994 197.005 406.208 197.56C406.421 198.093 406.528 198.691 406.528 199.352ZM404.384 206.36C404.384 206.061 404.341 205.763 404.256 205.464C404.17 205.165 404.01 204.899 403.776 204.664C403.541 204.429 403.21 204.237 402.784 204.088C402.357 203.939 401.802 203.864 401.12 203.864H398.176V208.856H401.472C402.432 208.856 403.157 208.664 403.648 208.28C404.138 207.875 404.384 207.235 404.384 206.36ZM398.176 201.752H401.216C401.813 201.752 402.293 201.688 402.656 201.56C403.04 201.432 403.328 201.261 403.52 201.048C403.733 200.835 403.872 200.589 403.936 200.312C404.021 200.035 404.064 199.757 404.064 199.48C404.064 198.605 403.818 197.976 403.328 197.592C402.837 197.187 402.112 196.984 401.152 196.984H398.176V201.752ZM419.346 196.28C419.346 195.043 419.485 193.923 419.762 192.92C420.061 191.917 420.498 191.064 421.074 190.36C421.672 189.635 422.418 189.08 423.314 188.696C424.232 188.312 425.309 188.12 426.546 188.12C427.272 188.12 427.976 188.195 428.658 188.344C429.341 188.493 429.938 188.696 430.45 188.952C430.984 189.187 431.41 189.475 431.73 189.816C432.05 190.136 432.21 190.488 432.21 190.872C432.21 191.171 432.104 191.437 431.89 191.672C431.677 191.885 431.4 191.992 431.058 191.992C430.824 191.992 430.632 191.949 430.482 191.864C430.354 191.757 430.162 191.619 429.906 191.448C428.968 190.787 427.901 190.456 426.706 190.456C425.81 190.456 425.053 190.595 424.434 190.872C423.816 191.128 423.314 191.512 422.93 192.024C422.568 192.536 422.301 193.155 422.13 193.88C421.981 194.584 421.906 195.384 421.906 196.28V203.128C421.906 204.024 421.981 204.835 422.13 205.56C422.301 206.264 422.568 206.872 422.93 207.384C423.314 207.896 423.816 208.291 424.434 208.568C425.053 208.824 425.81 208.952 426.706 208.952C427.901 208.952 428.968 208.621 429.906 207.96C430.184 207.789 430.386 207.661 430.514 207.576C430.642 207.469 430.824 207.416 431.058 207.416C431.4 207.416 431.677 207.533 431.89 207.768C432.104 207.981 432.21 208.237 432.21 208.536C432.21 208.92 432.05 209.283 431.73 209.624C431.41 209.944 430.984 210.232 430.45 210.488C429.938 210.723 429.341 210.915 428.658 211.064C427.976 211.213 427.272 211.288 426.546 211.288C425.309 211.288 424.232 211.096 423.314 210.712C422.418 210.328 421.672 209.784 421.074 209.08C420.498 208.355 420.061 207.491 419.762 206.488C419.485 205.485 419.346 204.365 419.346 203.128V196.28ZM443.617 200.184C443.617 197.901 442.475 196.76 440.193 196.76C439.638 196.76 439.179 196.824 438.817 196.952C438.475 197.08 438.123 197.24 437.761 197.432C437.718 197.453 437.611 197.507 437.441 197.592C437.27 197.656 437.099 197.688 436.929 197.688C436.63 197.688 436.406 197.571 436.257 197.336C436.129 197.101 436.054 196.867 436.033 196.632C435.99 196.269 436.097 195.96 436.353 195.704C436.609 195.427 436.95 195.203 437.377 195.032C437.825 194.861 438.315 194.744 438.849 194.68C439.403 194.595 439.958 194.552 440.513 194.552C442.518 194.552 443.947 195.096 444.801 196.184C445.675 197.272 446.113 198.883 446.113 201.016V208.056C446.113 208.696 446.305 209.016 446.689 209.016C446.731 209.016 446.763 209.016 446.785 209.016C446.827 208.995 446.881 208.984 446.945 208.984C447.243 208.984 447.467 209.101 447.617 209.336C447.787 209.549 447.873 209.795 447.873 210.072C447.873 210.477 447.723 210.765 447.425 210.936C447.126 211.085 446.795 211.16 446.433 211.16C445.899 211.16 445.419 211.021 444.993 210.744C444.587 210.445 444.267 210.051 444.033 209.56C442.795 210.691 441.334 211.256 439.649 211.256C437.985 211.256 436.747 210.819 435.937 209.944C435.147 209.048 434.753 207.875 434.753 206.424V206.296C434.753 203.139 436.63 201.56 440.385 201.56C441.515 201.56 442.593 201.709 443.617 202.008V200.184ZM440.353 203.672C439.691 203.672 439.158 203.747 438.753 203.896C438.347 204.024 438.027 204.216 437.793 204.472C437.579 204.707 437.43 204.984 437.345 205.304C437.259 205.624 437.217 205.965 437.217 206.328V206.456C437.217 207.203 437.419 207.821 437.825 208.312C438.23 208.781 438.966 209.016 440.033 209.016C440.715 209.016 441.345 208.909 441.921 208.696C442.497 208.461 443.062 208.099 443.617 207.608V204.152C443.083 203.981 442.529 203.864 441.953 203.8C441.377 203.715 440.843 203.672 440.353 203.672ZM453.582 210.008C453.582 210.371 453.465 210.669 453.23 210.904C452.995 211.139 452.697 211.256 452.334 211.256C451.971 211.256 451.673 211.139 451.438 210.904C451.203 210.669 451.086 210.371 451.086 210.008V195.896C451.086 195.555 451.203 195.267 451.438 195.032C451.673 194.776 451.971 194.648 452.334 194.648C452.697 194.648 452.995 194.776 453.23 195.032C453.465 195.267 453.582 195.555 453.582 195.896V201.592H460.366V195.896C460.366 195.555 460.483 195.267 460.718 195.032C460.953 194.776 461.251 194.648 461.614 194.648C461.977 194.648 462.275 194.776 462.51 195.032C462.745 195.267 462.862 195.555 462.862 195.896V210.008C462.862 210.371 462.745 210.669 462.51 210.904C462.275 211.139 461.977 211.256 461.614 211.256C461.251 211.256 460.953 211.139 460.718 210.904C460.483 210.669 460.366 210.371 460.366 210.008V203.704H453.582V210.008ZM470.02 210.008C470.02 210.371 469.902 210.669 469.668 210.904C469.433 211.139 469.134 211.256 468.772 211.256C468.409 211.256 468.11 211.139 467.876 210.904C467.641 210.669 467.524 210.371 467.524 210.008V195.896C467.524 195.555 467.641 195.267 467.876 195.032C468.11 194.776 468.409 194.648 468.772 194.648C469.134 194.648 469.433 194.776 469.668 195.032C469.902 195.267 470.02 195.555 470.02 195.896V201.592H471.972L476.132 195.288C476.388 194.883 476.729 194.68 477.156 194.68C477.476 194.68 477.742 194.776 477.956 194.968C478.19 195.16 478.318 195.416 478.34 195.736C478.34 195.843 478.318 195.971 478.276 196.12C478.254 196.248 478.212 196.365 478.148 196.472L473.764 202.968L478.148 209.464C478.212 209.571 478.254 209.699 478.276 209.848C478.318 209.976 478.34 210.093 478.34 210.2C478.318 210.52 478.19 210.776 477.956 210.968C477.742 211.16 477.476 211.256 477.156 211.256C476.729 211.256 476.388 211.053 476.132 210.648L471.556 203.704H470.02V210.008ZM486.901 210.008C486.901 210.371 486.784 210.669 486.549 210.904C486.314 211.139 486.016 211.256 485.653 211.256C485.29 211.256 484.992 211.139 484.757 210.904C484.522 210.669 484.405 210.371 484.405 210.008V197.208H481.077C480.757 197.208 480.48 197.101 480.245 196.888C480.032 196.653 479.925 196.365 479.925 196.024C479.925 195.683 480.032 195.405 480.245 195.192C480.48 194.957 480.757 194.84 481.077 194.84H490.229C490.549 194.84 490.816 194.957 491.029 195.192C491.264 195.405 491.381 195.683 491.381 196.024C491.381 196.365 491.264 196.653 491.029 196.888C490.816 197.101 490.549 197.208 490.229 197.208H486.901V210.008ZM502.051 201.56C502.051 201.88 501.934 202.157 501.699 202.392C501.486 202.605 501.219 202.712 500.899 202.712H492.931C492.59 202.712 492.302 202.605 492.067 202.392C491.854 202.157 491.747 201.88 491.747 201.56C491.747 201.24 491.854 200.963 492.067 200.728C492.302 200.493 492.59 200.376 492.931 200.376H500.899C501.219 200.376 501.486 200.493 501.699 200.728C501.934 200.963 502.051 201.24 502.051 201.56ZM519.505 210.008C519.505 210.371 519.377 210.68 519.121 210.936C518.886 211.192 518.587 211.32 518.225 211.32C517.883 211.32 517.585 211.192 517.329 210.936C517.073 210.68 516.945 210.371 516.945 210.008V190.904H508.209V210.008C508.209 210.371 508.081 210.68 507.825 210.936C507.59 211.192 507.291 211.32 506.929 211.32C506.566 211.32 506.257 211.192 506.001 210.936C505.766 210.68 505.649 210.371 505.649 210.008V189.688C505.649 189.347 505.766 189.048 506.001 188.792C506.257 188.536 506.566 188.408 506.929 188.408H518.225C518.566 188.408 518.865 188.536 519.121 188.792C519.377 189.048 519.505 189.347 519.505 189.688V210.008ZM529.268 209.048C529.95 209.048 530.537 208.963 531.028 208.792C531.518 208.621 532.041 208.408 532.596 208.152C532.638 208.131 532.692 208.109 532.756 208.088C532.841 208.067 532.937 208.056 533.044 208.056C533.364 208.056 533.63 208.173 533.844 208.408C534.057 208.621 534.164 208.877 534.164 209.176C534.164 209.56 533.972 209.891 533.588 210.168C533.225 210.424 532.766 210.637 532.212 210.808C531.678 210.957 531.113 211.064 530.516 211.128C529.918 211.213 529.406 211.256 528.98 211.256C528.084 211.256 527.273 211.128 526.548 210.872C525.844 210.595 525.246 210.221 524.756 209.752C524.286 209.261 523.924 208.696 523.668 208.056C523.412 207.395 523.284 206.691 523.284 205.944V199.96C523.284 199.192 523.412 198.477 523.668 197.816C523.924 197.155 524.297 196.589 524.788 196.12C525.278 195.629 525.886 195.245 526.612 194.968C527.337 194.691 528.18 194.552 529.14 194.552C530.932 194.552 532.265 195.021 533.14 195.96C534.014 196.899 534.452 198.168 534.452 199.768C534.452 201.24 534.025 202.403 533.172 203.256C532.34 204.088 530.964 204.504 529.044 204.504C528.553 204.504 528.02 204.483 527.444 204.44C526.889 204.397 526.334 204.323 525.78 204.216V206.104C525.78 207 526.068 207.715 526.644 208.248C527.241 208.781 528.116 209.048 529.268 209.048ZM531.988 199.768C531.988 198.723 531.732 197.976 531.22 197.528C530.729 197.059 530.014 196.824 529.076 196.824C528.03 196.824 527.22 197.091 526.644 197.624C526.068 198.136 525.78 198.84 525.78 199.736V202.168C526.377 202.253 527.006 202.317 527.668 202.36C528.329 202.381 528.82 202.392 529.14 202.392C529.737 202.392 530.217 202.317 530.58 202.168C530.964 202.019 531.262 201.827 531.476 201.592C531.689 201.336 531.828 201.048 531.892 200.728C531.956 200.408 531.988 200.088 531.988 199.768ZM543.464 210.008C543.464 210.371 543.346 210.669 543.112 210.904C542.877 211.139 542.578 211.256 542.216 211.256C541.853 211.256 541.554 211.139 541.32 210.904C541.085 210.669 540.968 210.371 540.968 210.008V197.208H537.64C537.32 197.208 537.042 197.101 536.808 196.888C536.594 196.653 536.488 196.365 536.488 196.024C536.488 195.683 536.594 195.405 536.808 195.192C537.042 194.957 537.32 194.84 537.64 194.84H546.792C547.112 194.84 547.378 194.957 547.592 195.192C547.826 195.405 547.944 195.683 547.944 196.024C547.944 196.365 547.826 196.653 547.592 196.888C547.378 197.101 547.112 197.208 546.792 197.208H543.464V210.008ZM556.018 209.048C556.7 209.048 557.287 208.963 557.778 208.792C558.268 208.621 558.791 208.408 559.346 208.152C559.388 208.131 559.442 208.109 559.506 208.088C559.591 208.067 559.687 208.056 559.794 208.056C560.114 208.056 560.38 208.173 560.594 208.408C560.807 208.621 560.914 208.877 560.914 209.176C560.914 209.56 560.722 209.891 560.338 210.168C559.975 210.424 559.516 210.637 558.962 210.808C558.428 210.957 557.863 211.064 557.266 211.128C556.668 211.213 556.156 211.256 555.73 211.256C554.834 211.256 554.023 211.128 553.298 210.872C552.594 210.595 551.996 210.221 551.506 209.752C551.036 209.261 550.674 208.696 550.418 208.056C550.162 207.395 550.034 206.691 550.034 205.944V199.96C550.034 199.192 550.162 198.477 550.418 197.816C550.674 197.155 551.047 196.589 551.538 196.12C552.028 195.629 552.636 195.245 553.362 194.968C554.087 194.691 554.93 194.552 555.89 194.552C557.682 194.552 559.015 195.021 559.89 195.96C560.764 196.899 561.202 198.168 561.202 199.768C561.202 201.24 560.775 202.403 559.922 203.256C559.09 204.088 557.714 204.504 555.794 204.504C555.303 204.504 554.77 204.483 554.194 204.44C553.639 204.397 553.084 204.323 552.53 204.216V206.104C552.53 207 552.818 207.715 553.394 208.248C553.991 208.781 554.866 209.048 556.018 209.048ZM558.738 199.768C558.738 198.723 558.482 197.976 557.97 197.528C557.479 197.059 556.764 196.824 555.826 196.824C554.78 196.824 553.97 197.091 553.394 197.624C552.818 198.136 552.53 198.84 552.53 199.736V202.168C553.127 202.253 553.756 202.317 554.418 202.36C555.079 202.381 555.57 202.392 555.89 202.392C556.487 202.392 556.967 202.317 557.33 202.168C557.714 202.019 558.012 201.827 558.226 201.592C558.439 201.336 558.578 201.048 558.642 200.728C558.706 200.408 558.738 200.088 558.738 199.768ZM570.95 211.224C570.395 211.224 569.808 211.171 569.19 211.064C568.571 210.957 567.974 210.808 567.398 210.616V216.664C567.398 217.005 567.291 217.293 567.078 217.528C566.864 217.763 566.555 217.88 566.15 217.88C565.744 217.88 565.435 217.763 565.222 217.528C565.008 217.293 564.902 217.005 564.902 216.664V199.192C564.902 198.659 564.859 198.232 564.774 197.912C564.71 197.571 564.582 197.251 564.39 196.952C564.326 196.845 564.272 196.749 564.23 196.664C564.187 196.579 564.166 196.461 564.166 196.312C564.166 195.971 564.283 195.704 564.518 195.512C564.752 195.299 565.008 195.192 565.286 195.192C565.542 195.192 565.766 195.267 565.958 195.416C566.171 195.544 566.363 195.725 566.534 195.96C567.259 195.576 568.006 195.245 568.774 194.968C569.563 194.691 570.374 194.552 571.206 194.552C572.891 194.552 574.16 195.117 575.014 196.248C575.867 197.357 576.294 198.808 576.294 200.6V204.76C576.294 205.72 576.208 206.595 576.038 207.384C575.867 208.173 575.568 208.856 575.142 209.432C574.736 209.987 574.192 210.424 573.51 210.744C572.827 211.064 571.974 211.224 570.95 211.224ZM567.398 208.376C567.91 208.611 568.475 208.781 569.094 208.888C569.712 208.995 570.224 209.048 570.63 209.048C571.803 209.048 572.624 208.707 573.094 208.024C573.563 207.341 573.798 206.253 573.798 204.76V200.6C573.798 198.061 572.763 196.792 570.694 196.792C570.139 196.792 569.563 196.888 568.966 197.08C568.368 197.272 567.792 197.539 567.238 197.88C567.344 198.413 567.398 198.851 567.398 199.192V208.376ZM579.159 195.736C579.159 193.688 579.649 192.088 580.631 190.936C581.633 189.763 583.255 189.059 585.495 188.824C585.772 188.803 585.996 188.792 586.167 188.792C586.359 188.771 586.561 188.739 586.775 188.696C586.988 188.653 587.244 188.579 587.543 188.472C587.841 188.365 588.268 188.184 588.823 187.928C588.865 187.907 588.919 187.885 588.983 187.864C589.068 187.843 589.164 187.832 589.271 187.832C589.591 187.832 589.857 187.949 590.071 188.184C590.284 188.397 590.391 188.664 590.391 188.984C590.391 189.389 590.209 189.72 589.847 189.976C589.505 190.232 589.079 190.435 588.567 190.584C588.055 190.712 587.521 190.819 586.967 190.904C586.412 190.968 585.932 191.011 585.527 191.032C585.185 191.075 584.791 191.139 584.343 191.224C583.895 191.309 583.468 191.501 583.063 191.8C582.679 192.099 582.348 192.547 582.071 193.144C581.793 193.741 581.655 194.552 581.655 195.576V197.208C582.081 196.653 582.625 196.227 583.287 195.928C583.948 195.608 584.727 195.448 585.623 195.448C586.476 195.448 587.244 195.597 587.927 195.896C588.609 196.195 589.185 196.6 589.655 197.112C590.145 197.624 590.508 198.232 590.743 198.936C590.999 199.619 591.127 200.355 591.127 201.144V205.56C591.127 206.371 590.999 207.128 590.743 207.832C590.487 208.515 590.103 209.112 589.591 209.624C589.1 210.136 588.481 210.541 587.735 210.84C586.988 211.117 586.124 211.256 585.143 211.256C584.161 211.256 583.297 211.117 582.551 210.84C581.804 210.541 581.175 210.136 580.663 209.624C580.172 209.112 579.799 208.515 579.543 207.832C579.287 207.128 579.159 206.371 579.159 205.56V195.736ZM585.143 208.952C586.295 208.952 587.159 208.653 587.735 208.056C588.332 207.459 588.631 206.627 588.631 205.56V201.112C588.631 200.067 588.364 199.245 587.831 198.648C587.297 198.051 586.455 197.752 585.303 197.752C584.172 197.752 583.287 198.04 582.647 198.616C582.028 199.171 581.697 199.949 581.655 200.952V205.56C581.655 206.627 581.943 207.459 582.519 208.056C583.116 208.653 583.991 208.952 585.143 208.952ZM601.269 208.984C600.885 210.243 600.501 211.384 600.117 212.408C599.754 213.432 599.317 214.317 598.805 215.064C598.293 215.811 597.685 216.397 596.981 216.824C596.277 217.251 595.402 217.475 594.357 217.496C593.994 217.496 593.685 217.379 593.429 217.144C593.194 216.931 593.077 216.643 593.077 216.28C593.077 215.981 593.183 215.715 593.397 215.48C593.61 215.245 593.898 215.117 594.261 215.096C594.773 215.075 595.21 214.979 595.573 214.808C595.957 214.659 596.298 214.413 596.597 214.072C596.895 213.752 597.162 213.336 597.397 212.824C597.653 212.312 597.898 211.683 598.133 210.936L593.045 196.248C593.002 196.205 592.981 196.141 592.981 196.056C592.981 195.949 592.981 195.864 592.981 195.8C592.981 195.459 593.098 195.181 593.333 194.968C593.567 194.755 593.866 194.648 594.229 194.648C594.463 194.648 594.677 194.723 594.869 194.872C595.082 195 595.242 195.203 595.349 195.48L599.349 207.608L602.837 195.48C602.943 195.203 603.103 195 603.317 194.872C603.53 194.723 603.754 194.648 603.989 194.648C604.309 194.648 604.597 194.765 604.853 195C605.109 195.235 605.237 195.533 605.237 195.896C605.237 195.981 605.215 196.109 605.173 196.28L601.269 208.984ZM614.168 211.224C613.614 211.224 613.027 211.171 612.408 211.064C611.79 210.957 611.192 210.808 610.616 210.616V216.664C610.616 217.005 610.51 217.293 610.296 217.528C610.083 217.763 609.774 217.88 609.368 217.88C608.963 217.88 608.654 217.763 608.44 217.528C608.227 217.293 608.12 217.005 608.12 216.664V199.192C608.12 198.659 608.078 198.232 607.992 197.912C607.928 197.571 607.8 197.251 607.608 196.952C607.544 196.845 607.491 196.749 607.448 196.664C607.406 196.579 607.384 196.461 607.384 196.312C607.384 195.971 607.502 195.704 607.736 195.512C607.971 195.299 608.227 195.192 608.504 195.192C608.76 195.192 608.984 195.267 609.176 195.416C609.39 195.544 609.582 195.725 609.752 195.96C610.478 195.576 611.224 195.245 611.992 194.968C612.782 194.691 613.592 194.552 614.424 194.552C616.11 194.552 617.379 195.117 618.232 196.248C619.086 197.357 619.512 198.808 619.512 200.6V204.76C619.512 205.72 619.427 206.595 619.256 207.384C619.086 208.173 618.787 208.856 618.36 209.432C617.955 209.987 617.411 210.424 616.728 210.744C616.046 211.064 615.192 211.224 614.168 211.224ZM610.616 208.376C611.128 208.611 611.694 208.781 612.312 208.888C612.931 208.995 613.443 209.048 613.848 209.048C615.022 209.048 615.843 208.707 616.312 208.024C616.782 207.341 617.016 206.253 617.016 204.76V200.6C617.016 198.061 615.982 196.792 613.912 196.792C613.358 196.792 612.782 196.888 612.184 197.08C611.587 197.272 611.011 197.539 610.456 197.88C610.563 198.413 610.616 198.851 610.616 199.192V208.376ZM625.77 210.008C625.77 210.371 625.652 210.669 625.418 210.904C625.183 211.139 624.884 211.256 624.522 211.256C624.159 211.256 623.86 211.139 623.626 210.904C623.391 210.669 623.274 210.371 623.274 210.008V195.96C623.274 195.64 623.38 195.373 623.594 195.16C623.828 194.947 624.106 194.84 624.426 194.84H631.626C631.924 194.84 632.191 194.947 632.426 195.16C632.66 195.373 632.778 195.64 632.778 195.96C632.778 196.28 632.66 196.547 632.426 196.76C632.212 196.973 631.946 197.08 631.626 197.08H625.77V210.008ZM640.268 209.048C640.95 209.048 641.537 208.963 642.028 208.792C642.518 208.621 643.041 208.408 643.596 208.152C643.638 208.131 643.692 208.109 643.756 208.088C643.841 208.067 643.937 208.056 644.044 208.056C644.364 208.056 644.63 208.173 644.844 208.408C645.057 208.621 645.164 208.877 645.164 209.176C645.164 209.56 644.972 209.891 644.588 210.168C644.225 210.424 643.766 210.637 643.212 210.808C642.678 210.957 642.113 211.064 641.516 211.128C640.918 211.213 640.406 211.256 639.98 211.256C639.084 211.256 638.273 211.128 637.548 210.872C636.844 210.595 636.246 210.221 635.756 209.752C635.286 209.261 634.924 208.696 634.668 208.056C634.412 207.395 634.284 206.691 634.284 205.944V199.96C634.284 199.192 634.412 198.477 634.668 197.816C634.924 197.155 635.297 196.589 635.788 196.12C636.278 195.629 636.886 195.245 637.612 194.968C638.337 194.691 639.18 194.552 640.14 194.552C641.932 194.552 643.265 195.021 644.14 195.96C645.014 196.899 645.452 198.168 645.452 199.768C645.452 201.24 645.025 202.403 644.172 203.256C643.34 204.088 641.964 204.504 640.044 204.504C639.553 204.504 639.02 204.483 638.444 204.44C637.889 204.397 637.334 204.323 636.78 204.216V206.104C636.78 207 637.068 207.715 637.644 208.248C638.241 208.781 639.116 209.048 640.268 209.048ZM642.988 199.768C642.988 198.723 642.732 197.976 642.22 197.528C641.729 197.059 641.014 196.824 640.076 196.824C639.03 196.824 638.22 197.091 637.644 197.624C637.068 198.136 636.78 198.84 636.78 199.736V202.168C637.377 202.253 638.006 202.317 638.668 202.36C639.329 202.381 639.82 202.392 640.14 202.392C640.737 202.392 641.217 202.317 641.58 202.168C641.964 202.019 642.262 201.827 642.476 201.592C642.689 201.336 642.828 201.048 642.892 200.728C642.956 200.408 642.988 200.088 642.988 199.768ZM660.025 211.32C659.599 211.32 659.257 211.181 659.001 210.904C658.745 210.627 658.617 210.296 658.617 209.912V195.928C658.617 195.565 658.724 195.256 658.937 195C659.172 194.744 659.471 194.616 659.833 194.616C660.196 194.616 660.495 194.744 660.729 195C660.985 195.256 661.113 195.565 661.113 195.928V206.712L668.217 195.384C668.495 194.872 668.932 194.616 669.529 194.616C669.935 194.616 670.255 194.755 670.489 195.032C670.745 195.288 670.873 195.619 670.873 196.024V210.008C670.873 210.371 670.756 210.68 670.521 210.936C670.287 211.192 669.988 211.32 669.625 211.32C669.263 211.32 668.964 211.192 668.729 210.936C668.495 210.68 668.377 210.371 668.377 210.008V199.224L661.305 210.584C660.985 211.075 660.559 211.32 660.025 211.32ZM699.996 210.008C699.974 210.371 699.836 210.669 699.58 210.904C699.345 211.139 699.057 211.256 698.716 211.256C698.353 211.256 698.044 211.139 697.788 210.904C697.553 210.669 697.436 210.371 697.436 210.008V190.904H690.588L689.596 205.592C689.489 207.299 689.116 208.675 688.476 209.72C687.857 210.744 686.897 211.256 685.596 211.256C685.276 211.256 684.966 211.245 684.668 211.224C684.39 211.203 684.134 211.149 683.9 211.064C683.686 211 683.505 210.883 683.356 210.712C683.228 210.541 683.164 210.296 683.164 209.976C683.164 209.507 683.281 209.176 683.516 208.984C683.772 208.771 684.049 208.664 684.348 208.664C684.561 208.664 684.7 208.685 684.764 208.728C684.849 208.749 685.009 208.76 685.244 208.76C685.82 208.76 686.246 208.525 686.524 208.056C686.801 207.565 686.982 206.808 687.068 205.784L688.22 189.656C688.262 189.187 688.412 188.867 688.668 188.696C688.945 188.504 689.201 188.408 689.436 188.408H698.716C699.078 188.408 699.377 188.536 699.612 188.792C699.868 189.027 699.996 189.315 699.996 189.656V210.008ZM711.175 211.32C709.959 211.32 708.882 211.107 707.943 210.68C707.026 210.253 706.258 209.677 705.639 208.952C705.042 208.205 704.583 207.331 704.263 206.328C703.964 205.325 703.815 204.259 703.815 203.128V196.28C703.815 195.171 703.943 194.125 704.199 193.144C704.476 192.141 704.914 191.277 705.511 190.552C706.108 189.805 706.866 189.219 707.783 188.792C708.722 188.344 709.852 188.12 711.175 188.12C712.498 188.12 713.618 188.344 714.535 188.792C715.474 189.219 716.242 189.805 716.839 190.552C717.436 191.277 717.863 192.141 718.119 193.144C718.396 194.125 718.535 195.171 718.535 196.28V203.128C718.535 204.259 718.375 205.325 718.055 206.328C717.756 207.331 717.298 208.205 716.679 208.952C716.082 209.677 715.314 210.253 714.375 210.68C713.458 211.107 712.391 211.32 711.175 211.32ZM711.175 190.616C710.3 190.616 709.554 190.755 708.935 191.032C708.338 191.309 707.847 191.693 707.463 192.184C707.079 192.675 706.802 193.272 706.631 193.976C706.46 194.659 706.375 195.427 706.375 196.28V203.128C706.375 204.813 706.759 206.189 707.527 207.256C708.316 208.301 709.532 208.824 711.175 208.824C712.818 208.824 714.023 208.301 714.791 207.256C715.58 206.189 715.975 204.813 715.975 203.128V196.28C715.975 195.427 715.89 194.659 715.719 193.976C715.548 193.272 715.271 192.675 714.887 192.184C714.503 191.693 714.002 191.309 713.383 191.032C712.786 190.755 712.05 190.616 711.175 190.616Z" fill="#252D39"/>
</svg>
