<svg width="41" height="56" viewBox="0 0 41 56" fill="none" xmlns="http://www.w3.org/2000/svg">
<path id="Vector" d="M39.5534 7.66684C37.7099 10.0412 35.8967 12.3733 33.9384 14.8927C33.3279 14.3429 32.796 13.8474 32.246 13.3762C28.5651 10.2527 24.4611 8.40393 19.4928 9.26184C16.0476 9.85996 14.1981 11.9383 14.3129 15.0316C14.3855 16.8804 15.2014 18.4089 16.7669 19.2849C18.9005 20.4812 21.1731 21.4478 23.3973 22.4749C26.8969 24.0941 30.5959 25.3749 33.884 27.3505C40.0369 31.0541 41.3485 37.0534 40.3331 43.6267C39.3237 50.1456 34.8269 53.5652 28.7525 55.0394C20.1516 57.1237 12.4272 54.8883 5.40384 49.8073C3.74773 48.6111 2.20647 47.2457 0.502014 45.8682C2.53286 43.2098 4.44281 40.7146 6.81213 37.6213C7.17478 38.298 7.33192 38.884 7.70666 39.2526C12.7535 44.2188 18.7614 47.1671 25.6699 45.7232C29.5866 44.9015 31.1701 38.7934 28.4321 36.0203C27.6887 35.2651 26.637 34.7274 25.6337 34.3105C21.9165 32.788 18.0603 31.5555 14.4459 29.8216C11.998 28.6434 9.58036 27.0847 7.65831 25.1876C1.02786 18.6506 2.46637 7.86622 10.4628 3.09332C21.0764 -3.24436 34.2708 1.44999 39.5594 7.6608L39.5534 7.66684Z" fill="#341D10"/>
</svg>
