<svg width="72" height="72" viewBox="0 0 72 72" fill="none" xmlns="http://www.w3.org/2000/svg">
<rect width="72" height="72" rx="10.9565" fill="#AA967B"/>
<path d="M41.6601 28.8669C37.74 31.4938 33.805 34.1523 29.8396 36.7768C28.4064 37.7267 26.9339 38.6198 25.4383 39.4749C24.0983 40.2424 22.622 40.2097 21.1766 39.844C18.8292 39.2479 16.4933 38.599 14.162 37.9335C13.3997 37.7173 12.6247 37.2484 12.739 36.4371C12.8183 35.896 13.3648 35.2128 13.8903 34.959C16.9487 33.5034 20.0476 32.1225 23.1638 30.7783C28.1243 28.6334 33.0806 26.4817 38.0833 24.4384C42.2491 22.7358 46.4829 21.1852 50.6888 19.5808C51.0403 19.448 51.4317 19.381 51.8103 19.349C53.2051 19.2235 54.1869 19.8731 54.2433 21.2055C54.3057 22.6598 54.2027 24.1375 54.0004 25.5875C53.0767 32.1667 52.1151 38.7394 51.1197 45.3125C50.8561 47.0615 50.5001 48.8022 50.062 50.5195C49.4736 52.813 48.0221 53.5087 45.7485 52.6345C44.8867 52.3025 44.062 51.8477 43.2874 51.3553C39.7296 49.1015 36.1981 46.8189 32.6594 44.5404C32.3716 44.3542 32.108 44.1359 31.8516 43.9136C30.7008 42.9136 30.5777 41.911 31.6334 40.7791C32.8642 39.4559 34.1947 38.225 35.4971 36.9636C38.1518 34.4034 40.8265 31.8598 43.4629 29.2774C43.7274 29.0174 43.7667 28.5544 43.9095 28.1818C43.4992 28.2177 43.0704 28.199 42.684 28.3143C42.325 28.4187 42.0169 28.6709 41.655 28.8744L41.6601 28.8669Z" fill="white"/>
</svg>
