<svg width="72" height="72" viewBox="0 0 72 72" fill="none" xmlns="http://www.w3.org/2000/svg">
<rect width="72" height="72" rx="10.9565" fill="#AA967B"/>
<path fill-rule="evenodd" clip-rule="evenodd" d="M50.4964 49.9555C54.4422 46.0496 56.3819 41.3038 56.408 35.8089V35.8066C56.4032 32.5124 55.6335 29.4114 54.0064 26.5244C51.1098 21.3924 46.7282 18.1169 40.9422 16.7187C37.6714 15.9277 34.3745 16.0766 31.1061 16.9281C28.1597 17.6958 25.5 19.0148 23.2168 20.9667C18.6387 24.8726 16.32 29.8743 16.2039 35.8019C16.1423 38.8727 16.8458 41.8226 18.2384 44.5956C18.2557 44.6299 18.2731 44.6643 18.2905 44.6987C18.5974 45.3044 18.9073 45.916 18.6742 46.6358C18.6434 46.7316 18.6104 46.8268 18.5774 46.9219C18.5214 47.0832 18.4655 47.2443 18.4208 47.4082C18.0578 48.7448 17.6967 50.0828 17.3356 51.421C17.0016 52.6587 16.6675 53.8966 16.3318 55.134C16.1542 55.7924 16.2371 55.8971 16.9381 55.7296C17.4877 55.5987 18.0333 55.4531 18.5791 55.3076C18.9836 55.1997 19.3882 55.0918 19.7945 54.9898C21.72 54.5036 23.6479 54.022 25.5782 53.5475C26.2176 53.3916 26.8121 53.4079 27.4705 53.6661C28.984 54.2617 30.5187 54.8642 32.1008 55.2201C35.2035 55.9203 38.3156 55.811 41.4158 55.02C44.9164 54.1267 47.9645 52.461 50.4964 49.9555ZM44.7961 49.2612C42.2039 50.9111 39.3188 51.7106 36.1181 51.655L36.1203 51.6573C33.3952 51.7328 30.803 50.9333 28.3687 49.6143C27.5798 49.1857 26.8562 49.3389 26.0899 49.5388C25.8147 49.6106 25.5397 49.6828 25.2648 49.7551C24.29 50.0111 23.3162 50.267 22.3369 50.5025C21.699 50.6558 21.5502 50.5159 21.7125 49.9052C22.0258 48.7283 22.3639 47.5602 22.7156 46.3944C23.0244 45.3685 22.8193 44.4313 22.3053 43.5253C20.6486 40.6008 19.9296 37.4719 20.3714 34.1476C20.9845 29.5243 23.2363 25.7936 27.0907 23.0823C30.3094 20.8194 33.9564 19.9179 37.8987 20.3087C42.8959 20.8017 46.7931 23.1777 49.5949 27.2237C51.725 30.2993 52.6424 33.7679 52.2344 37.4697C51.6754 42.5349 49.1464 46.4943 44.7961 49.2612Z" fill="white"/>
<path d="M26.199 31.928C26.206 29.9406 26.7754 28.6442 27.8276 27.521C28.5985 26.6983 29.5545 26.703 30.5293 26.9063C30.7777 26.9595 31.0425 27.2714 31.162 27.528C31.6869 28.6603 32.1508 29.8204 32.6523 30.962C33.0272 31.8148 32.6921 32.5104 32.1368 33.1205C30.9089 34.4632 31.1948 34.5833 32.0876 35.8751C33.5849 38.0382 35.6142 39.5796 38.0371 40.6357C38.6463 40.9015 39.0798 40.8137 39.5344 40.2798C39.9468 39.7945 40.3428 39.2977 40.7459 38.8031C41.1044 38.364 41.5262 38.1907 42.0792 38.4542C43.2883 39.0296 44.5115 39.575 45.7042 40.1781C46.3486 40.5063 46.4212 40.9361 46.2736 41.7588C45.812 44.3055 43.218 45.4286 41.0669 45.1721C38.5385 44.8717 36.2679 43.9011 34.1918 42.4729C31.1831 40.4023 28.8398 37.7424 27.0566 34.6018C26.5107 33.6404 26.1803 32.5936 26.199 31.9234V31.928Z" fill="white"/>
</svg>
