<svg width="336" height="208" viewBox="0 0 336 208" fill="none" xmlns="http://www.w3.org/2000/svg">
<rect x="0.5" y="0.5" width="335" height="207" stroke="#AA967B"/>
<path d="M28.7812 55V42.0859H36.9141V43.9375H30.9844V55H28.7812ZM39.9609 55V51.9297H43.2422V55H39.9609ZM53.5781 43.2812V37.1172H55.8516V43.375C55.8516 44.4375 56.1797 45.2656 56.8359 45.8594C57.4922 46.4375 58.3906 46.7266 59.5312 46.7266C60.6094 46.7266 61.6406 46.3359 62.625 45.5547C63.6094 44.7578 64.1016 43.8281 64.1016 42.7656V37.1172H66.3984V55H64.1016V46.4219H64.0547C63.6172 47 62.9688 47.5156 62.1094 47.9688C61.2656 48.4062 60.2969 48.625 59.2031 48.625C57.5156 48.625 56.1562 48.1797 55.125 47.2891C54.0938 46.3828 53.5781 45.0469 53.5781 43.2812ZM69.6562 48.4609C69.6562 46.4297 70.2109 44.7891 71.3203 43.5391C72.4297 42.2891 73.8516 41.6641 75.5859 41.6641C77.3203 41.6641 78.7031 42.2812 79.7344 43.5156C80.7812 44.75 81.3047 46.3281 81.3047 48.25C81.3047 48.5 81.2891 48.8438 81.2578 49.2812H71.8828C71.8828 50.4688 72.2188 51.4922 72.8906 52.3516C73.5781 53.1953 74.5156 53.6172 75.7031 53.6172C77.2969 53.6172 78.4609 52.9297 79.1953 51.5547L81.0469 52.1406C80.6406 53.0938 79.9766 53.8828 79.0547 54.5078C78.1484 55.1172 77.0234 55.4219 75.6797 55.4219C73.8828 55.4219 72.4297 54.7891 71.3203 53.5234C70.2109 52.2422 69.6562 50.5547 69.6562 48.4609ZM71.9297 47.6641H79.0781C79.0781 46.4922 78.7656 45.5 78.1406 44.6875C77.5156 43.875 76.6641 43.4688 75.5859 43.4688C74.4922 43.4688 73.6172 43.8906 72.9609 44.7344C72.3047 45.5625 71.9609 46.5391 71.9297 47.6641ZM82.5234 53.4297C83.1484 53.5234 83.5938 53.5703 83.8594 53.5703C84.25 53.5703 84.5938 53.4453 84.8906 53.1953C85.2031 52.9297 85.4453 52.6172 85.6172 52.2578C85.8047 51.8984 85.9688 51.3984 86.1094 50.7578C86.2656 50.1172 86.375 49.5469 86.4375 49.0469C86.5 48.5312 86.5781 47.8672 86.6719 47.0547L87.1875 42.0859H95.0859V55H92.8828V43.9375H89.1328L88.8047 47.2891C88.5078 50.1797 88.0156 52.2578 87.3281 53.5234C86.6562 54.7891 85.5859 55.4219 84.1172 55.4219C84.0391 55.4219 83.5078 55.3828 82.5234 55.3047V53.4297ZM100.406 45.8828C100.406 46.5234 100.609 47.0234 101.016 47.3828C101.438 47.7422 102.039 47.9219 102.82 47.9219H106.125V43.9375H102.914C102.086 43.9375 101.461 44.125 101.039 44.5C100.617 44.8594 100.406 45.3203 100.406 45.8828ZM97.3125 55C98.0781 53.6719 98.5938 52.4219 98.8594 51.25C99.0156 50.625 99.1797 50.1406 99.3516 49.7969C99.5391 49.4531 99.8516 49.1484 100.289 48.8828C98.8984 48.2578 98.2031 47.2109 98.2031 45.7422C98.2031 44.6953 98.5781 43.8281 99.3281 43.1406C100.094 42.4375 101.18 42.0859 102.586 42.0859H108.328V55H106.125V49.7734H102.844C102.266 49.7734 101.836 49.9453 101.555 50.2891C101.289 50.6172 101.094 51.0781 100.969 51.6719C100.625 53.1094 100.195 54.2188 99.6797 55H97.3125ZM111.047 48.5547C111.047 44.4141 112.039 41.3359 114.023 39.3203C115.82 37.4922 118.414 36.4766 121.805 36.2734L122.18 38.125C118.242 38.2656 115.633 39.7734 114.352 42.6484L114.094 43.2578C114.391 42.7891 114.812 42.4062 115.359 42.1094C115.906 41.8125 116.508 41.6641 117.164 41.6641C118.867 41.6641 120.227 42.3281 121.242 43.6562C122.258 44.9844 122.766 46.6172 122.766 48.5547C122.766 49.3672 122.656 50.1562 122.438 50.9219C122.234 51.6875 121.914 52.4219 121.477 53.125C121.055 53.8125 120.445 54.3672 119.648 54.7891C118.867 55.2109 117.961 55.4219 116.93 55.4219C115.898 55.4219 114.984 55.2188 114.188 54.8125C113.406 54.3906 112.789 53.8359 112.336 53.1484C111.898 52.4609 111.57 51.7344 111.352 50.9688C111.148 50.1875 111.047 49.3828 111.047 48.5547ZM113.297 48.5547C113.297 50.1328 113.648 51.3672 114.352 52.2578C115.055 53.1328 115.914 53.5703 116.93 53.5703C117.93 53.5703 118.781 53.1328 119.484 52.2578C120.188 51.3672 120.539 50.1328 120.539 48.5547C120.539 46.9453 120.188 45.7031 119.484 44.8281C118.781 43.9531 117.93 43.5156 116.93 43.5156C115.93 43.5156 115.07 43.9531 114.352 44.8281C113.648 45.6875 113.297 46.9297 113.297 48.5547ZM125.508 55V42.0859H127.711V48.4375C127.711 49.3594 127.664 50.4609 127.57 51.7422H127.664L128.906 49.75L133.875 42.0859H136.172V55H133.992V48.6016C133.992 47.3672 134.039 46.2812 134.133 45.3438H134.086L133.008 47.125L127.828 55H125.508ZM139.734 55V42.0859H141.938V47.4297H148.078V42.0859H150.258V55H148.078V49.2812H141.938V55H139.734ZM153 48.5547C153 46.4922 153.531 44.8281 154.594 43.5625C155.656 42.2969 157.07 41.6641 158.836 41.6641C160.039 41.6641 161.055 42.0156 161.883 42.7188C162.727 43.4219 163.281 44.2422 163.547 45.1797L161.672 45.7188C161.453 45.1094 161.094 44.5938 160.594 44.1719C160.094 43.7344 159.516 43.5156 158.859 43.5156C157.75 43.5156 156.867 43.9922 156.211 44.9453C155.57 45.8984 155.25 47.1016 155.25 48.5547C155.25 50.1016 155.586 51.3281 156.258 52.2344C156.945 53.125 157.812 53.5703 158.859 53.5703C159.578 53.5703 160.219 53.3359 160.781 52.8672C161.359 52.3828 161.766 51.8281 162 51.2031L163.875 51.7656C163.562 52.75 162.945 53.6094 162.023 54.3438C161.117 55.0625 160.055 55.4219 158.836 55.4219C157.102 55.4219 155.695 54.8047 154.617 53.5703C153.539 52.3203 153 50.6484 153 48.5547ZM166.172 55V42.0859H168.375V47.4766L174.047 42.0859H176.906L170.578 48.0859L177.07 55H174.398L169.172 49.4688L168.375 50.2422V55H166.172ZM178.008 59.0312L180.047 51.9297H182.93L179.812 59.0312H178.008ZM191.391 42.0859H193.875L196.383 49.3281C196.836 50.6406 197.172 51.6953 197.391 52.4922H197.484C197.938 50.9922 198.258 49.9375 198.445 49.3281L200.812 42.0859H203.273L197.789 56.9922C197.32 58.2891 196.742 59.1953 196.055 59.7109C195.383 60.2422 194.555 60.5078 193.57 60.5078H192.797V58.6797H193.219C193.859 58.6797 194.391 58.5156 194.812 58.1875C195.234 57.8594 195.594 57.2734 195.891 56.4297L196.359 55L191.391 42.0859ZM203.742 53.4297C204.367 53.5234 204.812 53.5703 205.078 53.5703C205.469 53.5703 205.812 53.4453 206.109 53.1953C206.422 52.9297 206.664 52.6172 206.836 52.2578C207.023 51.8984 207.188 51.3984 207.328 50.7578C207.484 50.1172 207.594 49.5469 207.656 49.0469C207.719 48.5312 207.797 47.8672 207.891 47.0547L208.406 42.0859H216.305V55H214.102V43.9375H210.352L210.023 47.2891C209.727 50.1797 209.234 52.2578 208.547 53.5234C207.875 54.7891 206.805 55.4219 205.336 55.4219C205.258 55.4219 204.727 55.3828 203.742 55.3047V53.4297ZM220.688 55V51.9297H223.969V55H220.688ZM27.2812 69.0625V67.1172H40.2422V69.0625H34.8984V85H32.625V69.0625H27.2812ZM43.5938 81.5781C43.5938 82.1406 43.8281 82.6172 44.2969 83.0078C44.7656 83.3984 45.3984 83.5938 46.1953 83.5938C47.2578 83.5938 48.1562 83.25 48.8906 82.5625C49.6406 81.875 50.0156 80.9922 50.0156 79.9141V78.3203C49.3906 78.4766 48.375 78.6641 46.9688 78.8828C44.7188 79.2578 43.5938 80.1562 43.5938 81.5781ZM41.3906 81.7656C41.3906 79.3438 43.2266 77.8516 46.8984 77.2891C48.4922 77.0391 49.5312 76.8359 50.0156 76.6797V75.9531C50.0156 75.2031 49.75 74.5938 49.2188 74.125C48.7031 73.6562 47.9688 73.4219 47.0156 73.4219C46.2656 73.4219 45.5391 73.6016 44.8359 73.9609C44.1484 74.3047 43.5703 74.7656 43.1016 75.3438L41.7188 74.1719C42.3594 73.4062 43.1406 72.7969 44.0625 72.3438C44.9844 71.8906 45.9531 71.6641 46.9688 71.6641C50.4531 71.6641 52.1953 73.3828 52.1953 76.8203V85H50.0859V83.0547C49.8203 83.6953 49.3125 84.25 48.5625 84.7188C47.8125 85.1875 46.9297 85.4219 45.9141 85.4219C44.4922 85.4219 43.3828 85.0859 42.5859 84.4141C41.7891 83.7266 41.3906 82.8438 41.3906 81.7656ZM55.6172 85V72.0859H65.9062V85H63.7266V73.9375H57.8203V85H55.6172ZM70.8281 81.5781C70.8281 82.1406 71.0625 82.6172 71.5312 83.0078C72 83.3984 72.6328 83.5938 73.4297 83.5938C74.4922 83.5938 75.3906 83.25 76.125 82.5625C76.875 81.875 77.25 80.9922 77.25 79.9141V78.3203C76.625 78.4766 75.6094 78.6641 74.2031 78.8828C71.9531 79.2578 70.8281 80.1562 70.8281 81.5781ZM68.625 81.7656C68.625 79.3438 70.4609 77.8516 74.1328 77.2891C75.7266 77.0391 76.7656 76.8359 77.25 76.6797V75.9531C77.25 75.2031 76.9844 74.5938 76.4531 74.125C75.9375 73.6562 75.2031 73.4219 74.25 73.4219C73.5 73.4219 72.7734 73.6016 72.0703 73.9609C71.3828 74.3047 70.8047 74.7656 70.3359 75.3438L68.9531 74.1719C69.5938 73.4062 70.375 72.7969 71.2969 72.3438C72.2188 71.8906 73.1875 71.6641 74.2031 71.6641C77.6875 71.6641 79.4297 73.3828 79.4297 76.8203V85H77.3203V83.0547C77.0547 83.6953 76.5469 84.25 75.7969 84.7188C75.0469 85.1875 74.1641 85.4219 73.1484 85.4219C71.7266 85.4219 70.6172 85.0859 69.8203 84.4141C69.0234 83.7266 68.625 82.8438 68.625 81.7656ZM81.375 83.4297C82 83.5234 82.4453 83.5703 82.7109 83.5703C83.1016 83.5703 83.4453 83.4453 83.7422 83.1953C84.0547 82.9297 84.2969 82.6172 84.4688 82.2578C84.6562 81.8984 84.8203 81.3984 84.9609 80.7578C85.1172 80.1172 85.2266 79.5469 85.2891 79.0469C85.3516 78.5312 85.4297 77.8672 85.5234 77.0547L86.0391 72.0859H93.9375V85H91.7344V73.9375H87.9844L87.6562 77.2891C87.3594 80.1797 86.8672 82.2578 86.1797 83.5234C85.5078 84.7891 84.4375 85.4219 82.9688 85.4219C82.8906 85.4219 82.3594 85.3828 81.375 85.3047V83.4297ZM97.5 85V72.0859H99.7031V77.4766L105.375 72.0859H108.234L101.906 78.0859L108.398 85H105.727L100.5 79.4688L99.7031 80.2422V85H97.5ZM109.992 85V72.0859H112.195V78.4375C112.195 79.3594 112.148 80.4609 112.055 81.7422H112.148L113.391 79.75L118.359 72.0859H120.656V85H118.477V78.6016C118.477 77.3672 118.523 76.2812 118.617 75.3438H118.57L117.492 77.125L112.312 85H109.992ZM124.219 85V72.0859H126.422V77.4297H132.562V72.0859H134.742V85H132.562V79.2812H126.422V85H124.219ZM139.664 81.5781C139.664 82.1406 139.898 82.6172 140.367 83.0078C140.836 83.3984 141.469 83.5938 142.266 83.5938C143.328 83.5938 144.227 83.25 144.961 82.5625C145.711 81.875 146.086 80.9922 146.086 79.9141V78.3203C145.461 78.4766 144.445 78.6641 143.039 78.8828C140.789 79.2578 139.664 80.1562 139.664 81.5781ZM137.461 81.7656C137.461 79.3438 139.297 77.8516 142.969 77.2891C144.562 77.0391 145.602 76.8359 146.086 76.6797V75.9531C146.086 75.2031 145.82 74.5938 145.289 74.125C144.773 73.6562 144.039 73.4219 143.086 73.4219C142.336 73.4219 141.609 73.6016 140.906 73.9609C140.219 74.3047 139.641 74.7656 139.172 75.3438L137.789 74.1719C138.43 73.4062 139.211 72.7969 140.133 72.3438C141.055 71.8906 142.023 71.6641 143.039 71.6641C146.523 71.6641 148.266 73.3828 148.266 76.8203V85H146.156V83.0547C145.891 83.6953 145.383 84.25 144.633 84.7188C143.883 85.1875 143 85.4219 141.984 85.4219C140.562 85.4219 139.453 85.0859 138.656 84.4141C137.859 83.7266 137.461 82.8438 137.461 81.7656ZM151.031 89.0312L153.07 81.9297H155.953L152.836 89.0312H151.031ZM164.766 83.125H166.055C168.352 80.125 169.508 76.4453 169.523 72.0859H177.469V83.125H179.414V89.9219H177.164V85H166.992V89.9219H164.766V83.125ZM168.68 83.125H175.219V73.9375H171.703C171.656 75.2969 171.383 76.8203 170.883 78.5078C170.383 80.1797 169.648 81.7188 168.68 83.125ZM182.531 85V81.9297H185.812V85H182.531ZM197.812 79.3984C197.812 80.6172 198.125 81.6172 198.75 82.3984C199.391 83.1641 200.211 83.5469 201.211 83.5469C202.18 83.5469 202.977 83.1719 203.602 82.4219C204.227 81.6562 204.539 80.6484 204.539 79.3984C204.539 78.1172 204.219 77.1016 203.578 76.3516C202.953 75.5859 202.148 75.2031 201.164 75.2031C200.211 75.2031 199.414 75.6016 198.773 76.3984C198.133 77.1953 197.812 78.1953 197.812 79.3984ZM195.398 76.9844C195.398 75.6562 195.516 74.4062 195.75 73.2344C195.984 72.0469 196.344 70.9531 196.828 69.9531C197.312 68.9531 197.977 68.1641 198.82 67.5859C199.68 66.9922 200.672 66.6953 201.797 66.6953C203.984 66.6953 205.609 67.8203 206.672 70.0703L204.867 70.7031C204.055 69.2656 203.031 68.5469 201.797 68.5469C199.781 68.5469 198.508 70.2422 197.977 73.6328C197.82 74.4922 197.727 75.2031 197.695 75.7656C198.008 75.0469 198.492 74.4609 199.148 74.0078C199.82 73.5547 200.602 73.3281 201.492 73.3281C203.07 73.3281 204.352 73.9062 205.336 75.0625C206.336 76.2031 206.836 77.6406 206.836 79.375C206.836 81.1094 206.344 82.5547 205.359 83.7109C204.375 84.8516 203.023 85.4219 201.305 85.4219C199.492 85.4219 198.078 84.7891 197.062 83.5234C195.953 82.1953 195.398 80.0156 195.398 76.9844ZM211.383 79.3984C211.383 80.6172 211.695 81.6172 212.32 82.3984C212.961 83.1641 213.781 83.5469 214.781 83.5469C215.75 83.5469 216.547 83.1719 217.172 82.4219C217.797 81.6562 218.109 80.6484 218.109 79.3984C218.109 78.1172 217.789 77.1016 217.148 76.3516C216.523 75.5859 215.719 75.2031 214.734 75.2031C213.781 75.2031 212.984 75.6016 212.344 76.3984C211.703 77.1953 211.383 78.1953 211.383 79.3984ZM208.969 76.9844C208.969 75.6562 209.086 74.4062 209.32 73.2344C209.555 72.0469 209.914 70.9531 210.398 69.9531C210.883 68.9531 211.547 68.1641 212.391 67.5859C213.25 66.9922 214.242 66.6953 215.367 66.6953C217.555 66.6953 219.18 67.8203 220.242 70.0703L218.438 70.7031C217.625 69.2656 216.602 68.5469 215.367 68.5469C213.352 68.5469 212.078 70.2422 211.547 73.6328C211.391 74.4922 211.297 75.2031 211.266 75.7656C211.578 75.0469 212.062 74.4609 212.719 74.0078C213.391 73.5547 214.172 73.3281 215.062 73.3281C216.641 73.3281 217.922 73.9062 218.906 75.0625C219.906 76.2031 220.406 77.6406 220.406 79.375C220.406 81.1094 219.914 82.5547 218.93 83.7109C217.945 84.8516 216.594 85.4219 214.875 85.4219C213.062 85.4219 211.648 84.7891 210.633 83.5234C209.523 82.1953 208.969 80.0156 208.969 76.9844ZM222.516 89.0312L224.555 81.9297H227.438L224.32 89.0312H222.516ZM248.438 77.9453V74.875H251.719V77.9453H248.438ZM240.352 77.9453V74.875H243.633V77.9453H240.352ZM232.242 77.9453V74.875H235.547V77.9453H232.242Z" fill="#252D39"/>
<rect x="48" y="136" width="240" height="56" rx="4" fill="white"/>
<path d="M114.32 153.117H116.594V163.711C116.594 165.117 116.555 166.359 116.477 167.438H116.57L117.906 165.023L124.797 153.117H127.234V171H124.961V160.43C124.961 159.055 125.016 157.82 125.125 156.727H125.008L123.695 159.094L116.758 171H114.32V153.117ZM129.977 168.68L131.688 167.883C132 168.336 132.445 168.734 133.023 169.078C133.617 169.406 134.242 169.57 134.898 169.57C135.727 169.57 136.438 169.383 137.031 169.008C137.625 168.617 137.922 168.086 137.922 167.414C137.922 166.773 137.648 166.227 137.102 165.773C136.57 165.32 135.719 165.094 134.547 165.094H133.352V163.453H134.547C135.516 163.453 136.234 163.266 136.703 162.891C137.188 162.5 137.43 162.008 137.43 161.414C137.43 160.836 137.219 160.375 136.797 160.031C136.391 159.688 135.781 159.516 134.969 159.516C134.391 159.516 133.852 159.672 133.352 159.984C132.852 160.297 132.445 160.703 132.133 161.203L130.328 160.43C131.375 158.586 132.93 157.664 134.992 157.664C136.43 157.664 137.562 158 138.391 158.672C139.234 159.344 139.656 160.211 139.656 161.273C139.656 162.617 138.977 163.578 137.617 164.156H137.641C138.344 164.391 138.938 164.789 139.422 165.352C139.906 165.914 140.148 166.609 140.148 167.438C140.148 168.688 139.656 169.664 138.672 170.367C137.703 171.07 136.461 171.422 134.945 171.422C133.852 171.422 132.867 171.172 131.992 170.672C131.117 170.156 130.445 169.492 129.977 168.68ZM142.961 171V158.086H145.305L148.117 164.156C148.586 165.203 149.062 166.297 149.547 167.438H149.594C150.438 165.5 150.914 164.406 151.023 164.156L153.812 158.086H156.156V171H154.094V164.648C154.094 164.102 154.125 163.156 154.188 161.812H154.164L153.438 163.43L150.344 170.133H148.797L145.727 163.477L144.977 161.836H144.953C145.016 162.57 145.047 163.508 145.047 164.648V171H142.961ZM158.898 164.461C158.898 162.43 159.453 160.789 160.562 159.539C161.672 158.289 163.094 157.664 164.828 157.664C166.562 157.664 167.945 158.281 168.977 159.516C170.023 160.75 170.547 162.328 170.547 164.25C170.547 164.5 170.531 164.844 170.5 165.281H161.125C161.125 166.469 161.461 167.492 162.133 168.352C162.82 169.195 163.758 169.617 164.945 169.617C166.539 169.617 167.703 168.93 168.438 167.555L170.289 168.141C169.883 169.094 169.219 169.883 168.297 170.508C167.391 171.117 166.266 171.422 164.922 171.422C163.125 171.422 161.672 170.789 160.562 169.523C159.453 168.242 158.898 166.555 158.898 164.461ZM161.172 163.664H168.32C168.32 162.492 168.008 161.5 167.383 160.688C166.758 159.875 165.906 159.469 164.828 159.469C163.734 159.469 162.859 159.891 162.203 160.734C161.547 161.562 161.203 162.539 161.172 163.664ZM173.242 171V158.086H175.445V163.43H181.586V158.086H183.766V171H181.586V165.281H175.445V171H173.242ZM187.328 171V158.086H189.531V164.438C189.531 165.359 189.484 166.461 189.391 167.742H189.484L190.727 165.75L195.695 158.086H197.992V171H195.812V164.602C195.812 163.367 195.859 162.281 195.953 161.344H195.906L194.828 163.125L189.648 171H187.328ZM200.242 159.938V158.086H210.695V159.938H206.57V171H204.367V159.938H200.242ZM212.898 171V158.086H215.125V163.242H217.914C219.477 163.242 220.641 163.586 221.406 164.273C222.188 164.945 222.578 165.906 222.578 167.156C222.578 168.281 222.195 169.203 221.43 169.922C220.68 170.641 219.586 171 218.148 171H212.898ZM215.125 169.172H217.984C219.562 169.172 220.352 168.492 220.352 167.133C220.352 165.773 219.547 165.094 217.938 165.094H215.125V169.172Z" fill="#252D39"/>
<g clip-path="url(#clip0_557_1413)">
<path d="M309.429 24.5714L294.572 39.4286" stroke="#252D39" stroke-linecap="round" stroke-linejoin="round"/>
<path d="M294.572 24.5714L309.429 39.4286" stroke="#252D39" stroke-linecap="round" stroke-linejoin="round"/>
</g>
<defs>
<clipPath id="clip0_557_1413">
<rect width="16" height="16" fill="white" transform="translate(294 24)"/>
</clipPath>
</defs>
</svg>
