<svg width="328" height="208" viewBox="0 0 328 208" fill="none" xmlns="http://www.w3.org/2000/svg">
<rect x="0.5" y="0.5" width="335" height="207" stroke="#AA967B"/>
<path d="M28.7812 55V42.0859H36.9141V43.9375H30.9844V55H28.7812ZM39.9609 55V51.9297H43.2422V55H39.9609ZM53.5781 43.2812V37.1172H55.8516V43.375C55.8516 44.4375 56.1797 45.2656 56.8359 45.8594C57.4922 46.4375 58.3906 46.7266 59.5312 46.7266C60.6094 46.7266 61.6406 46.3359 62.625 45.5547C63.6094 44.7578 64.1016 43.8281 64.1016 42.7656V37.1172H66.3984V55H64.1016V46.4219H64.0547C63.6172 47 62.9688 47.5156 62.1094 47.9688C61.2656 48.4062 60.2969 48.625 59.2031 48.625C57.5156 48.625 56.1562 48.1797 55.125 47.2891C54.0938 46.3828 53.5781 45.0469 53.5781 43.2812ZM69.6562 48.4609C69.6562 46.4297 70.2109 44.7891 71.3203 43.5391C72.4297 42.2891 73.8516 41.6641 75.5859 41.6641C77.3203 41.6641 78.7031 42.2812 79.7344 43.5156C80.7812 44.75 81.3047 46.3281 81.3047 48.25C81.3047 48.5 81.2891 48.8438 81.2578 49.2812H71.8828C71.8828 50.4688 72.2188 51.4922 72.8906 52.3516C73.5781 53.1953 74.5156 53.6172 75.7031 53.6172C77.2969 53.6172 78.4609 52.9297 79.1953 51.5547L81.0469 52.1406C80.6406 53.0938 79.9766 53.8828 79.0547 54.5078C78.1484 55.1172 77.0234 55.4219 75.6797 55.4219C73.8828 55.4219 72.4297 54.7891 71.3203 53.5234C70.2109 52.2422 69.6562 50.5547 69.6562 48.4609ZM71.9297 47.6641H79.0781C79.0781 46.4922 78.7656 45.5 78.1406 44.6875C77.5156 43.875 76.6641 43.4688 75.5859 43.4688C74.4922 43.4688 73.6172 43.8906 72.9609 44.7344C72.3047 45.5625 71.9609 46.5391 71.9297 47.6641ZM82.5234 53.4297C83.1484 53.5234 83.5938 53.5703 83.8594 53.5703C84.25 53.5703 84.5938 53.4453 84.8906 53.1953C85.2031 52.9297 85.4453 52.6172 85.6172 52.2578C85.8047 51.8984 85.9688 51.3984 86.1094 50.7578C86.2656 50.1172 86.375 49.5469 86.4375 49.0469C86.5 48.5312 86.5781 47.8672 86.6719 47.0547L87.1875 42.0859H95.0859V55H92.8828V43.9375H89.1328L88.8047 47.2891C88.5078 50.1797 88.0156 52.2578 87.3281 53.5234C86.6562 54.7891 85.5859 55.4219 84.1172 55.4219C84.0391 55.4219 83.5078 55.3828 82.5234 55.3047V53.4297ZM100.406 45.8828C100.406 46.5234 100.609 47.0234 101.016 47.3828C101.438 47.7422 102.039 47.9219 102.82 47.9219H106.125V43.9375H102.914C102.086 43.9375 101.461 44.125 101.039 44.5C100.617 44.8594 100.406 45.3203 100.406 45.8828ZM97.3125 55C98.0781 53.6719 98.5938 52.4219 98.8594 51.25C99.0156 50.625 99.1797 50.1406 99.3516 49.7969C99.5391 49.4531 99.8516 49.1484 100.289 48.8828C98.8984 48.2578 98.2031 47.2109 98.2031 45.7422C98.2031 44.6953 98.5781 43.8281 99.3281 43.1406C100.094 42.4375 101.18 42.0859 102.586 42.0859H108.328V55H106.125V49.7734H102.844C102.266 49.7734 101.836 49.9453 101.555 50.2891C101.289 50.6172 101.094 51.0781 100.969 51.6719C100.625 53.1094 100.195 54.2188 99.6797 55H97.3125ZM111.047 48.5547C111.047 44.4141 112.039 41.3359 114.023 39.3203C115.82 37.4922 118.414 36.4766 121.805 36.2734L122.18 38.125C118.242 38.2656 115.633 39.7734 114.352 42.6484L114.094 43.2578C114.391 42.7891 114.812 42.4062 115.359 42.1094C115.906 41.8125 116.508 41.6641 117.164 41.6641C118.867 41.6641 120.227 42.3281 121.242 43.6562C122.258 44.9844 122.766 46.6172 122.766 48.5547C122.766 49.3672 122.656 50.1562 122.438 50.9219C122.234 51.6875 121.914 52.4219 121.477 53.125C121.055 53.8125 120.445 54.3672 119.648 54.7891C118.867 55.2109 117.961 55.4219 116.93 55.4219C115.898 55.4219 114.984 55.2188 114.188 54.8125C113.406 54.3906 112.789 53.8359 112.336 53.1484C111.898 52.4609 111.57 51.7344 111.352 50.9688C111.148 50.1875 111.047 49.3828 111.047 48.5547ZM113.297 48.5547C113.297 50.1328 113.648 51.3672 114.352 52.2578C115.055 53.1328 115.914 53.5703 116.93 53.5703C117.93 53.5703 118.781 53.1328 119.484 52.2578C120.188 51.3672 120.539 50.1328 120.539 48.5547C120.539 46.9453 120.188 45.7031 119.484 44.8281C118.781 43.9531 117.93 43.5156 116.93 43.5156C115.93 43.5156 115.07 43.9531 114.352 44.8281C113.648 45.6875 113.297 46.9297 113.297 48.5547ZM125.508 55V42.0859H127.711V48.4375C127.711 49.3594 127.664 50.4609 127.57 51.7422H127.664L128.906 49.75L133.875 42.0859H136.172V55H133.992V48.6016C133.992 47.3672 134.039 46.2812 134.133 45.3438H134.086L133.008 47.125L127.828 55H125.508ZM139.734 55V42.0859H141.938V47.4297H148.078V42.0859H150.258V55H148.078V49.2812H141.938V55H139.734ZM153 48.5547C153 46.4922 153.531 44.8281 154.594 43.5625C155.656 42.2969 157.07 41.6641 158.836 41.6641C160.039 41.6641 161.055 42.0156 161.883 42.7188C162.727 43.4219 163.281 44.2422 163.547 45.1797L161.672 45.7188C161.453 45.1094 161.094 44.5938 160.594 44.1719C160.094 43.7344 159.516 43.5156 158.859 43.5156C157.75 43.5156 156.867 43.9922 156.211 44.9453C155.57 45.8984 155.25 47.1016 155.25 48.5547C155.25 50.1016 155.586 51.3281 156.258 52.2344C156.945 53.125 157.812 53.5703 158.859 53.5703C159.578 53.5703 160.219 53.3359 160.781 52.8672C161.359 52.3828 161.766 51.8281 162 51.2031L163.875 51.7656C163.562 52.75 162.945 53.6094 162.023 54.3438C161.117 55.0625 160.055 55.4219 158.836 55.4219C157.102 55.4219 155.695 54.8047 154.617 53.5703C153.539 52.3203 153 50.6484 153 48.5547ZM166.172 55V42.0859H168.375V47.4766L174.047 42.0859H176.906L170.578 48.0859L177.07 55H174.398L169.172 49.4688L168.375 50.2422V55H166.172ZM178.008 59.0312L180.047 51.9297H182.93L179.812 59.0312H178.008ZM191.391 42.0859H193.875L196.383 49.3281C196.836 50.6406 197.172 51.6953 197.391 52.4922H197.484C197.938 50.9922 198.258 49.9375 198.445 49.3281L200.812 42.0859H203.273L197.789 56.9922C197.32 58.2891 196.742 59.1953 196.055 59.7109C195.383 60.2422 194.555 60.5078 193.57 60.5078H192.797V58.6797H193.219C193.859 58.6797 194.391 58.5156 194.812 58.1875C195.234 57.8594 195.594 57.2734 195.891 56.4297L196.359 55L191.391 42.0859ZM203.742 53.4297C204.367 53.5234 204.812 53.5703 205.078 53.5703C205.469 53.5703 205.812 53.4453 206.109 53.1953C206.422 52.9297 206.664 52.6172 206.836 52.2578C207.023 51.8984 207.188 51.3984 207.328 50.7578C207.484 50.1172 207.594 49.5469 207.656 49.0469C207.719 48.5312 207.797 47.8672 207.891 47.0547L208.406 42.0859H216.305V55H214.102V43.9375H210.352L210.023 47.2891C209.727 50.1797 209.234 52.2578 208.547 53.5234C207.875 54.7891 206.805 55.4219 205.336 55.4219C205.258 55.4219 204.727 55.3828 203.742 55.3047V53.4297ZM220.688 55V51.9297H223.969V55H220.688ZM29.3203 85V67.1172H31.5938V76.0938H31.6406L39.3516 67.1172H42.3281L35.4844 74.875L42.6328 85H39.8203L34.0312 76.5156L31.5938 79.2812V85H29.3203ZM45.75 81.5781C45.75 82.1406 45.9844 82.6172 46.4531 83.0078C46.9219 83.3984 47.5547 83.5938 48.3516 83.5938C49.4141 83.5938 50.3125 83.25 51.0469 82.5625C51.7969 81.875 52.1719 80.9922 52.1719 79.9141V78.3203C51.5469 78.4766 50.5312 78.6641 49.125 78.8828C46.875 79.2578 45.75 80.1562 45.75 81.5781ZM43.5469 81.7656C43.5469 79.3438 45.3828 77.8516 49.0547 77.2891C50.6484 77.0391 51.6875 76.8359 52.1719 76.6797V75.9531C52.1719 75.2031 51.9062 74.5938 51.375 74.125C50.8594 73.6562 50.125 73.4219 49.1719 73.4219C48.4219 73.4219 47.6953 73.6016 46.9922 73.9609C46.3047 74.3047 45.7266 74.7656 45.2578 75.3438L43.875 74.1719C44.5156 73.4062 45.2969 72.7969 46.2188 72.3438C47.1406 71.8906 48.1094 71.6641 49.125 71.6641C52.6094 71.6641 54.3516 73.3828 54.3516 76.8203V85H52.2422V83.0547C51.9766 83.6953 51.4688 84.25 50.7188 84.7188C49.9688 85.1875 49.0859 85.4219 48.0703 85.4219C46.6484 85.4219 45.5391 85.0859 44.7422 84.4141C43.9453 83.7266 43.5469 82.8438 43.5469 81.7656ZM57.7734 85V72.0859H68.0625V85H65.8828V73.9375H59.9766V85H57.7734ZM72.9844 81.5781C72.9844 82.1406 73.2188 82.6172 73.6875 83.0078C74.1562 83.3984 74.7891 83.5938 75.5859 83.5938C76.6484 83.5938 77.5469 83.25 78.2812 82.5625C79.0312 81.875 79.4062 80.9922 79.4062 79.9141V78.3203C78.7812 78.4766 77.7656 78.6641 76.3594 78.8828C74.1094 79.2578 72.9844 80.1562 72.9844 81.5781ZM70.7812 81.7656C70.7812 79.3438 72.6172 77.8516 76.2891 77.2891C77.8828 77.0391 78.9219 76.8359 79.4062 76.6797V75.9531C79.4062 75.2031 79.1406 74.5938 78.6094 74.125C78.0938 73.6562 77.3594 73.4219 76.4062 73.4219C75.6562 73.4219 74.9297 73.6016 74.2266 73.9609C73.5391 74.3047 72.9609 74.7656 72.4922 75.3438L71.1094 74.1719C71.75 73.4062 72.5312 72.7969 73.4531 72.3438C74.375 71.8906 75.3438 71.6641 76.3594 71.6641C79.8438 71.6641 81.5859 73.3828 81.5859 76.8203V85H79.4766V83.0547C79.2109 83.6953 78.7031 84.25 77.9531 84.7188C77.2031 85.1875 76.3203 85.4219 75.3047 85.4219C73.8828 85.4219 72.7734 85.0859 71.9766 84.4141C71.1797 83.7266 70.7812 82.8438 70.7812 81.7656ZM83.5312 83.4297C84.1562 83.5234 84.6016 83.5703 84.8672 83.5703C85.2578 83.5703 85.6016 83.4453 85.8984 83.1953C86.2109 82.9297 86.4531 82.6172 86.625 82.2578C86.8125 81.8984 86.9766 81.3984 87.1172 80.7578C87.2734 80.1172 87.3828 79.5469 87.4453 79.0469C87.5078 78.5312 87.5859 77.8672 87.6797 77.0547L88.1953 72.0859H96.0938V85H93.8906V73.9375H90.1406L89.8125 77.2891C89.5156 80.1797 89.0234 82.2578 88.3359 83.5234C87.6641 84.7891 86.5938 85.4219 85.125 85.4219C85.0469 85.4219 84.5156 85.3828 83.5312 85.3047V83.4297ZM99.6562 85V72.0859H101.859V77.4766L107.531 72.0859H110.391L104.062 78.0859L110.555 85H107.883L102.656 79.4688L101.859 80.2422V85H99.6562ZM112.148 85V72.0859H114.352V78.4375C114.352 79.3594 114.305 80.4609 114.211 81.7422H114.305L115.547 79.75L120.516 72.0859H122.812V85H120.633V78.6016C120.633 77.3672 120.68 76.2812 120.773 75.3438H120.727L119.648 77.125L114.469 85H112.148ZM126.375 85V72.0859H128.578V77.4297H134.719V72.0859H136.898V85H134.719V79.2812H128.578V85H126.375ZM141.82 81.5781C141.82 82.1406 142.055 82.6172 142.523 83.0078C142.992 83.3984 143.625 83.5938 144.422 83.5938C145.484 83.5938 146.383 83.25 147.117 82.5625C147.867 81.875 148.242 80.9922 148.242 79.9141V78.3203C147.617 78.4766 146.602 78.6641 145.195 78.8828C142.945 79.2578 141.82 80.1562 141.82 81.5781ZM139.617 81.7656C139.617 79.3438 141.453 77.8516 145.125 77.2891C146.719 77.0391 147.758 76.8359 148.242 76.6797V75.9531C148.242 75.2031 147.977 74.5938 147.445 74.125C146.93 73.6562 146.195 73.4219 145.242 73.4219C144.492 73.4219 143.766 73.6016 143.062 73.9609C142.375 74.3047 141.797 74.7656 141.328 75.3438L139.945 74.1719C140.586 73.4062 141.367 72.7969 142.289 72.3438C143.211 71.8906 144.18 71.6641 145.195 71.6641C148.68 71.6641 150.422 73.3828 150.422 76.8203V85H148.312V83.0547C148.047 83.6953 147.539 84.25 146.789 84.7188C146.039 85.1875 145.156 85.4219 144.141 85.4219C142.719 85.4219 141.609 85.0859 140.812 84.4141C140.016 83.7266 139.617 82.8438 139.617 81.7656ZM153.188 89.0312L155.227 81.9297H158.109L154.992 89.0312H153.188ZM166.922 83.125H168.211C170.508 80.125 171.664 76.4453 171.68 72.0859H179.625V83.125H181.57V89.9219H179.32V85H169.148V89.9219H166.922V83.125ZM170.836 83.125H177.375V73.9375H173.859C173.812 75.2969 173.539 76.8203 173.039 78.5078C172.539 80.1797 171.805 81.7188 170.836 83.125ZM184.688 85V81.9297H187.969V85H184.688ZM199.969 79.3984C199.969 80.6172 200.281 81.6172 200.906 82.3984C201.547 83.1641 202.367 83.5469 203.367 83.5469C204.336 83.5469 205.133 83.1719 205.758 82.4219C206.383 81.6562 206.695 80.6484 206.695 79.3984C206.695 78.1172 206.375 77.1016 205.734 76.3516C205.109 75.5859 204.305 75.2031 203.32 75.2031C202.367 75.2031 201.57 75.6016 200.93 76.3984C200.289 77.1953 199.969 78.1953 199.969 79.3984ZM197.555 76.9844C197.555 75.6562 197.672 74.4062 197.906 73.2344C198.141 72.0469 198.5 70.9531 198.984 69.9531C199.469 68.9531 200.133 68.1641 200.977 67.5859C201.836 66.9922 202.828 66.6953 203.953 66.6953C206.141 66.6953 207.766 67.8203 208.828 70.0703L207.023 70.7031C206.211 69.2656 205.188 68.5469 203.953 68.5469C201.938 68.5469 200.664 70.2422 200.133 73.6328C199.977 74.4922 199.883 75.2031 199.852 75.7656C200.164 75.0469 200.648 74.4609 201.305 74.0078C201.977 73.5547 202.758 73.3281 203.648 73.3281C205.227 73.3281 206.508 73.9062 207.492 75.0625C208.492 76.2031 208.992 77.6406 208.992 79.375C208.992 81.1094 208.5 82.5547 207.516 83.7109C206.531 84.8516 205.18 85.4219 203.461 85.4219C201.648 85.4219 200.234 84.7891 199.219 83.5234C198.109 82.1953 197.555 80.0156 197.555 76.9844ZM213.211 72.6953C213.211 73.9297 213.539 74.9297 214.195 75.6953C214.852 76.4609 215.633 76.8438 216.539 76.8438C217.492 76.8438 218.281 76.4609 218.906 75.6953C219.547 74.9141 219.867 73.9219 219.867 72.7188C219.867 71.5469 219.555 70.5625 218.93 69.7656C218.32 68.9531 217.523 68.5469 216.539 68.5469C215.586 68.5469 214.789 68.9375 214.148 69.7188C213.523 70.4844 213.211 71.4766 213.211 72.6953ZM211.008 81.9766L212.883 81.3438C213.195 81.9844 213.625 82.5156 214.172 82.9375C214.719 83.3438 215.336 83.5469 216.023 83.5469C216.742 83.5469 217.367 83.3516 217.898 82.9609C218.43 82.5703 218.836 82.0312 219.117 81.3438C219.414 80.6562 219.633 79.9141 219.773 79.1172C219.914 78.3047 219.992 77.4297 220.008 76.4922C219.711 77.0859 219.234 77.6016 218.578 78.0391C217.938 78.4766 217.156 78.6953 216.234 78.6953C214.781 78.6953 213.531 78.1562 212.484 77.0781C211.438 76 210.914 74.5469 210.914 72.7188C210.914 70.9531 211.445 69.5078 212.508 68.3828C213.586 67.2578 214.93 66.6953 216.539 66.6953C217.914 66.6953 219.07 67.1406 220.008 68.0312C220.961 68.9062 221.594 70.0469 221.906 71.4531C222.125 72.4219 222.234 73.6641 222.234 75.1797C222.234 78.3828 221.727 80.8906 220.711 82.7031C219.711 84.5156 218.141 85.4219 216 85.4219C214.812 85.4219 213.773 85.0781 212.883 84.3906C212.008 83.6875 211.383 82.8828 211.008 81.9766ZM224.672 89.0312L226.711 81.9297H229.594L226.477 89.0312H224.672ZM250.594 77.9453V74.875H253.875V77.9453H250.594ZM242.508 77.9453V74.875H245.789V77.9453H242.508ZM234.398 77.9453V74.875H237.703V77.9453H234.398Z" fill="#252D39"/>
<rect x="48" y="136" width="240" height="56" rx="4" fill="white"/>
<path d="M114.32 153.117H116.594V163.711C116.594 165.117 116.555 166.359 116.477 167.438H116.57L117.906 165.023L124.797 153.117H127.234V171H124.961V160.43C124.961 159.055 125.016 157.82 125.125 156.727H125.008L123.695 159.094L116.758 171H114.32V153.117ZM129.977 168.68L131.688 167.883C132 168.336 132.445 168.734 133.023 169.078C133.617 169.406 134.242 169.57 134.898 169.57C135.727 169.57 136.438 169.383 137.031 169.008C137.625 168.617 137.922 168.086 137.922 167.414C137.922 166.773 137.648 166.227 137.102 165.773C136.57 165.32 135.719 165.094 134.547 165.094H133.352V163.453H134.547C135.516 163.453 136.234 163.266 136.703 162.891C137.188 162.5 137.43 162.008 137.43 161.414C137.43 160.836 137.219 160.375 136.797 160.031C136.391 159.688 135.781 159.516 134.969 159.516C134.391 159.516 133.852 159.672 133.352 159.984C132.852 160.297 132.445 160.703 132.133 161.203L130.328 160.43C131.375 158.586 132.93 157.664 134.992 157.664C136.43 157.664 137.562 158 138.391 158.672C139.234 159.344 139.656 160.211 139.656 161.273C139.656 162.617 138.977 163.578 137.617 164.156H137.641C138.344 164.391 138.938 164.789 139.422 165.352C139.906 165.914 140.148 166.609 140.148 167.438C140.148 168.688 139.656 169.664 138.672 170.367C137.703 171.07 136.461 171.422 134.945 171.422C133.852 171.422 132.867 171.172 131.992 170.672C131.117 170.156 130.445 169.492 129.977 168.68ZM142.961 171V158.086H145.305L148.117 164.156C148.586 165.203 149.062 166.297 149.547 167.438H149.594C150.438 165.5 150.914 164.406 151.023 164.156L153.812 158.086H156.156V171H154.094V164.648C154.094 164.102 154.125 163.156 154.188 161.812H154.164L153.438 163.43L150.344 170.133H148.797L145.727 163.477L144.977 161.836H144.953C145.016 162.57 145.047 163.508 145.047 164.648V171H142.961ZM158.898 164.461C158.898 162.43 159.453 160.789 160.562 159.539C161.672 158.289 163.094 157.664 164.828 157.664C166.562 157.664 167.945 158.281 168.977 159.516C170.023 160.75 170.547 162.328 170.547 164.25C170.547 164.5 170.531 164.844 170.5 165.281H161.125C161.125 166.469 161.461 167.492 162.133 168.352C162.82 169.195 163.758 169.617 164.945 169.617C166.539 169.617 167.703 168.93 168.438 167.555L170.289 168.141C169.883 169.094 169.219 169.883 168.297 170.508C167.391 171.117 166.266 171.422 164.922 171.422C163.125 171.422 161.672 170.789 160.562 169.523C159.453 168.242 158.898 166.555 158.898 164.461ZM161.172 163.664H168.32C168.32 162.492 168.008 161.5 167.383 160.688C166.758 159.875 165.906 159.469 164.828 159.469C163.734 159.469 162.859 159.891 162.203 160.734C161.547 161.562 161.203 162.539 161.172 163.664ZM173.242 171V158.086H175.445V163.43H181.586V158.086H183.766V171H181.586V165.281H175.445V171H173.242ZM187.328 171V158.086H189.531V164.438C189.531 165.359 189.484 166.461 189.391 167.742H189.484L190.727 165.75L195.695 158.086H197.992V171H195.812V164.602C195.812 163.367 195.859 162.281 195.953 161.344H195.906L194.828 163.125L189.648 171H187.328ZM200.242 159.938V158.086H210.695V159.938H206.57V171H204.367V159.938H200.242ZM212.898 171V158.086H215.125V163.242H217.914C219.477 163.242 220.641 163.586 221.406 164.273C222.188 164.945 222.578 165.906 222.578 167.156C222.578 168.281 222.195 169.203 221.43 169.922C220.68 170.641 219.586 171 218.148 171H212.898ZM215.125 169.172H217.984C219.562 169.172 220.352 168.492 220.352 167.133C220.352 165.773 219.547 165.094 217.938 165.094H215.125V169.172Z" fill="#252D39"/>
<g clip-path="url(#clip0_557_1405)">
<path d="M319.143 16.8571L296.857 39.1428" stroke="#252D39" stroke-linecap="round" stroke-linejoin="round"/>
<path d="M296.857 16.8571L319.143 39.1428" stroke="#252D39" stroke-linecap="round" stroke-linejoin="round"/>
</g>
<defs>
<clipPath id="clip0_557_1405">
<rect width="24" height="24" fill="white" transform="translate(296 16)"/>
</clipPath>
</defs>
</svg>
