<svg width="256" height="88" viewBox="0 0 256 88" fill="none" xmlns="http://www.w3.org/2000/svg">
<rect width="256" height="88" rx="14.4249" fill="#AA967B"/>
<path d="M44.7991 19.4542C41.7514 20.6043 38.4736 25.0897 38.4736 28.0799C38.4736 29.6325 38.7037 29.9775 39.6237 29.9775C42.4414 29.9775 45.8342 27.1023 47.3868 23.537C48.997 19.5692 48.1344 18.1891 44.7991 19.4542Z" fill="white"/>
<path d="M27.4334 31.3582C20.1878 33.9459 16.8525 40.7889 18.4052 49.9322C19.6703 57.5228 25.5932 67.2985 29.6185 68.2761C30.4811 68.5061 32.3788 68.2761 34.1614 67.7011C37.9567 66.551 40.9469 66.551 44.0522 67.7011C48.8826 69.5987 52.4478 67.2985 56.5882 59.7654L58.6583 55.9126L55.8406 53.1524C50.6652 48.207 50.5502 41.824 55.5531 37.2237C57.4507 35.441 57.1057 34.5209 53.7705 32.5658C49.9752 30.3231 47.675 30.1506 42.7296 31.7032L38.4167 33.0833L34.5064 31.8182C32.8999 31.0202 30.1936 30.3806 27.4334 31.3582Z" fill="white"/>
<path d="M74.5469 36V24.0781H77.875C79.6146 24.0781 80.974 24.5885 81.9531 25.6094C82.9427 26.6302 83.4375 28.1094 83.4375 30.0469C83.4375 31.8594 82.9688 33.3073 82.0312 34.3906C81.0938 35.4635 79.6979 36 77.8438 36H74.5469ZM76.0625 34.7188H77.6406C78.9635 34.7188 80 34.349 80.75 33.6094C81.5 32.8594 81.875 31.6719 81.875 30.0469C81.875 26.9323 80.474 25.375 77.6719 25.375H76.0625V34.7188ZM86.2812 31.7031C86.2812 32.7552 86.5156 33.5781 86.9844 34.1719C87.4531 34.7552 88.026 35.0469 88.7031 35.0469C89.3698 35.0469 89.9375 34.7552 90.4062 34.1719C90.875 33.5781 91.1094 32.7552 91.1094 31.7031C91.1094 30.6302 90.875 29.8021 90.4062 29.2188C89.9375 28.6354 89.3698 28.3438 88.7031 28.3438C88.0365 28.3438 87.4635 28.6354 86.9844 29.2188C86.5156 29.7917 86.2812 30.6198 86.2812 31.7031ZM84.7812 31.7031C84.7812 30.401 85.1198 29.3125 85.7969 28.4375C86.474 27.5521 87.4427 27.1094 88.7031 27.1094C89.9427 27.1094 90.901 27.5521 91.5781 28.4375C92.2656 29.3125 92.6094 30.401 92.6094 31.7031C92.6094 32.2448 92.5365 32.7708 92.3906 33.2812C92.2552 33.7917 92.0417 34.2812 91.75 34.75C91.4688 35.2083 91.0625 35.5781 90.5312 35.8594C90 36.1406 89.3906 36.2812 88.7031 36.2812C88.0156 36.2812 87.4062 36.1458 86.875 35.875C86.3542 35.5938 85.9427 35.224 85.6406 34.7656C85.349 34.3073 85.1302 33.8229 84.9844 33.3125C84.849 32.7917 84.7812 32.2552 84.7812 31.7031ZM93.3594 27.3906H94.9688L96.1094 32.375C96.1615 32.6042 96.2344 32.9635 96.3281 33.4531C96.4219 33.9427 96.5 34.3333 96.5625 34.625H96.625C96.8646 33.5208 97.026 32.7708 97.1094 32.375L98.2812 27.3906H99.9375L101.125 32.4375C101.167 32.625 101.24 32.9635 101.344 33.4531C101.458 33.9323 101.547 34.3229 101.609 34.625H101.672C101.703 34.4583 101.771 34.1146 101.875 33.5938C101.979 33.0625 102.062 32.6562 102.125 32.375L103.25 27.3906H104.859L102.5 36H100.766L99.5938 31.1562C99.3542 30.0417 99.2031 29.3073 99.1406 28.9531H99.0781C98.901 29.8594 98.75 30.5938 98.625 31.1562L97.4688 36H95.7188L93.3594 27.3906ZM106.156 36V27.3906H107.594V28.7344H107.609C107.745 28.349 108.042 27.9844 108.5 27.6406C108.969 27.2865 109.542 27.1094 110.219 27.1094C111.042 27.1094 111.708 27.3646 112.219 27.875C112.74 28.3854 113 29.2396 113 30.4375V36H111.516V30.6719C111.516 29.1198 110.974 28.3438 109.891 28.3438C109.276 28.3438 108.745 28.599 108.297 29.1094C107.859 29.6094 107.641 30.2135 107.641 30.9219V36H106.156ZM115.453 36V23.6562H116.906V36H115.453ZM120.406 31.7031C120.406 32.7552 120.641 33.5781 121.109 34.1719C121.578 34.7552 122.151 35.0469 122.828 35.0469C123.495 35.0469 124.062 34.7552 124.531 34.1719C125 33.5781 125.234 32.7552 125.234 31.7031C125.234 30.6302 125 29.8021 124.531 29.2188C124.062 28.6354 123.495 28.3438 122.828 28.3438C122.161 28.3438 121.589 28.6354 121.109 29.2188C120.641 29.7917 120.406 30.6198 120.406 31.7031ZM118.906 31.7031C118.906 30.401 119.245 29.3125 119.922 28.4375C120.599 27.5521 121.568 27.1094 122.828 27.1094C124.068 27.1094 125.026 27.5521 125.703 28.4375C126.391 29.3125 126.734 30.401 126.734 31.7031C126.734 32.2448 126.661 32.7708 126.516 33.2812C126.38 33.7917 126.167 34.2812 125.875 34.75C125.594 35.2083 125.188 35.5781 124.656 35.8594C124.125 36.1406 123.516 36.2812 122.828 36.2812C122.141 36.2812 121.531 36.1458 121 35.875C120.479 35.5938 120.068 35.224 119.766 34.7656C119.474 34.3073 119.255 33.8229 119.109 33.3125C118.974 32.7917 118.906 32.2552 118.906 31.7031ZM129.453 33.7188C129.453 34.0938 129.609 34.4115 129.922 34.6719C130.234 34.9323 130.656 35.0625 131.188 35.0625C131.896 35.0625 132.495 34.8333 132.984 34.375C133.484 33.9167 133.734 33.3281 133.734 32.6094V31.5469C133.318 31.651 132.641 31.776 131.703 31.9219C130.203 32.1719 129.453 32.7708 129.453 33.7188ZM127.984 33.8438C127.984 32.2292 129.208 31.2344 131.656 30.8594C132.719 30.6927 133.411 30.5573 133.734 30.4531V29.9688C133.734 29.4688 133.557 29.0625 133.203 28.75C132.859 28.4375 132.37 28.2812 131.734 28.2812C131.234 28.2812 130.75 28.401 130.281 28.6406C129.823 28.8698 129.438 29.1771 129.125 29.5625L128.203 28.7812C128.63 28.2708 129.151 27.8646 129.766 27.5625C130.38 27.2604 131.026 27.1094 131.703 27.1094C134.026 27.1094 135.188 28.2552 135.188 30.5469V36H133.781V34.7031C133.604 35.1302 133.266 35.5 132.766 35.8125C132.266 36.125 131.677 36.2812 131 36.2812C130.052 36.2812 129.312 36.0573 128.781 35.6094C128.25 35.151 127.984 34.5625 127.984 33.8438ZM136.922 31.6875C136.922 30.2708 137.266 29.1562 137.953 28.3438C138.641 27.5208 139.51 27.1094 140.562 27.1094C141.146 27.1094 141.656 27.2708 142.094 27.5938C142.531 27.9167 142.844 28.2865 143.031 28.7031V23.6562H144.484V36H143.078V34.5938C142.87 35.0729 142.542 35.474 142.094 35.7969C141.646 36.1198 141.135 36.2812 140.562 36.2812C140.125 36.2812 139.698 36.1927 139.281 36.0156C138.865 35.849 138.474 35.5938 138.109 35.25C137.755 34.8958 137.469 34.4115 137.25 33.7969C137.031 33.1823 136.922 32.4792 136.922 31.6875ZM138.422 31.6875C138.422 32.7188 138.635 33.5365 139.062 34.1406C139.49 34.7448 140.052 35.0469 140.75 35.0469C141.396 35.0469 141.943 34.7448 142.391 34.1406C142.839 33.5365 143.062 32.7188 143.062 31.6875C143.062 30.6771 142.839 29.8698 142.391 29.2656C141.953 28.651 141.406 28.3438 140.75 28.3438C140.042 28.3438 139.474 28.651 139.047 29.2656C138.63 29.8802 138.422 30.6875 138.422 31.6875ZM151.812 31.7031C151.812 32.7552 152.047 33.5781 152.516 34.1719C152.984 34.7552 153.557 35.0469 154.234 35.0469C154.901 35.0469 155.469 34.7552 155.938 34.1719C156.406 33.5781 156.641 32.7552 156.641 31.7031C156.641 30.6302 156.406 29.8021 155.938 29.2188C155.469 28.6354 154.901 28.3438 154.234 28.3438C153.568 28.3438 152.995 28.6354 152.516 29.2188C152.047 29.7917 151.812 30.6198 151.812 31.7031ZM150.312 31.7031C150.312 30.401 150.651 29.3125 151.328 28.4375C152.005 27.5521 152.974 27.1094 154.234 27.1094C155.474 27.1094 156.432 27.5521 157.109 28.4375C157.797 29.3125 158.141 30.401 158.141 31.7031C158.141 32.2448 158.068 32.7708 157.922 33.2812C157.786 33.7917 157.573 34.2812 157.281 34.75C157 35.2083 156.594 35.5781 156.062 35.8594C155.531 36.1406 154.922 36.2812 154.234 36.2812C153.547 36.2812 152.938 36.1458 152.406 35.875C151.885 35.5938 151.474 35.224 151.172 34.7656C150.88 34.3073 150.661 33.8229 150.516 33.3125C150.38 32.7917 150.312 32.2552 150.312 31.7031ZM159.953 36V27.3906H161.391V28.7344H161.406C161.542 28.349 161.839 27.9844 162.297 27.6406C162.766 27.2865 163.339 27.1094 164.016 27.1094C164.839 27.1094 165.505 27.3646 166.016 27.875C166.536 28.3854 166.797 29.2396 166.797 30.4375V36H165.312V30.6719C165.312 29.1198 164.771 28.3438 163.688 28.3438C163.073 28.3438 162.542 28.599 162.094 29.1094C161.656 29.6094 161.438 30.2135 161.438 30.9219V36H159.953ZM172.078 28.625V27.3906H173.531V24.7031H175V27.3906H177.156V28.625H175V33.3906C175 33.8802 175.094 34.2292 175.281 34.4375C175.469 34.6458 175.766 34.75 176.172 34.75H177.172V36H175.984C174.349 36 173.531 35.1719 173.531 33.5156V28.625H172.078ZM178.922 36V23.6562H180.375V28.6094H180.406C180.625 28.1927 180.958 27.8385 181.406 27.5469C181.865 27.2552 182.365 27.1094 182.906 27.1094C183.76 27.1094 184.443 27.3698 184.953 27.8906C185.474 28.4115 185.734 29.2604 185.734 30.4375V36H184.281V30.6562C184.281 29.1146 183.734 28.3438 182.641 28.3438C182.026 28.3438 181.495 28.6042 181.047 29.125C180.599 29.6354 180.375 30.2448 180.375 30.9531V36H178.922ZM187.469 31.6406C187.469 30.2865 187.839 29.1927 188.578 28.3594C189.318 27.526 190.266 27.1094 191.422 27.1094C192.578 27.1094 193.5 27.5208 194.188 28.3438C194.885 29.1667 195.234 30.2188 195.234 31.5C195.234 31.6667 195.224 31.8958 195.203 32.1875H188.953C188.953 32.9792 189.177 33.6615 189.625 34.2344C190.083 34.7969 190.708 35.0781 191.5 35.0781C192.562 35.0781 193.339 34.6198 193.828 33.7031L195.062 34.0938C194.792 34.7292 194.349 35.2552 193.734 35.6719C193.13 36.0781 192.38 36.2812 191.484 36.2812C190.286 36.2812 189.318 35.8594 188.578 35.0156C187.839 34.1615 187.469 33.0365 187.469 31.6406ZM188.984 31.1094H193.75C193.75 30.3281 193.542 29.6667 193.125 29.125C192.708 28.5833 192.141 28.3125 191.422 28.3125C190.693 28.3125 190.109 28.5938 189.672 29.1562C189.234 29.7083 189.005 30.3594 188.984 31.1094ZM79.4531 55.7422H85.9062L84.0742 50.1367C83.9466 49.7357 83.8008 49.2891 83.6367 48.7969C83.4909 48.3047 83.3268 47.7669 83.1445 47.1836C82.9805 46.582 82.8529 46.1354 82.7617 45.8438H82.5977C82.543 46.026 82.1055 47.457 81.2852 50.1367L79.4531 55.7422ZM72.8906 64L80.7109 42.3711H84.6758L92.4688 64H88.6406L86.8633 58.6406H78.4961L76.7188 64H72.8906ZM97.8281 56.0977C97.8281 57.7565 98.138 59.0781 98.7578 60.0625C99.3958 61.0469 100.28 61.5391 101.41 61.5391C102.486 61.5391 103.361 61.0651 104.035 60.1172C104.71 59.151 105.047 57.8112 105.047 56.0977C105.047 54.4388 104.719 53.1263 104.062 52.1602C103.424 51.1758 102.54 50.6836 101.41 50.6836C100.298 50.6836 99.4232 51.1849 98.7852 52.1875C98.1471 53.1901 97.8281 54.4935 97.8281 56.0977ZM94.4102 70.4531V48.2227H97.7461V50.2734C98.7122 48.5781 100.098 47.7305 101.902 47.7305C103.816 47.7305 105.402 48.487 106.66 50C107.936 51.4948 108.574 53.5273 108.574 56.0977C108.574 57.5378 108.374 58.8229 107.973 59.9531C107.572 61.0651 107.034 61.9401 106.359 62.5781C105.703 63.2161 104.992 63.6901 104.227 64C103.479 64.3281 102.704 64.4922 101.902 64.4922C100.882 64.4922 100.025 64.2643 99.332 63.8086C98.6576 63.3346 98.1654 62.7878 97.8555 62.168V70.4531H94.4102ZM115.027 56.0977C115.027 57.7565 115.337 59.0781 115.957 60.0625C116.595 61.0469 117.479 61.5391 118.609 61.5391C119.685 61.5391 120.56 61.0651 121.234 60.1172C121.909 59.151 122.246 57.8112 122.246 56.0977C122.246 54.4388 121.918 53.1263 121.262 52.1602C120.624 51.1758 119.74 50.6836 118.609 50.6836C117.497 50.6836 116.622 51.1849 115.984 52.1875C115.346 53.1901 115.027 54.4935 115.027 56.0977ZM111.609 70.4531V48.2227H114.945V50.2734C115.911 48.5781 117.297 47.7305 119.102 47.7305C121.016 47.7305 122.602 48.487 123.859 50C125.135 51.4948 125.773 53.5273 125.773 56.0977C125.773 57.5378 125.573 58.8229 125.172 59.9531C124.771 61.0651 124.233 61.9401 123.559 62.5781C122.902 63.2161 122.191 63.6901 121.426 64C120.678 64.3281 119.904 64.4922 119.102 64.4922C118.081 64.4922 117.224 64.2643 116.531 63.8086C115.857 63.3346 115.365 62.7878 115.055 62.168V70.4531H111.609ZM134.332 59.3789L137.504 58.3125C138.014 59.224 138.753 59.9714 139.719 60.5547C140.685 61.1198 141.751 61.4023 142.918 61.4023C144.121 61.4023 145.087 61.1107 145.816 60.5273C146.546 59.944 146.91 59.1875 146.91 58.2578C146.91 57.2734 146.518 56.5078 145.734 55.9609C144.969 55.4141 143.839 54.8854 142.344 54.375C140.211 53.6641 138.771 53.099 138.023 52.6797C136.073 51.5677 135.098 49.9544 135.098 47.8398C135.098 46.0534 135.799 44.6133 137.203 43.5195C138.607 42.4258 140.439 41.8789 142.699 41.8789C144.559 41.8789 146.145 42.3164 147.457 43.1914C148.788 44.0482 149.754 45.151 150.355 46.5L147.32 47.5117C146.154 45.8164 144.604 44.9688 142.672 44.9688C141.487 44.9688 140.548 45.2331 139.855 45.7617C139.163 46.2904 138.816 46.9831 138.816 47.8398C138.816 48.0951 138.844 48.3411 138.898 48.5781C138.953 48.7969 139.062 49.0065 139.227 49.207C139.391 49.4076 139.536 49.5807 139.664 49.7266C139.792 49.8724 140.001 50.0273 140.293 50.1914C140.585 50.3555 140.812 50.4831 140.977 50.5742C141.159 50.6654 141.451 50.7839 141.852 50.9297C142.253 51.0755 142.535 51.1758 142.699 51.2305C142.882 51.2852 143.21 51.3945 143.684 51.5586C144.158 51.7044 144.477 51.8047 144.641 51.8594C145.479 52.1328 146.217 52.4245 146.855 52.7344C147.493 53.0443 148.113 53.4453 148.715 53.9375C149.335 54.4115 149.809 55.0039 150.137 55.7148C150.465 56.4258 150.629 57.2279 150.629 58.1211C150.629 60.1445 149.9 61.7122 148.441 62.8242C147.001 63.9362 145.133 64.4922 142.836 64.4922C140.849 64.4922 139.108 64.0365 137.613 63.125C136.118 62.1953 135.025 60.9466 134.332 59.3789ZM151.969 51.1758V48.2227H154.402V43.5469H157.848V48.2227H161.457V51.1758H157.848V58.9414C157.848 59.6888 157.993 60.2266 158.285 60.5547C158.595 60.8828 159.06 61.0469 159.68 61.0469H161.484V64H159.242C156.016 64 154.402 62.3958 154.402 59.1875V51.1758H151.969ZM166.844 56.125C166.844 57.9479 167.217 59.306 167.965 60.1992C168.712 61.0924 169.587 61.5391 170.59 61.5391C171.574 61.5391 172.44 61.0924 173.188 60.1992C173.935 59.306 174.309 57.9479 174.309 56.125C174.309 54.2656 173.935 52.8984 173.188 52.0234C172.44 51.1302 171.574 50.6836 170.59 50.6836C169.605 50.6836 168.73 51.1302 167.965 52.0234C167.217 52.8984 166.844 54.2656 166.844 56.125ZM163.289 56.125C163.289 53.7734 163.909 51.7865 165.148 50.1641C166.388 48.5417 168.202 47.7305 170.59 47.7305C172.96 47.7305 174.764 48.5417 176.004 50.1641C177.243 51.7865 177.863 53.7734 177.863 56.125C177.863 56.8542 177.79 57.5833 177.645 58.3125C177.517 59.0417 177.28 59.7891 176.934 60.5547C176.587 61.3021 176.15 61.9674 175.621 62.5508C175.092 63.1159 174.391 63.5807 173.516 63.9453C172.659 64.3099 171.684 64.4922 170.59 64.4922C169.514 64.4922 168.539 64.319 167.664 63.9727C166.807 63.6081 166.105 63.1523 165.559 62.6055C165.03 62.0404 164.583 61.3841 164.219 60.6367C163.872 59.8711 163.626 59.1237 163.48 58.3945C163.353 57.6471 163.289 56.8906 163.289 56.125ZM180.707 64V48.2227H184.043V49.918C184.389 49.3346 184.882 48.8242 185.52 48.3867C186.176 47.9492 186.951 47.7305 187.844 47.7305C188.682 47.7305 189.366 47.849 189.895 48.0859V51.2305C189.202 51.0117 188.518 50.9023 187.844 50.9023C186.659 50.9023 185.747 51.3672 185.109 52.2969C184.49 53.2083 184.18 54.4297 184.18 55.9609V64H180.707ZM190.797 56.043C190.797 53.5091 191.49 51.4948 192.875 50C194.279 48.487 196.038 47.7305 198.152 47.7305C200.23 47.7305 201.944 48.487 203.293 50C204.642 51.513 205.316 53.4818 205.316 55.9062C205.316 56.3802 205.289 56.8451 205.234 57.3008H194.297C194.297 58.5039 194.652 59.543 195.363 60.418C196.092 61.2747 197.086 61.7031 198.344 61.7031C199.219 61.7031 199.984 61.4935 200.641 61.0742C201.315 60.6367 201.826 60.0807 202.172 59.4062L205.07 60.3906C204.56 61.5573 203.73 62.5326 202.582 63.3164C201.434 64.1003 200.003 64.4922 198.289 64.4922C196.083 64.4922 194.279 63.7266 192.875 62.1953C191.49 60.6641 190.797 58.6133 190.797 56.043ZM194.352 54.8672H201.789C201.789 53.6641 201.47 52.6432 200.832 51.8047C200.194 50.9479 199.301 50.5195 198.152 50.5195C197.004 50.5195 196.083 50.957 195.391 51.832C194.716 52.6888 194.37 53.7005 194.352 54.8672Z" fill="white"/>
</svg>
