<svg width="257" height="88" viewBox="0 0 257 88" fill="none" xmlns="http://www.w3.org/2000/svg">
<rect x="0.233398" width="256" height="88" rx="14.4249" fill="#AA967B"/>
<path fill-rule="evenodd" clip-rule="evenodd" d="M32.6429 30.0116C26.1041 23.9804 20.7264 18.7947 20.7264 18.5692C20.7264 17.7801 23.1097 18.7383 28.3041 21.5566C30.1523 22.5037 33.6015 24.3165 37.1675 26.1906L37.1688 26.1913L37.1719 26.1929C38.9104 27.1066 40.6765 28.0348 42.2983 28.8843C47.2483 31.4771 51.4649 33.7882 51.5871 33.9573C51.7093 34.1827 50.1816 35.8174 48.1649 37.6775L44.5594 41.0031L32.6429 30.0116ZM18.231 65.1897C17.6199 64.8515 17.4977 22.6894 18.1088 21.2802C18.4144 20.4911 21.1643 22.8021 30.6975 31.5953L42.8585 42.8686L30.8197 54.1982C24.1587 60.3985 18.4755 65.3588 18.231 65.1897ZM50.623 38.8682C48.6675 40.6719 47.0175 42.4193 47.0175 42.7011C47.0175 43.0393 48.7897 44.8994 50.8675 46.8722L54.7785 50.3669L60.034 47.5486C65.6562 44.4485 66.7561 43.0393 64.984 41.2356C64.0062 40.221 55.5119 35.6553 54.5952 35.6553C54.4119 35.6553 52.5786 37.1208 50.623 38.8682ZM21.5924 67.1064C21.1036 66.9936 25.7479 62.2589 32.7756 55.7767L44.8144 44.6725L48.3588 47.8854C50.3143 49.6891 51.9032 51.2674 51.9032 51.4365C51.9032 52.0565 22.448 67.2755 21.5924 67.1064Z" fill="white"/>
<path d="M70.999 29.0469C70.999 27.2135 71.4678 25.7135 72.4053 24.5469C73.3532 23.3802 74.6344 22.7969 76.249 22.7969C76.8115 22.7969 77.3324 22.8854 77.8115 23.0625C78.3011 23.2396 78.7074 23.474 79.0303 23.7656C79.3636 24.0469 79.6292 24.3281 79.8271 24.6094C80.0355 24.8802 80.2074 25.1562 80.3428 25.4375L79.0459 25.875C78.3063 24.6875 77.374 24.0938 76.249 24.0938C75.0824 24.0938 74.1761 24.5469 73.5303 25.4531C72.8844 26.3594 72.5615 27.5573 72.5615 29.0469C72.5615 30.5781 72.8949 31.7812 73.5615 32.6562C74.2282 33.5312 75.1032 33.9688 76.1865 33.9688C77.1553 33.9688 77.9053 33.6667 78.4365 33.0625C78.9678 32.4479 79.2438 31.7083 79.2646 30.8438C79.2646 30.75 79.2646 30.5781 79.2646 30.3281C79.2751 30.0677 79.2803 29.8854 79.2803 29.7812H76.0615V28.4844H80.749V35H79.6709L79.5459 33.4375C78.9001 34.6667 77.7646 35.2812 76.1396 35.2812C74.6292 35.2812 73.3949 34.724 72.4365 33.6094C71.4782 32.4844 70.999 30.9635 70.999 29.0469ZM83.3115 35V23.0781H90.8896V24.375H84.8271V28.2031H90.2959V29.4688H84.8271V33.7031H91.0303V35H83.3115ZM92.0146 24.375V23.0781H100.655V24.375H97.0928V35H95.5771V24.375H92.0146ZM106.249 35V23.0781H107.765V35H106.249ZM109.483 24.375V23.0781H118.124V24.375H114.562V35H113.046V24.375H109.483ZM122.937 29.0469C122.937 27.1719 123.39 25.6615 124.296 24.5156C125.213 23.3698 126.431 22.7969 127.952 22.7969C129.483 22.7969 130.697 23.3698 131.593 24.5156C132.499 25.6615 132.952 27.1771 132.952 29.0625C132.952 30.9583 132.494 32.4688 131.577 33.5938C130.671 34.7188 129.463 35.2812 127.952 35.2812C126.431 35.2812 125.213 34.7188 124.296 33.5938C123.39 32.4583 122.937 30.9427 122.937 29.0469ZM124.499 29.0469C124.499 30.5573 124.806 31.7552 125.421 32.6406C126.046 33.526 126.89 33.9688 127.952 33.9688C129.004 33.9688 129.838 33.5365 130.452 32.6719C131.077 31.7969 131.39 30.5938 131.39 29.0625C131.39 27.5521 131.088 26.349 130.483 25.4531C129.879 24.5469 129.035 24.0938 127.952 24.0938C126.89 24.0938 126.046 24.5417 125.421 25.4375C124.806 26.3333 124.499 27.5365 124.499 29.0469ZM135.249 35V23.0781H136.921L141.046 30.3281L142.437 32.7969H142.53C142.395 31.8281 142.327 30.6979 142.327 29.4062V23.0781H143.843V35H142.171L138.046 27.7656L136.655 25.2969H136.593C136.707 26.3802 136.765 27.5104 136.765 28.6875V35H135.249ZM71.3818 52.1719C71.3818 48.8724 72.266 46.1654 74.0342 44.0508C75.8024 41.9362 78.1722 40.8789 81.1436 40.8789C82.2555 40.8789 83.2764 41.0612 84.2061 41.4258C85.154 41.7904 85.9378 42.2643 86.5576 42.8477C87.1774 43.4128 87.6696 43.9596 88.0342 44.4883C88.417 44.9987 88.7269 45.5182 88.9639 46.0469L85.874 47.0586C85.4912 46.4753 85.1357 45.9922 84.8076 45.6094C84.4977 45.2266 84.0146 44.862 83.3584 44.5156C82.7021 44.151 81.973 43.9688 81.1709 43.9688C79.2751 43.9688 77.7894 44.7161 76.7139 46.2109C75.6383 47.7057 75.1006 49.6927 75.1006 52.1719C75.1006 54.7057 75.6475 56.7109 76.7412 58.1875C77.835 59.6641 79.2568 60.4023 81.0068 60.4023C82.5199 60.4023 83.7048 59.9648 84.5615 59.0898C85.4183 58.2148 85.9014 57.1029 86.0107 55.7539C86.0654 54.9336 86.0928 54.3411 86.0928 53.9766H80.7881V50.9141H89.5928V63H87.1045L86.7764 60.7852C85.5915 62.5898 83.6318 63.4922 80.8975 63.4922C78.1631 63.4922 75.8936 62.4714 74.0889 60.4297C72.2842 58.3698 71.3818 55.6172 71.3818 52.1719ZM95.6357 55.125C95.6357 56.9479 96.0094 58.306 96.7568 59.1992C97.5042 60.0924 98.3792 60.5391 99.3818 60.5391C100.366 60.5391 101.232 60.0924 101.979 59.1992C102.727 58.306 103.101 56.9479 103.101 55.125C103.101 53.2656 102.727 51.8984 101.979 51.0234C101.232 50.1302 100.366 49.6836 99.3818 49.6836C98.3975 49.6836 97.5225 50.1302 96.7568 51.0234C96.0094 51.8984 95.6357 53.2656 95.6357 55.125ZM92.0811 55.125C92.0811 52.7734 92.7008 50.7865 93.9404 49.1641C95.18 47.5417 96.9938 46.7305 99.3818 46.7305C101.752 46.7305 103.556 47.5417 104.796 49.1641C106.035 50.7865 106.655 52.7734 106.655 55.125C106.655 55.8542 106.582 56.5833 106.437 57.3125C106.309 58.0417 106.072 58.7891 105.726 59.5547C105.379 60.3021 104.942 60.9674 104.413 61.5508C103.884 62.1159 103.183 62.5807 102.308 62.9453C101.451 63.3099 100.476 63.4922 99.3818 63.4922C98.3063 63.4922 97.3311 63.319 96.4561 62.9727C95.5993 62.6081 94.8975 62.1523 94.3506 61.6055C93.8219 61.0404 93.3753 60.3841 93.0107 59.6367C92.6644 58.8711 92.4183 58.1237 92.2725 57.3945C92.1449 56.6471 92.0811 55.8906 92.0811 55.125ZM112.151 55.125C112.151 56.9479 112.525 58.306 113.272 59.1992C114.02 60.0924 114.895 60.5391 115.897 60.5391C116.882 60.5391 117.748 60.0924 118.495 59.1992C119.243 58.306 119.616 56.9479 119.616 55.125C119.616 53.2656 119.243 51.8984 118.495 51.0234C117.748 50.1302 116.882 49.6836 115.897 49.6836C114.913 49.6836 114.038 50.1302 113.272 51.0234C112.525 51.8984 112.151 53.2656 112.151 55.125ZM108.597 55.125C108.597 52.7734 109.216 50.7865 110.456 49.1641C111.696 47.5417 113.509 46.7305 115.897 46.7305C118.267 46.7305 120.072 47.5417 121.312 49.1641C122.551 50.7865 123.171 52.7734 123.171 55.125C123.171 55.8542 123.098 56.5833 122.952 57.3125C122.825 58.0417 122.588 58.7891 122.241 59.5547C121.895 60.3021 121.457 60.9674 120.929 61.5508C120.4 62.1159 119.698 62.5807 118.823 62.9453C117.966 63.3099 116.991 63.4922 115.897 63.4922C114.822 63.4922 113.847 63.319 112.972 62.9727C112.115 62.6081 111.413 62.1523 110.866 61.6055C110.338 61.0404 109.891 60.3841 109.526 59.6367C109.18 58.8711 108.934 58.1237 108.788 57.3945C108.66 56.6471 108.597 55.8906 108.597 55.125ZM128.722 54.8242C128.722 56.4284 129.032 57.6771 129.651 58.5703C130.289 59.4635 131.128 59.9102 132.167 59.9102C133.188 59.9102 134.008 59.4727 134.628 58.5977C135.248 57.7227 135.558 56.4557 135.558 54.7969C135.558 53.1745 135.248 51.9167 134.628 51.0234C134.008 50.1302 133.197 49.6836 132.194 49.6836C131.137 49.6836 130.289 50.1484 129.651 51.0781C129.032 52.0078 128.722 53.2565 128.722 54.8242ZM125.194 54.8516C125.194 52.3906 125.805 50.4219 127.026 48.9453C128.248 47.4688 129.815 46.7305 131.729 46.7305C132.696 46.7305 133.507 46.9766 134.163 47.4688C134.838 47.9427 135.312 48.4714 135.585 49.0547V47.2227H139.03V60.8125C139.03 63.7839 138.447 65.9805 137.28 67.4023C136.132 68.8424 134.354 69.5625 131.948 69.5625C129.305 69.5625 127.254 68.5417 125.796 66.5L128.093 64.9141C129.15 66.1536 130.453 66.7734 132.003 66.7734C133.006 66.7734 133.835 66.3906 134.491 65.625C135.147 64.8594 135.503 63.8568 135.558 62.6172C135.594 61.888 135.612 61.2865 135.612 60.8125C135.266 61.3958 134.746 61.888 134.054 62.2891C133.361 62.6719 132.623 62.8633 131.839 62.8633C129.852 62.8633 128.248 62.1341 127.026 60.6758C125.805 59.1992 125.194 57.2578 125.194 54.8516ZM143.05 63V40.6602H146.495V63H143.05ZM149.64 55.043C149.64 52.5091 150.332 50.4948 151.718 49C153.121 47.487 154.881 46.7305 156.995 46.7305C159.073 46.7305 160.787 47.487 162.136 49C163.485 50.513 164.159 52.4818 164.159 54.9062C164.159 55.3802 164.132 55.8451 164.077 56.3008H153.14C153.14 57.5039 153.495 58.543 154.206 59.418C154.935 60.2747 155.929 60.7031 157.187 60.7031C158.062 60.7031 158.827 60.4935 159.483 60.0742C160.158 59.6367 160.668 59.0807 161.015 58.4062L163.913 59.3906C163.403 60.5573 162.573 61.5326 161.425 62.3164C160.276 63.1003 158.845 63.4922 157.132 63.4922C154.926 63.4922 153.121 62.7266 151.718 61.1953C150.332 59.6641 149.64 57.6133 149.64 55.043ZM153.194 53.8672H160.632C160.632 52.6641 160.313 51.6432 159.675 50.8047C159.037 49.9479 158.144 49.5195 156.995 49.5195C155.847 49.5195 154.926 49.957 154.233 50.832C153.559 51.6888 153.213 52.7005 153.194 53.8672ZM174.358 63V41.3711H182.808C185.068 41.3711 186.827 41.9818 188.085 43.2031C189.361 44.4062 189.999 46.0013 189.999 47.9883C189.999 50.0299 189.343 51.6432 188.03 52.8281C186.736 54.013 185.013 54.6055 182.862 54.6055H177.968V63H174.358ZM177.968 51.543H182.37C183.61 51.543 184.576 51.2422 185.269 50.6406C185.961 50.0391 186.308 49.1549 186.308 47.9883C186.308 46.8398 185.97 45.9648 185.296 45.3633C184.621 44.7617 183.637 44.4609 182.343 44.4609H177.968V51.543ZM193.144 63V40.6602H196.589V63H193.144ZM203.206 58.5703C203.206 59.1536 203.434 59.6458 203.89 60.0469C204.364 60.4297 204.983 60.6211 205.749 60.6211C206.843 60.6211 207.772 60.2565 208.538 59.5273C209.322 58.7982 209.714 57.8411 209.714 56.6562V55.207C208.875 55.4076 207.864 55.599 206.679 55.7812C204.364 56.1458 203.206 57.0755 203.206 58.5703ZM199.706 58.8711C199.706 55.8997 201.912 54.0859 206.323 53.4297C207.927 53.1927 209.058 52.974 209.714 52.7734V51.9258C209.714 51.1602 209.44 50.5586 208.894 50.1211C208.347 49.6836 207.618 49.4648 206.706 49.4648C204.974 49.4648 203.479 50.1758 202.222 51.5977L200.116 49.793C200.937 48.8268 201.912 48.0794 203.042 47.5508C204.19 47.0039 205.394 46.7305 206.651 46.7305C209.003 46.7305 210.68 47.3047 211.683 48.4531C212.685 49.5833 213.187 51.1693 213.187 53.2109V63H209.823V61.0312C209.495 61.7057 208.921 62.2891 208.101 62.7812C207.299 63.2552 206.351 63.4922 205.257 63.4922C203.525 63.4922 202.167 63.0638 201.183 62.207C200.198 61.3503 199.706 60.2383 199.706 58.8711ZM215.046 47.2227H218.847L221.554 55.3438C222.009 56.8385 222.356 58.0508 222.593 58.9805H222.702C222.793 58.6523 223.131 57.4401 223.714 55.3438L226.202 47.2227H229.976L223.44 65.0781C222.857 66.6823 222.101 67.8125 221.171 68.4688C220.259 69.125 219.12 69.4531 217.753 69.4531H216.687V66.5547H217.179C217.999 66.5547 218.664 66.3724 219.175 66.0078C219.703 65.6615 220.123 65.0508 220.433 64.1758L220.952 62.6172L215.046 47.2227Z" fill="white"/>
</svg>
