<svg width="72" height="72" viewBox="0 0 72 72" fill="none" xmlns="http://www.w3.org/2000/svg">
<rect width="72" height="72" rx="10.9565" fill="#AA967B"/>
<path d="M31.5675 41.9759C31.5675 41.0769 31.5675 40.5341 31.5675 39.9913C31.5675 34.1226 31.5442 20.7172 31.5442 20.7172L39.5191 20.7341C39.5191 20.7341 39.4958 28.3895 39.5016 31.4879C39.5016 32.8844 39.6879 32.9861 40.9918 32.4716C45.701 30.6228 48.7105 27.2305 50.1891 22.5943C50.3288 22.1476 50.8119 20.7002 50.8119 20.7002H58.682C57.448 27.1457 53.7749 31.8214 48.5301 35.5813C54.8692 38.7249 58.228 43.9321 60.3177 50.3832C57.6575 50.3832 52.3778 50.4002 52.3778 50.4002C52.3778 50.4002 52.0227 49.3768 51.9762 49.2694C49.9679 44.4297 46.2017 41.5292 41.1955 39.9687C39.7519 39.5164 39.5016 39.6804 39.4958 41.1617C39.4841 43.7455 39.5133 50.3832 39.5133 50.3832C39.5133 50.3832 38.9311 50.3832 38.0347 50.3719C25.4321 50.2306 14.7097 41.4783 12.5501 29.4072C12.1251 27.0608 12.0495 24.6523 11.7992 22.272C11.7759 22.0402 11.7002 20.7002 11.7002 20.7002H19.7274C19.7274 20.7002 19.7449 22.1476 19.7507 22.4812C19.8497 26.5068 20.5657 30.4136 22.539 34.0265C24.4891 37.5941 27.388 40.144 31.5675 41.9759Z" fill="white"/>
</svg>
