<svg width="56" height="56" viewBox="0 0 56 56" fill="none" xmlns="http://www.w3.org/2000/svg">
<path d="M34 22H46C48.1216 22 50.1564 22.8428 51.6568 24.3432C53.1572 25.8434 54 27.8783 54 30V46H48" stroke="#5F700D" stroke-width="4" stroke-linecap="round" stroke-linejoin="round"/>
<path d="M6 46H2V18C2 16.9391 2.42143 15.9217 3.17157 15.1716C3.92172 14.4214 4.93912 14 6 14H30C31.0609 14 32.0783 14.4214 32.8284 15.1716C33.5786 15.9217 34 16.9391 34 18V46" stroke="#5F700D" stroke-width="4" stroke-linecap="round" stroke-linejoin="round"/>
<path d="M32 46H22" stroke="#5F700D" stroke-width="4" stroke-linecap="round" stroke-linejoin="round"/>
<path d="M41 54C37.134 54 34 50.866 34 47C34 43.134 37.134 40 41 40C44.866 40 48 43.134 48 47C48 50.866 44.866 54 41 54Z" stroke="#5F700D" stroke-width="4" stroke-linecap="round" stroke-linejoin="round"/>
<path d="M14 54C10.134 54 7 50.866 7 47C7 43.134 10.134 40 14 40C17.866 40 21 43.134 21 47C21 50.866 17.866 54 14 54Z" stroke="#5F700D" stroke-width="4" stroke-linecap="round" stroke-linejoin="round"/>
</svg>
