<svg width="26" height="26" viewBox="0 0 26 26" fill="none" xmlns="http://www.w3.org/2000/svg">
<path d="M15.8218 1.03975C14.298 1.61477 12.6592 3.85733 12.6592 5.35237C12.6592 6.12864 12.7742 6.30115 13.2342 6.30115C14.643 6.30115 16.3393 4.86361 17.1156 3.08106C17.9206 1.09725 17.4893 0.407234 15.8218 1.03975Z" fill="white"/>
<path d="M7.13832 6.63793C3.51572 7.93172 1.84817 11.3531 2.62444 15.9244C3.25696 19.7195 6.21829 24.6072 8.23085 25.0959C8.66211 25.2109 9.61089 25.0959 10.5022 24.8084C12.3997 24.2334 13.8948 24.2334 15.4473 24.8084C17.8624 25.7572 19.6449 24.6072 21.715 20.8408L22.75 18.9145L21.3412 17.5345C18.7536 15.0619 18.6961 11.8706 21.1975 9.57051C22.1462 8.67924 21.9737 8.21923 20.3062 7.2417C18.4086 6.12042 17.2586 6.03417 14.786 6.81044L12.6297 7.50046L10.6747 6.86794C9.87142 6.46894 8.51836 6.14917 7.13832 6.63793Z" fill="white"/>
</svg>
