<svg width="32" height="32" viewBox="0 0 32 32" fill="none" xmlns="http://www.w3.org/2000/svg">
<path d="M21.5098 22.85C23.1498 21.61 24.1098 20 24.2298 19.34L24.5098 18.46H16.5098V13H30.3198C30.7698 15.79 30.4698 20.82 28.6398 24.16C28.1398 24.88 27.4298 25.75 26.5098 26.62L21.5098 22.86V22.85Z" fill="white" stroke="#AA967B"/>
<path d="M3.36 21.98C2.49 20.15 2 18.12 2 15.98C2 13.53 2.56 11.13 3.61 8.97998L8.35 12.65C8.12 13.52 8 14.47 8 15.48C8 16.49 8.13 17.53 8.38 18.44L3.36 21.98Z" fill="white" stroke="#AA967B"/>
<path d="M8.36961 18.45C9.40961 22.18 12.4796 24.49 16.7896 24.49C18.6896 24.49 20.2796 23.77 21.4896 22.84L26.4896 26.6C24.3996 28.56 21.1896 30.49 16.7896 30.49C10.9896 30.49 5.73961 27.01 3.34961 21.99L8.36961 18.45Z" fill="white" stroke="#AA967B"/>
<path d="M26.0199 4.5C23.5499 2.44 20.2799 1 16.8199 1C10.4799 1 5.89988 4.4 3.62988 9L8.36988 12.67C9.36988 8.86 12.4599 6.5 16.8199 6.5C18.9999 6.5 20.3999 7.27 22.0199 8.5L26.0199 4.5Z" fill="white" stroke="#AA967B"/>
</svg>
