<svg width="32" height="32" viewBox="0 0 32 32" fill="none" xmlns="http://www.w3.org/2000/svg">
<g clip-path="url(#clip0_557_1717)">
<path d="M0 16C0 7.1632 7.1616 0 16 0C24.8352 0 32 7.1632 32 16C32 24.8368 24.8352 32 16 32C7.1616 32 0 24.8368 0 16Z" fill="white"/>
<path d="M17.5961 8.56867H16.0752C13.2869 8.56867 11.8203 9.94101 11.8203 11.9643C11.8203 14.2516 12.8343 15.3232 14.9164 16.6971L16.6365 17.8232L11.6936 24.9999H8L12.4359 18.5797C9.88466 16.8027 8.45265 15.0769 8.45265 12.1579C8.45265 8.4983 11.078 5.99994 16.0571 5.99994H21V24.9823H17.5961V8.56867Z" fill="#AA967B"/>
</g>
<defs>
<clipPath id="clip0_557_1717">
<rect width="32" height="32" fill="white"/>
</clipPath>
</defs>
</svg>
